<?xml version="1.0" encoding="UTF-8"?>
<svg width="20px" height="20px" viewBox="0 0 20 20" version="1.1" xmlns="http://www.w3.org/2000/svg" xmlns:xlink="http://www.w3.org/1999/xlink">
    <g id="Symbols" stroke="none" stroke-width="1" fill="none" fill-rule="evenodd">
        <g id="analytics-ico" fill="#F9F9F9">
            <path d="M10.8,16 L14,20 L16,20 L12.8,16 L17.0057979,16 C18.6594501,16 20,14.6556493 20,13.0005775 L20,3.99942248 C20,2.34288718 18.656688,1 17.0057979,1 L2.99420208,1 C1.34054993,1 0,2.34435073 0,3.99942248 L0,13.0005775 C0,14.6571128 1.34331197,16 2.99420208,16 L7.2,16 L4,20 L6,20 L9.2,16 L10.8,16 L10.8,16 Z M2,13.0044225 C2,13.5542648 2.44463086,14 3.00087166,14 L16.9991283,14 C17.5518945,14 18,13.555163 18,13.0044225 L18,3.9955775 C18,3.44573523 17.5553691,3 16.9991283,3 L3.00087166,3 C2.4481055,3 2,3.44483697 2,3.9955775 L2,13.0044225 Z M3,11.0010434 C3,11.5527519 3.44386482,12 4,12 L4,12 C4.55228475,12 5,11.5573397 5,11.0010434 L5,9.99895656 C5,9.44724809 4.55613518,9 4,9 L4,9 C3.44771525,9 3,9.44266033 3,9.99895656 L3,11.0010434 Z M7,11.009222 C7,11.5564136 7.44386482,12 8,12 L8,12 C8.55228475,12 9,11.5490248 9,11.009222 L9,6.99077797 C9,6.44358641 8.55613518,6 8,6 L8,6 C7.44771525,6 7,6.45097518 7,6.99077797 L7,11.009222 Z M11,10.9906311 C11,11.5480902 11.4438648,12 12,12 L12,12 C12.5522847,12 13,11.5566468 13,10.9906311 L13,9.0093689 C13,8.45190985 12.5561352,8 12,8 L12,8 C11.4477153,8 11,8.44335318 11,9.0093689 L11,10.9906311 Z M15,10.9970707 C15,11.5509732 15.4438648,12 16,12 L16,12 C16.5522847,12 17,11.5621186 17,10.9970707 L17,6.00292933 C17,5.44902676 16.5561352,5 16,5 L16,5 C15.4477153,5 15,5.43788135 15,6.00292933 L15,10.9970707 Z" id="Combined-Shape"></path>
        </g>
    </g>
</svg>
