<?xml version="1.0" encoding="UTF-8"?>
<svg width="16px" height="16px" viewBox="0 0 16 16" version="1.1" xmlns="http://www.w3.org/2000/svg" xmlns:xlink="http://www.w3.org/1999/xlink">
    <!-- Generator: Sketch 40.3 (33839) - http://www.bohemiancoding.com/sketch -->
    <title>delete_entry-icon</title>
    <desc>Created with Sketch.</desc>
    <defs></defs>
    <g id="IMM-desktop" stroke="none" stroke-width="1" fill="none" fill-rule="evenodd">
        <g id="d.dashboard-c-usuarios--editar" transform="translate(-238.000000, -643.000000)" fill="#FF2020">
            <path d="M246,659 C250.418278,659 254,655.418278 254,651 C254,646.581722 250.418278,643 246,643 C241.581722,643 238,646.581722 238,651 C238,655.418278 241.581722,659 246,659 Z M247.476831,651 L249.695475,648.781356 C250.094022,648.382809 250.099892,647.715739 249.692076,647.307924 C249.281418,646.897265 248.624583,646.898587 248.218644,647.304525 L246,649.523169 L243.781356,647.304525 C243.382809,646.905978 242.715739,646.900108 242.307924,647.307924 C241.897265,647.718582 241.898587,648.375417 242.304525,648.781356 L244.523169,651 L242.304525,653.218644 C241.905978,653.617191 241.900108,654.284261 242.307924,654.692076 C242.718582,655.102735 243.375417,655.101413 243.781356,654.695475 L246,652.476831 L248.218644,654.695475 C248.617191,655.094022 249.284261,655.099892 249.692076,654.692076 C250.102735,654.281418 250.101413,653.624583 249.695475,653.218644 L247.476831,651 Z" id="delete_entry-icon"></path>
        </g>
    </g>
</svg>