<?xml version="1.0" encoding="UTF-8" standalone="no"?>
<svg width="18px" height="13px" viewBox="0 0 18 13" version="1.1" xmlns="http://www.w3.org/2000/svg" xmlns:xlink="http://www.w3.org/1999/xlink">
    <!-- Generator: Sketch 40.1 (33804) - http://www.bohemiancoding.com/sketch -->
    <title>Page 1</title>
    <desc>Created with Sketch.</desc>
    <defs></defs>
    <g id="IMM-desktop" stroke="none" stroke-width="1" fill="none" fill-rule="evenodd">
        <g id="d.dashboard-c-proyecto" transform="translate(-1224.000000, -228.000000)" fill="#999999">
            <g id="Group-4" transform="translate(260.000000, 197.000000)">
                <path d="M964,37.5000017 C964,37.1383947 964.093364,36.7293695 964.280096,36.2729145 C964.466827,35.8164595 964.729137,35.3466744 965.067031,34.863543 C965.404926,34.380414 965.831735,33.907665 966.347469,33.4452825 C966.863204,32.9828977 967.424871,32.569429 968.032489,32.2048582 C968.640108,31.8402875 969.336634,31.5468567 970.122092,31.3245568 C970.90755,31.1022569 971.712261,30.9911081 972.536251,30.9911081 C973.36024,30.9911081 974.164952,31.1022569 974.95041,31.3245568 C975.735868,31.5468567 976.432394,31.8402875 977.040013,32.2048582 C977.647631,32.569429 978.209298,32.9828977 978.725033,33.4452825 C979.240768,33.907665 979.667576,34.380414 980.005471,34.863543 C980.343365,35.3466744 980.605674,35.8164595 980.792406,36.2729145 C980.979138,36.7293695 981.072502,37.1383947 981.072502,37.5000017 C981.072502,37.8556788 980.979138,38.2617403 980.792406,38.7181953 C980.605674,39.1746503 980.343365,39.6444354 980.005471,40.1275645 C979.667576,40.6106958 979.240768,41.0819628 978.725033,41.5413816 C978.209298,42.0008006 977.647631,42.412789 977.040013,42.7773599 C976.432394,43.1419307 975.735868,43.4353615 974.95041,43.6576607 C974.164952,43.8799601 973.36024,43.9911081 972.536251,43.9911081 C971.712261,43.9911081 970.90755,43.8799601 970.122092,43.6576607 C969.336634,43.4353615 968.640108,43.1419307 968.032489,42.7773599 C967.424871,42.412789 966.863204,42.0008006 966.347469,41.5413816 C965.831735,41.0819628 965.404926,40.6106958 965.067031,40.1275645 C964.729137,39.6444354 964.466827,39.1746503 964.280096,38.7181953 C964.093364,38.2617403 964,37.8556788 964,37.5000017 L964,37.5000017 Z M968.268125,37.5000017 C968.268125,38.2706385 968.459301,38.9819859 968.841655,39.6340644 C969.22401,40.2861407 969.7427,40.8018691 970.397743,41.1812588 C971.052785,41.5606485 971.765614,41.7503422 972.536251,41.7503422 C973.306888,41.7503422 974.019717,41.5606485 974.674759,41.1812588 C975.329802,40.8018691 975.848492,40.2861407 976.230847,39.6340644 C976.613201,38.9819859 976.804376,38.2706385 976.804376,37.5000017 C976.804376,36.7293626 976.613201,36.0165333 976.230847,35.361491 C975.848492,34.706451 975.329802,34.1877588 974.674759,33.8054053 C974.019717,33.4230495 973.306888,33.2318762 972.536251,33.2318762 C971.765614,33.2318762 971.052785,33.4230495 970.397743,33.8054053 C969.7427,34.1877588 969.22401,34.706451 968.841655,35.361491 C968.459301,36.0165333 968.268125,36.7293626 968.268125,37.5000017 L968.268125,37.5000017 Z M970.748974,37.5000017 C970.748974,37.0020492 970.923846,36.5767231 971.273596,36.2240097 C971.623348,35.8712941 972.044228,35.6949397 972.536251,35.6949397 C973.028274,35.6949397 973.449154,35.8712941 973.798906,36.2240097 C974.148655,36.5767231 974.323528,37.0020492 974.323528,37.5000017 C974.323528,37.9920221 974.148655,38.4129025 973.798906,38.7626544 C973.449154,39.1124062 973.028274,39.2872787 972.536251,39.2872787 C972.044228,39.2872787 971.623348,39.1124062 971.273596,38.7626544 C970.923846,38.4129025 970.748974,37.9920221 970.748974,37.5000017 L970.748974,37.5000017 Z" id="Page-1"></path>
            </g>
        </g>
    </g>
</svg>