<?xml version="1.0" encoding="UTF-8"?>
<svg width="16px" height="16px" viewBox="0 0 16 16" version="1.1" xmlns="http://www.w3.org/2000/svg" xmlns:xlink="http://www.w3.org/1999/xlink">
    <!-- Generator: Sketch 41 (35326) - http://www.bohemiancoding.com/sketch -->
    <title>icon-tipo-T</title>
    <desc>Created with Sketch.</desc>
    <defs></defs>
    <g id="Page-1" stroke="none" stroke-width="1" fill="none" fill-rule="evenodd">
        <g id="iconos-T-N" transform="translate(-286.000000, -370.000000)" fill="#666666">
            <path d="M300.378474,382.908338 L296.903747,374.568992 C297.565395,374.11921 298,373.360359 298,372.5 C298,371.119288 296.880712,370 295.5,370 C294.119288,370 293,371.119288 293,372.5 C293,372.950003 293.118896,373.372237 293.326988,373.737001 L289.167879,377.376222 C288.839286,377.13947 288.43593,377 288,377 C286.895431,377 286,377.895431 286,379 C286,380.104569 286.895431,381 288,381 C288.549275,381 289.046834,380.778576 289.408284,380.420118 L299.002225,384.417594 C299.000748,384.444875 299,384.47235 299,384.5 C299,385.328427 299.671573,386 300.5,386 C301.328427,386 302,385.328427 302,384.5 C302,383.671573 301.328427,383 300.5,383 C300.472263,383 300.431131,382.968123 300.378474,382.908338 L300.378474,382.908338 Z M295.980757,374.953818 C295.82518,374.984123 295.664444,375 295.5,375 C294.930768,375 294.405971,374.809755 293.985721,374.489378 L289.80835,378.144578 C289.93125,378.403927 290,378.693935 290,379 C290,379.191212 289.973166,379.376157 289.92306,379.551275 L299.386868,383.494528 C299.420919,383.456855 299.456855,383.420919 299.494528,383.386868 L295.980757,374.953818 L295.980757,374.953818 Z M295.5,374 C296.328427,374 297,373.328427 297,372.5 C297,371.671573 296.328427,371 295.5,371 C294.671573,371 294,371.671573 294,372.5 C294,373.328427 294.671573,374 295.5,374 Z M288,380 C288.552285,380 289,379.552285 289,379 C289,378.447715 288.552285,378 288,378 C287.447715,378 287,378.447715 287,379 C287,379.552285 287.447715,380 288,380 Z" id="icon-tipo-T"></path>
        </g>
    </g>
</svg>