<?xml version="1.0" encoding="UTF-8"?>
<svg width="7px" height="16px" viewBox="0 0 7 16" version="1.1" xmlns="http://www.w3.org/2000/svg" xmlns:xlink="http://www.w3.org/1999/xlink">
    <!-- Generator: Sketch 42 (36781) - http://www.bohemiancoding.com/sketch -->
    <title>list-icon-attachment</title>
    <desc>Created with Sketch.</desc>
    <defs></defs>
    <g id="IMM-desktop" stroke="none" stroke-width="1" fill="none" fill-rule="evenodd">
        <g id="d.dashboard-c-proyecto" transform="translate(-1140.000000, -480.000000)" fill="#4A90E2">
            <path d="M1146,483 L1147,483 L1147,493 C1147,493.544375 1146,496 1143.5,496 C1141,496 1140,493.544375 1140,493 L1140,482 C1140,481.795615 1140.5,480 1142.5,480 C1144.5,480 1145.09362,481.795615 1145,482 L1145,491 L1142,491 L1142,484 L1143,484 L1143,490 L1144,490 L1144,482 C1144.14043,482.047973 1144,481 1142.5,481 C1141,481 1140.95319,482.02856 1141,482 L1141,493 C1140.95319,493.272604 1142,495 1143.5,495 C1145,495 1146.04681,493.272604 1146,493 L1146,483 Z" id="list-icon-attachment"></path>
        </g>
    </g>
</svg>