<?xml version="1.0" encoding="UTF-8" standalone="no"?>
<svg width="20px" height="20px" viewBox="0 0 20 20" version="1.1" xmlns="http://www.w3.org/2000/svg" xmlns:xlink="http://www.w3.org/1999/xlink">
    <!-- Generator: Sketch 40.1 (33804) - http://www.bohemiancoding.com/sketch -->
    <title>Page 1</title>
    <desc>Created with Sketch.</desc>
    <defs></defs>
    <g id="IMM-desktop" stroke="none" stroke-width="1" fill="none" fill-rule="evenodd">
        <g id="d.dashboard-c-proyecto--detalles-errores" transform="translate(-745.000000, -699.000000)" fill="#FF4040">
            <path d="M745,709 C745,707.638883 745.263886,706.342021 745.791667,705.109376 C746.319447,703.876731 747.029509,702.81424 747.921875,701.921875 C748.81424,701.029509 749.876731,700.319448 751.109376,699.791667 C752.342021,699.263885 753.638883,699 755,699 C756.354173,699 757.647563,699.263885 758.880208,699.791667 C760.112853,700.319448 761.17708,701.029509 762.072917,701.921875 C762.968755,702.81424 763.680552,703.876731 764.208333,705.109376 C764.736115,706.342021 765,707.638883 765,709 C765,710.354173 764.736115,711.649299 764.208333,712.885416 C763.680552,714.121533 762.968755,715.18576 762.072917,716.078125 C761.17708,716.970491 760.112853,717.680553 758.880208,718.208333 C757.647563,718.736114 756.354173,719 755,719 C753.638883,719 752.342021,718.736114 751.109376,718.208333 C749.876731,717.680553 748.81424,716.970491 747.921875,716.078125 C747.029509,715.18576 746.319447,714.121533 745.791667,712.885416 C745.263886,711.649299 745,710.354173 745,709 L745,709 Z M753.260416,704.802083 L753.833333,710.020832 C753.868056,710.312501 753.991317,710.564235 754.203125,710.776043 C754.414931,710.987848 754.670139,711.10764 754.968749,711.135416 C755.309029,711.170139 755.612845,711.079861 755.880208,710.864584 C756.147571,710.649304 756.298611,710.368056 756.333333,710.020832 L756.906251,704.802083 L756.906251,704.447917 C756.850693,703.947915 756.628475,703.538197 756.239584,703.218749 C755.850693,702.899304 755.406253,702.763888 754.906251,702.812501 C754.406248,702.861112 753.994792,703.079859 753.671875,703.468749 C753.348957,703.85764 753.211805,704.30208 753.260416,704.802083 L753.260416,704.802083 Z M753.520832,713.583333 C753.520832,714.013891 753.673611,714.381944 753.979168,714.687499 C754.284723,714.993056 754.652776,715.145835 755.083333,715.145835 C755.513891,715.145835 755.881944,714.993056 756.187499,714.687499 C756.493056,714.381944 756.645835,714.013891 756.645835,713.583333 C756.645835,713.152776 756.493056,712.784723 756.187499,712.479168 C755.895832,712.187499 755.527779,712.041667 755.083333,712.041667 C754.638888,712.041667 754.270835,712.187499 753.979168,712.479168 C753.673611,712.784723 753.520832,713.152776 753.520832,713.583333 L753.520832,713.583333 Z" id="Page-1"></path>
        </g>
    </g>
</svg>