<?xml version="1.0" encoding="utf-8"?>
<!-- Generator: Adobe Illustrator 19.0.0, SVG Export Plug-In . SVG Version: 6.00 Build 0)  -->
<svg version="1.1" id="Capa_1" xmlns="http://www.w3.org/2000/svg" xmlns:xlink="http://www.w3.org/1999/xlink" x="0px" y="0px"
	 viewBox="-152 361 495 90" style="enable-background:new -152 361 495 90;" xml:space="preserve">
<style type="text/css">
	.st0{opacity:5.000000e-02;}
</style>
<g id="d.dashboard-c_1_" transform="translate(-15.000000, -693.000000)" class="st0">
	<rect x="193" y="1114" width="15" height="15"/>
	<rect x="223" y="1129" width="15" height="15"/>
	<rect x="223" y="1099" width="15" height="15"/>
	<rect x="253" y="1114" width="15" height="15"/>
	<rect x="253" y="1084" width="15" height="15"/>
	<rect x="13" y="1114" width="15" height="15"/>
	<rect x="163" y="1054" width="15" height="15"/>
	<rect x="193" y="1069" width="15" height="15"/>
	<rect x="223" y="1054" width="15" height="30"/>
	<rect x="103" y="1069" width="15" height="15"/>
	<rect x="283" y="1099" width="15" height="15"/>
	<rect x="313" y="1099" width="15" height="45"/>
	<rect x="343" y="1084" width="15" height="60"/>
	<rect x="283" y="1129" width="15" height="15"/>
	<rect x="-107" y="1114" width="15" height="15"/>
	<rect x="-137" y="1129" width="15" height="15"/>
	<rect x="-77" y="1129" width="15" height="15"/>
	<rect x="-47" y="1099" width="15" height="15"/>
	<rect x="-47" y="1129" width="15" height="15"/>
	<rect x="133" y="1084" width="15" height="30"/>
	<rect x="163" y="1099" width="15" height="45"/>
	<rect x="133" y="1129" width="15" height="15"/>
	<rect x="73" y="1129" width="15" height="15"/>
	<rect x="283" y="1054" width="15" height="30"/>
	<rect x="43" y="1114" width="15" height="30"/>
	<rect x="-17" y="1114" width="15" height="30"/>
	<rect x="43" y="1084" width="15" height="15"/>
	<rect x="73" y="1069" width="15" height="45"/>
	<rect x="103" y="1099" width="15" height="30"/>
	<rect x="328" y="1069" width="15" height="15"/>
</g>
</svg>
