<?xml version="1.0" encoding="UTF-8" standalone="no"?>
<svg width="30px" height="32px" viewBox="0 0 30 32" version="1.1" xmlns="http://www.w3.org/2000/svg" xmlns:xlink="http://www.w3.org/1999/xlink">
    <!-- Generator: Sketch 39.1 (31720) - http://www.bohemiancoding.com/sketch -->
    <title>Combined Shape</title>
    <desc>Created with Sketch.</desc>
    <defs></defs>
    <g id="IMM-desktop" stroke="none" stroke-width="1" fill="none" fill-rule="evenodd">
        <g id="d.dashboard-c__user-dropdown" transform="translate(-150.000000, -693.000000)" fill="#F9F9F9">
            <g id="side-bar">
                <path d="M177,709.346905 C177,715.974322 171.627417,721.346905 165,721.346905 C158.372583,721.346905 153,715.974322 153,709.346905 C153,705.222365 155.095586,701.457762 158.496903,699.259852 C159.1927,698.810232 159.392266,697.881688 158.942646,697.185891 C158.493026,696.490094 157.564482,696.290528 156.868685,696.740148 C152.620862,699.485066 150,704.193297 150,709.346905 C150,717.631176 156.715729,724.346905 165,724.346905 C173.284271,724.346905 180,717.631176 180,709.346905 C180,704.193297 177.379138,699.485066 173.131315,696.740148 C172.435518,696.290528 171.506974,696.490094 171.057354,697.185891 C170.607734,697.881688 170.8073,698.810232 171.503097,699.259852 C174.904414,701.457762 177,705.222365 177,709.346905 Z M163.5,694.508637 C163.5,693.67544 164.165797,693 165,693 C165.828427,693 166.5,693.66642 166.5,694.508637 L166.5,708.491363 C166.5,709.32456 165.834203,710 165,710 C164.171573,710 163.5,709.33358 163.5,708.491363 L163.5,694.508637 Z" id="Combined-Shape"></path>
            </g>
        </g>
    </g>
</svg>