<?xml version="1.0" encoding="UTF-8"?>
<svg width="20px" height="20px" viewBox="0 0 20 20" version="1.1" xmlns="http://www.w3.org/2000/svg" xmlns:xlink="http://www.w3.org/1999/xlink">
    <!-- Generator: Sketch 40 (33762) - http://www.bohemiancoding.com/sketch -->
    <title>catalogos-ico</title>
    <desc>Created with Sketch.</desc>
    <defs></defs>
    <g id="Symbols" stroke="none" stroke-width="1" fill="none" fill-rule="evenodd">
        <g id="catalogos-ico" fill="#F9F9F9">
            <path d="M16,16 L16.9951561,16 C18.655741,16 20,14.652611 20,12.9905224 L20,3.00947762 C20,1.33663106 18.652611,0 16.9905224,0 L4,0 L0,4 L0,16.9905224 C0,18.6633689 1.34738902,20 3.00947762,20 L12.9905224,20 C14.6633689,20 16,18.652611 16,16.9905224 L16,16 L16,16 Z M16,14 L16.9942463,14 C17.5433617,14 18,13.5511774 18,12.9975267 L18,3.00247329 C18,2.45576096 17.5529553,2 17.0014977,2 L5,2 L3,4 L12.9905224,4 C14.652611,4 16,5.33663106 16,7.00947762 L16,14 L16,14 Z M2,6 L4,6 L4,18 L3,18 C2.44771525,18 2,17.544239 2,16.9975267 L2,6 Z M5,6 L13.0024554,6 C13.553384,6 14,6.45576096 14,7.00247329 L14,16.9975267 C14,17.5511774 13.5536886,18 13.0024554,18 L5,18 L5,6 Z" id="Combined-Shape"></path>
        </g>
    </g>
</svg>