<?xml version="1.0" encoding="UTF-8" standalone="no"?>
<svg width="31px" height="19px" viewBox="0 0 31 19" version="1.1" xmlns="http://www.w3.org/2000/svg" xmlns:xlink="http://www.w3.org/1999/xlink">
    <!-- Generator: Sketch 39.1 (31720) - http://www.bohemiancoding.com/sketch -->
    <title>Page 1</title>
    <desc>Created with Sketch.</desc>
    <defs></defs>
    <g id="IMM-desktop" stroke="none" stroke-width="1" fill="none" fill-rule="evenodd">
        <g id="d.dashboard-c__user-dropdown" transform="translate(-40.000000, -700.000000)" fill="#F9F9F9">
            <g id="side-bar">
                <path d="M47.4271866,716.028717 C47.9611703,716.611244 48.5072798,716.62338 49.0655384,716.065124 C49.6237924,715.506869 49.6116572,714.960758 49.0291283,714.426775 L44.077672,709.402503 L61.0436914,709.402503 C63.2281668,709.402503 64.9393155,710.227739 66.1771842,711.878231 C67.4150576,713.528723 68.0339827,715.42191 68.0339827,717.557843 C68.0339827,717.89765 68.1432037,718.176774 68.3616503,718.395221 C68.5801015,718.613669 68.8592238,718.722891 69.1990312,718.722891 C69.5388386,718.722891 69.8179609,718.613669 70.0364122,718.395221 C70.2548588,718.176774 70.3640798,717.89765 70.3640798,717.557843 C70.3640798,714.645207 69.6116588,712.169503 68.1067982,710.130658 C66.6019376,708.091814 64.2475889,707.072406 61.0436914,707.072406 L44.077672,707.072406 L49.0291283,702.048134 C49.6116572,701.51415 49.6237924,700.968041 49.0655384,700.409782 C48.5072798,699.851528 47.9611703,699.863663 47.4271866,700.446192 L40.4368953,707.436484 C39.8543682,707.970467 39.8543682,708.504442 40.4368953,709.038425 L47.4271866,716.028717 Z" id="Page-1"></path>
            </g>
        </g>
    </g>
</svg>