<?xml version="1.0" encoding="UTF-8"?>
<svg width="20px" height="20px" viewBox="0 0 20 20" version="1.1" xmlns="http://www.w3.org/2000/svg" xmlns:xlink="http://www.w3.org/1999/xlink">
    <!-- Generator: Sketch 40 (33762) - http://www.bohemiancoding.com/sketch -->
    <title>cierre-ico</title>
    <desc>Created with Sketch.</desc>
    <defs></defs>
    <g id="Symbols" stroke="none" stroke-width="1" fill="none" fill-rule="evenodd">
        <g id="cierre-ico" fill="#F9F9F9">
            <path d="M14,6 L16.002899,6 C17.1090695,6 18.2006414,6.87934466 18.4385101,7.95286596 L20,15 L20,16.9966488 C20,18.6553538 18.656688,20 17.0057979,20 L2.99420208,20 C1.34054993,20 4.5469184e-13,18.6576211 4.5469184e-13,16.9966488 L5.137505e-13,15 L1.56148993,7.95286596 C1.80047025,6.87432787 2.88214989,6 3.99497642,6 L12,6 L8.96828842,5.24207211 C8.43351749,5.10837937 8,4.55628335 8,4.00019251 L8,2.0048815 C8,0.897616023 8.88743329,0 9.99961498,0 L16.000385,0 C17.1047419,0 18.0010366,0.893899798 18.0023248,2.0048815 L18.0046386,4.00019251 C18.0052789,4.55237094 17.5771074,5.10701752 17.036106,5.24207211 L14,6 Z M16,2 L16,4 L10,4 L10,2 L16,2 Z M2,17 C2,17.5522847 2.44463086,18 3.00087166,18 L16.9991283,18 C17.5518945,18 18,17.5561352 18,17 L18,16 L2,16 L2,17 Z M3.29143143,8.97332001 C3.40662067,8.43577021 3.94748943,8 4.49850233,8 L15.5014977,8 C16.0529553,8 16.5938317,8.43788135 16.7085686,8.97332001 L18,15 L2,15 L3.29143143,8.97332001 Z M4,14 C4.55228475,14 5,13.5522847 5,13 C5,12.4477153 4.55228475,12 4,12 C3.44771525,12 3,12.4477153 3,13 C3,13.5522847 3.44771525,14 4,14 Z M6,11 C6.55228475,11 7,10.5522847 7,10 C7,9.44771525 6.55228475,9 6,9 C5.44771525,9 5,9.44771525 5,10 C5,10.5522847 5.44771525,11 6,11 Z M8,14 C8.55228475,14 9,13.5522847 9,13 C9,12.4477153 8.55228475,12 8,12 C7.44771525,12 7,12.4477153 7,13 C7,13.5522847 7.44771525,14 8,14 Z M12,14 C12.5522847,14 13,13.5522847 13,13 C13,12.4477153 12.5522847,12 12,12 C11.4477153,12 11,12.4477153 11,13 C11,13.5522847 11.4477153,14 12,14 Z M10,11 C10.5522847,11 11,10.5522847 11,10 C11,9.44771525 10.5522847,9 10,9 C9.44771525,9 9,9.44771525 9,10 C9,10.5522847 9.44771525,11 10,11 Z M16,14 C16.5522847,14 17,13.5522847 17,13 C17,12.4477153 16.5522847,12 16,12 C15.4477153,12 15,12.4477153 15,13 C15,13.5522847 15.4477153,14 16,14 Z M14,11 C14.5522847,11 15,10.5522847 15,10 C15,9.44771525 14.5522847,9 14,9 C13.4477153,9 13,9.44771525 13,10 C13,10.5522847 13.4477153,11 14,11 Z" id="Combined-Shape"></path>
        </g>
    </g>
</svg>