<?xml version="1.0" encoding="UTF-8" standalone="no"?>
<svg width="21px" height="20px" viewBox="0 0 21 20" version="1.1" xmlns="http://www.w3.org/2000/svg" xmlns:xlink="http://www.w3.org/1999/xlink">
    <!-- Generator: Sketch 39.1 (31720) - http://www.bohemiancoding.com/sketch -->
    <title>Page 1</title>
    <desc>Created with Sketch.</desc>
    <defs></defs>
    <g id="IMM-desktop" stroke="none" stroke-width="1" fill="none" fill-rule="evenodd">
        <g id="d.dashboard-c-proyecto-actividad" transform="translate(-1277.000000, -38.000000)" fill="#999999">
            <path d="M1277,47.9093736 C1277,47.347912 1277.05469,46.7317748 1277.16406,46.0609368 C1277.90782,46.111978 1278.61328,45.9661456 1279.28047,45.6234368 C1279.94766,45.280728 1280.47083,44.7776072 1280.85,44.1140604 C1281.22917,43.4286428 1281.40052,42.714066 1281.36406,41.9703132 C1281.3276,41.2265576 1281.10156,40.544794 1280.68594,39.925 C1281.64844,39.0937444 1282.77135,38.4520852 1284.05469,38 C1284.3974,38.619794 1284.875,39.1138008 1285.4875,39.4820316 C1286.1,39.8502624 1286.77083,40.0343736 1287.5,40.0343736 C1288.22917,40.0343736 1288.89817,39.8502624 1289.50703,39.4820316 C1290.11589,39.1138008 1290.59166,38.619794 1290.93437,38 C1292.20313,38.4520852 1293.32604,39.0937444 1294.30313,39.925 C1293.98229,40.5156264 1293.82187,41.15182 1293.82187,41.833592 C1293.82187,42.5153668 1293.99687,43.1588516 1294.34687,43.7640604 C1294.70417,44.3838572 1295.18906,44.8651016 1295.80156,45.2078132 C1296.41407,45.550522 1297.06666,45.7218736 1297.75937,45.7218736 C1297.91979,46.4583352 1298,47.1874944 1298,47.9093736 C1298,48.3906264 1297.94896,48.948434 1297.84687,49.5828132 C1297.17604,49.5973956 1296.54714,49.7778612 1295.96016,50.1242184 C1295.37317,50.4705728 1294.90469,50.9463516 1294.55469,51.5515604 C1294.18281,52.207816 1294.00599,52.895048 1294.02422,53.6132816 C1294.04245,54.3315124 1294.24114,54.9932252 1294.62031,55.5984368 C1293.63593,56.502608 1292.54949,57.1953093 1291.36094,57.6765618 C1291.01823,57.0494752 1290.53881,56.5500011 1289.92266,56.1781242 C1289.30651,55.8062475 1288.63386,55.6203118 1287.90469,55.6203118 C1287.12448,55.6203118 1286.41172,55.829945 1285.76641,56.2492181 C1285.12109,56.668491 1284.64167,57.2244749 1284.32813,57.9171868 C1283.09583,57.5234348 1281.95469,56.9072951 1280.90469,56.0687494 C1281.32031,55.4562464 1281.54453,54.779952 1281.57734,54.039842 C1281.61016,53.2997348 1281.43334,52.5869808 1281.04687,51.9015604 C1280.65312,51.2088488 1280.10443,50.6893228 1279.40078,50.3429684 C1278.69713,49.9966112 1277.9625,49.8671868 1277.19688,49.9546868 C1277.06562,49.342184 1277,48.6604204 1277,47.9093736 L1277,47.9093736 Z M1283.5625,47.9093736 C1283.5625,48.995838 1283.94713,49.9236936 1284.71641,50.6929684 C1285.48568,51.4622432 1286.41354,51.8468736 1287.5,51.8468736 C1288.58646,51.8468736 1289.51432,51.4622432 1290.28359,50.6929684 C1291.05287,49.9236936 1291.4375,48.995838 1291.4375,47.9093736 C1291.4375,46.8229092 1291.05287,45.8950564 1290.28359,45.1257816 C1289.51432,44.3565068 1288.58646,43.9718736 1287.5,43.9718736 C1286.41354,43.9718736 1285.48568,44.3565068 1284.71641,45.1257816 C1283.94713,45.8950564 1283.5625,46.8229092 1283.5625,47.9093736 L1283.5625,47.9093736 Z" id="Page-1"></path>
        </g>
    </g>
</svg>