<?xml version="1.0" encoding="UTF-8"?>
<svg width="20px" height="20px" viewBox="0 0 20 20" version="1.1" xmlns="http://www.w3.org/2000/svg" xmlns:xlink="http://www.w3.org/1999/xlink">
    <!-- Generator: Sketch 42 (36781) - http://www.bohemiancoding.com/sketch -->
    <title>errors-ico</title>
    <desc>Created with Sketch.</desc>
    <defs>
        <polygon id="path-1" points="10 0 20 19 0 19"></polygon>
        <mask id="mask-2" maskContentUnits="userSpaceOnUse" maskUnits="objectBoundingBox" x="0" y="0" width="20" height="19" fill="white">
            <use xlink:href="#path-1"></use>
        </mask>
    </defs>
    <g id="Symbols" stroke="none" stroke-width="1" fill="none" fill-rule="evenodd">
        <g id="errors-ico">
            <use id="Triangle-3" stroke="#FFFFFF" mask="url(#mask-2)" stroke-width="4" xlink:href="#path-1"></use>
            <path d="M9,9 C9,8.708332 9.098958,8.46875 9.296876,8.28125 C9.494792,8.09375 9.729166,8 10,8 C10.270834,8 10.505208,8.09375 10.703124,8.28125 C10.901042,8.46875 11,8.708332 11,9 L11,12 C11,12.270834 10.901042,12.505208 10.703124,12.703126 C10.505208,12.901042 10.270834,13 10,13 C9.729166,13 9.494792,12.901042 9.296876,12.703126 C9.098958,12.505208 9,12.270834 9,12 L9,9 Z M9,15 C9,14.729166 9.098958,14.494792 9.296876,14.296876 C9.494792,14.098958 9.729166,14 10,14 C10.270834,14 10.505208,14.098958 10.703124,14.296876 C10.901042,14.494792 11,14.729166 11,15 C11,15.270834 10.901042,15.505208 10.703124,15.703124 C10.505208,15.901042 10.270834,16 10,16 C9.729166,16 9.494792,15.901042 9.296876,15.703124 C9.098958,15.505208 9,15.270834 9,15 Z" id="Combined-Shape" fill="#FFFFFF"></path>
        </g>
    </g>
</svg>