<?xml version="1.0" encoding="UTF-8" standalone="no"?>
<svg width="18px" height="15px" viewBox="0 0 18 15" version="1.1" xmlns="http://www.w3.org/2000/svg" xmlns:xlink="http://www.w3.org/1999/xlink">
    <!-- Generator: Sketch 40 (33762) - http://www.bohemiancoding.com/sketch -->
    <title>Page 1</title>
    <desc>Created with Sketch.</desc>
    <defs></defs>
    <g id="IMM-desktop" stroke="none" stroke-width="1" fill="none" fill-rule="evenodd">
        <g id="d.dashboard-c-reportes" transform="translate(-1181.000000, -41.000000)" fill="#575757">
            <path d="M1197.13801,41 C1197.73836,41 1198.10285,41.1415094 1198.2315,41.4245283 C1198.36014,41.7075472 1198.21006,42.0634627 1197.78124,42.4922813 L1193.27867,46.9948542 C1192.867,47.4065212 1192.51537,47.9210946 1192.22378,48.5385935 C1191.93218,49.1560924 1191.78638,49.6792431 1191.78638,50.1080617 L1191.78638,53.864494 L1187.48964,56 L1187.48964,50.6483705 C1187.48964,50.0480232 1187.34813,49.3962307 1187.06511,48.6929674 C1186.7821,47.9897041 1186.42618,47.4236728 1185.99736,46.9948542 L1181.49479,42.4922813 C1181.06597,42.0634627 1180.91589,41.7075472 1181.04453,41.4245283 C1181.17318,41.1415094 1181.53767,41 1182.13801,41 L1197.13801,41 Z" id="Page-1"></path>
        </g>
    </g>
</svg>