<?xml version="1.0" encoding="UTF-8"?>
<svg width="15px" height="15px" viewBox="0 0 15 15" version="1.1" xmlns="http://www.w3.org/2000/svg" xmlns:xlink="http://www.w3.org/1999/xlink">
    <!-- Generator: Sketch 42 (36781) - http://www.bohemiancoding.com/sketch -->
    <title>icon-process-budget</title>
    <desc>Created with Sketch.</desc>
    <defs></defs>
    <g id="IMM-desktop" stroke="none" stroke-width="1" fill="none" fill-rule="evenodd">
        <g id="d.dashboard-c-proyecto" transform="translate(-1208.000000, -417.000000)" fill="#4A90E2">
            <path d="M1215.5,432 C1211.35786,432 1208,428.642136 1208,424.5 C1208,420.357864 1211.35786,417 1215.5,417 C1219.64214,417 1223,420.357864 1223,424.5 C1223,428.642136 1219.64214,432 1215.5,432 Z M1212.75,427.37 C1213.08,427.68 1213.51,427.87 1213.93,428.03 C1214.35,428.19 1214.78,428.28 1215.22,428.28 L1215.22,429.47 L1216.15,429.47 L1216.15,428.22 C1217.45,427.9 1218.25,427.18 1218.25,425.78 C1218.25,424.39 1217.22,423.97 1216.08,423.59 C1215.73,423.47 1215.1,423.27 1215.1,422.81 C1215.1,422.41 1215.51,422.25 1215.95,422.25 C1216.42,422.25 1216.87,422.45 1217.23,422.74 L1217.97,421.29 C1217.43,420.94 1216.78,420.77 1216.15,420.71 L1216.15,419.5 L1215.22,419.5 L1215.22,420.71 C1214,420.79 1213.18,421.88 1213.18,423.06 C1213.18,424.28 1213.97,424.73 1214.75,425.02 C1215.54,425.31 1216.32,425.41 1216.32,425.97 C1216.32,426.46 1215.8,426.7 1215.38,426.7 C1214.74,426.7 1214.03,426.29 1213.57,425.86 L1212.75,427.37 Z" id="icon-process-budget"></path>
        </g>
    </g>
</svg>