<?xml version="1.0" encoding="UTF-8"?>
<svg width="20px" height="20px" viewBox="0 0 20 20" version="1.1" xmlns="http://www.w3.org/2000/svg" xmlns:xlink="http://www.w3.org/1999/xlink">
    <!-- Generator: Sketch 42 (36781) - http://www.bohemiancoding.com/sketch -->
    <title>interfaces-ico</title>
    <desc>Created with Sketch.</desc>
    <defs></defs>
    <g id="Symbols" stroke="none" stroke-width="1" fill="none" fill-rule="evenodd">
        <g id="interfaces-ico" fill-rule="nonzero" fill="#FFFFFF">
            <path d="M9,3 C5,3 3.13333333,5.2 2.91111111,8 C1.13333333,8.73333333 0,10.4222222 0,12.3333333 C0,14.9111111 2.08888889,17 4.66666667,17 L16.1111111,17 C18.2666667,17 20,15.2666667 20,13.1111111 C20,12.2666667 19.9888889,11.6444444 19.5,11 C19.4414942,10.9219923 18.5,12.5 18,13.1111111 C18,14.1620972 17.1620972,15 16.1111111,15 L4.66666667,15 C3.19345839,15 2,13.8065416 2,12.3333333 C2,11.2328237 2.64422491,10.2735658 3.67377296,9.8488772 L4.80778929,9.38109547 L4.9048419,8.1582326 C5.04472294,6.39573142 7,5 9,5 L9,3 Z" id="Combined-Shape"></path>
            <path d="M18.6962418,6.68391817 L18.1304448,6.65288845 C18.0025284,6.64599295 17.8646133,6.54083665 17.8242731,6.41913117 L17.6153316,5.91334661 C17.557752,5.7988814 17.580508,5.62718357 17.6660154,5.53202574 L18.043903,5.11036623 C18.1294104,5.01486362 18.1321687,4.85661201 18.0501092,4.75835121 L17.242271,3.95054398 C17.1440064,3.86848759 16.985404,3.87124579 16.8898977,3.95640515 L16.4685668,4.33427827 C16.3734054,4.41978241 16.2013562,4.44253754 16.0872314,4.38461538 L15.5810826,4.17568189 C15.4597173,4.13499847 15.3545569,3.99743334 15.3473164,3.86952191 L15.3162855,3.30409133 C15.3093897,3.1761799 15.1997472,3.05757738 15.0725204,3.04033865 C15.0725204,3.04033865 14.7746236,3 14.4998276,3 C14.2257212,3 13.9274796,3.04033865 13.9274796,3.04033865 C13.8005976,3.05757738 13.6909551,3.1761799 13.6837145,3.30409133 L13.6526836,3.86952191 C13.6457878,3.99743334 13.5406275,4.13499847 13.4189174,4.17568189 L12.9131134,4.38461538 C12.7986438,4.44253754 12.6269394,4.41978241 12.531778,4.33427827 L12.1101023,3.95640515 C12.014596,3.87090101 11.8563384,3.86814281 11.7580738,3.95054398 L10.9502356,4.75835121 C10.8681761,4.85661201 10.8709344,5.0152084 10.9564418,5.11036623 L11.3343294,5.53202574 C11.4198368,5.62752835 11.4425928,5.7988814 11.3846684,5.91334661 L11.1757269,6.41913117 C11.1353867,6.54049188 10.9974716,6.64599295 10.8695552,6.65288845 L10.304103,6.68391817 C10.1761866,6.69081367 10.0575796,6.80045204 10.0403402,6.92767392 C10.0403402,6.92767392 10,7.22590408 10,7.5 C10,7.77409592 10.0403402,8.07198131 10.0403402,8.07198131 C10.0575796,8.19920319 10.1761866,8.30849678 10.304103,8.31573705 L10.8695552,8.34676678 C10.9974716,8.35366227 11.1350419,8.45916335 11.1757269,8.58052406 L11.3846684,9.08630861 C11.4425928,9.20077383 11.419492,9.37247165 11.3343294,9.46797426 L10.9564418,9.889289 C10.8709344,9.9847916 10.8681761,10.143388 10.9502356,10.2416488 L11.7580738,11.049456 C11.8563384,11.1315124 12.0149408,11.1287542 12.1101023,11.0432501 L12.531778,10.665377 C12.6272842,10.5798728 12.7986438,10.5571177 12.9131134,10.6146951 L13.4189174,10.8236286 C13.5406275,10.8639672 13.6457878,11.0018771 13.6526836,11.1301333 L13.6837145,11.6955639 C13.6906103,11.8234753 13.8002528,11.9424226 13.9274796,11.9596614 C13.9274796,11.9596614 14.2257212,12 14.4998276,12 C14.7742788,12 15.0725204,11.9596614 15.0725204,11.9596614 C15.1994024,11.9424226 15.3090449,11.8234753 15.3159407,11.6955639 L15.3469716,11.1301333 C15.3538674,11.0022219 15.4593725,10.864312 15.5807378,10.8236286 L16.0865418,10.6146951 C16.2010114,10.5571177 16.3727158,10.5798728 16.468222,10.665377 L16.8895529,11.0432501 C16.9850592,11.1287542 17.1436616,11.1315124 17.2419262,11.049456 L18.0497644,10.2416488 C18.1318239,10.143388 18.1290656,9.9847916 18.0435582,9.889289 L17.6656706,9.46797426 C17.5801632,9.37247165 17.5574072,9.20077383 17.6149868,9.08630861 L17.8239283,8.58052406 C17.8642685,8.45916335 18.0021837,8.35366227 18.1301,8.34676678 L18.695897,8.31573705 C18.8238134,8.30884156 18.9427652,8.19920319 18.9596598,8.07198131 C18.9596598,8.07198131 19,7.77409592 19,7.5 C19,7.22590408 18.9596598,6.92767392 18.9596598,6.92767392 C18.9427652,6.80045204 18.8241581,6.69081367 18.6962418,6.68391817 Z M14.4995475,9 C13.6710407,9 13,8.32785154 13,7.5 C13,6.67169584 13.6714932,6 14.4995475,6 C15.3285068,6 16,6.67169584 16,7.5 C16,8.32785154 15.3280543,9 14.4995475,9 Z" id="Shape-Copy"></path>
        </g>
    </g>
</svg>