<?xml version="1.0" encoding="UTF-8"?>
<svg width="12px" height="16px" viewBox="0 0 12 16" version="1.1" xmlns="http://www.w3.org/2000/svg" xmlns:xlink="http://www.w3.org/1999/xlink">
    <!-- Generator: Sketch 42 (36781) - http://www.bohemiancoding.com/sketch -->
    <title>list-icon-link</title>
    <desc>Created with Sketch.</desc>
    <defs></defs>
    <g id="IMM-desktop" stroke="none" stroke-width="1" fill="none" fill-rule="evenodd">
        <g id="d.dashboard-c-proyecto" transform="translate(-1118.000000, -480.000000)" fill="#4A90E2">
            <path d="M1129.8351,483.953266 L1127.64938,487.938376 C1127.46723,488.253351 1127.21028,488.458766 1126.87852,488.554627 C1126.54676,488.65049 1126.23126,488.60256 1125.93202,488.410836 L1125.38559,488.082167 L1126.01008,486.95237 C1126.16621,487.034537 1126.32883,487.055077 1126.49797,487.013994 C1126.6671,486.97291 1126.7907,486.870203 1126.86876,486.705868 L1128.42999,483.871099 C1128.52106,483.706765 1128.54383,483.539009 1128.49829,483.367826 C1128.45276,483.196645 1128.35193,483.063124 1128.19581,482.96726 L1126.04911,481.652586 C1125.89299,481.556725 1125.73036,481.532758 1125.56123,481.580691 C1125.39209,481.628622 1125.2685,481.734753 1125.19044,481.899087 L1123.62921,484.733857 C1123.53814,484.898191 1123.51537,485.065946 1123.56091,485.23713 C1123.60644,485.408311 1123.70727,485.541832 1123.86339,485.637695 L1123.2389,486.767492 L1122.69247,486.438824 C1122.39323,486.260793 1122.19808,485.997177 1122.10701,485.647966 C1122.01594,485.298754 1122.05497,484.966664 1122.2241,484.651689 L1124.40982,480.66658 C1124.59197,480.351605 1124.84892,480.146189 1125.18068,480.050329 C1125.51244,479.954465 1125.82794,479.995549 1126.12717,480.173577 L1129.36673,482.145589 C1129.66596,482.337315 1129.86112,482.607778 1129.95219,482.95699 C1130.04326,483.306202 1130.00423,483.638291 1129.8351,483.953266 Z M1122.43877,490.855307 C1122.29566,490.759446 1122.20133,490.622502 1122.1558,490.444471 C1122.11026,490.266443 1122.12652,490.102109 1122.20459,489.951468 L1124.70255,485.391194 C1124.79363,485.240553 1124.92373,485.141269 1125.09286,485.093336 C1125.262,485.045406 1125.41812,485.062523 1125.56123,485.144692 C1125.70434,485.240553 1125.79867,485.377498 1125.8442,485.555528 C1125.88974,485.733556 1125.87348,485.89789 1125.79541,486.048531 L1123.29745,490.608806 C1123.20637,490.759446 1123.07627,490.858731 1122.90714,490.906664 C1122.738,490.954594 1122.58188,490.937477 1122.43877,490.855307 Z M1121.98992,489.04763 C1121.83379,488.965463 1121.67117,488.944922 1121.50203,488.986006 C1121.3329,489.027089 1121.2093,489.129797 1121.13124,489.294131 L1119.57001,492.128901 C1119.47894,492.293235 1119.45617,492.46099 1119.50171,492.632174 C1119.54724,492.803355 1119.64807,492.936876 1119.8042,493.032739 L1121.95089,494.347413 C1122.10701,494.443275 1122.26964,494.46724 1122.43877,494.419309 C1122.60791,494.371378 1122.7315,494.265246 1122.80956,494.100911 L1124.37079,491.266143 C1124.46186,491.101809 1124.48463,490.934054 1124.4391,490.76287 C1124.39356,490.591689 1124.29273,490.458168 1124.13661,490.362304 L1124.7611,489.232507 L1125.30753,489.561176 C1125.60677,489.739206 1125.80192,490.002822 1125.89299,490.352034 C1125.98406,490.701246 1125.94503,491.033335 1125.7759,491.34831 L1123.59018,495.333419 C1123.40803,495.648394 1123.15108,495.85381 1122.81932,495.949672 C1122.48756,496.045534 1122.17206,496.004451 1121.87283,495.826421 L1118.63327,493.85441 C1118.33404,493.662685 1118.13889,493.392221 1118.04781,493.04301 C1117.95674,492.693798 1117.99577,492.361709 1118.16491,492.046734 L1120.35063,488.061624 C1120.53277,487.746649 1120.78972,487.541234 1121.12148,487.445373 C1121.45325,487.349509 1121.76874,487.39744 1122.06798,487.589164 L1122.61441,487.917833 L1121.98992,489.04763 Z" id="list-icon-link"></path>
        </g>
    </g>
</svg>