<?xml version="1.0" encoding="UTF-8"?>
<svg width="20px" height="20px" viewBox="0 0 20 20" version="1.1" xmlns="http://www.w3.org/2000/svg" xmlns:xlink="http://www.w3.org/1999/xlink">
    <!-- Generator: Sketch 42 (36781) - http://www.bohemiancoding.com/sketch -->
    <title>log-ico</title>
    <desc>Created with Sketch.</desc>
    <defs></defs>
    <g id="Symbols" stroke="none" stroke-width="1" fill="none" fill-rule="evenodd">
        <g id="log-ico" fill-rule="nonzero" fill="#FFFFFF">
            <path d="M4,2.99420208 L4,17.0057979 C4,17.5510745 4.45092851,18 5.00947762,18 L14.9905224,18 C15.5562537,18 16,17.5574132 16,17.0057979 L16,6 L12,6 L12,2 L5.00947762,2 C4.44374631,2 4,2.44258678 4,2.99420208 Z M2,2.99420208 C2,1.34054993 3.33663106,0 5.00947762,0 L12.9905224,0 L18,5 L18,17.0057979 C18,18.6594501 16.6633689,20 14.9905224,20 L5.00947762,20 C3.34738902,20 2,18.656688 2,17.0057979 L2,2.99420208 Z" id="Rectangle-14"></path>
            <polygon id="Path-3" points="11 16 13 10 15 12 13 7 11 12 9 5 7 10 5 8 7 13 9 8"></polygon>
        </g>
    </g>
</svg>