<?xml version="1.0" encoding="UTF-8"?>
<svg width="20px" height="20px" viewBox="0 0 20 20" version="1.1" xmlns="http://www.w3.org/2000/svg" xmlns:xlink="http://www.w3.org/1999/xlink">
    <!-- Generator: Sketch 40 (33762) - http://www.bohemiancoding.com/sketch -->
    <title>notificaciones-ico</title>
    <desc>Created with Sketch.</desc>
    <defs></defs>
    <g id="Symbols" stroke="none" stroke-width="1" fill="none" fill-rule="evenodd">
        <g id="notificaciones-ico" fill="#FFFFFF">
            <path d="M12,2.34085927 C14.3303847,3.16324134 16,5.38247445 16,7.99306515 L16,14 L18,16 L18,17 L2,17 L2,16 L4,14 L4,7.99306515 C4,5.38464082 5.67253132,3.16542866 8,2.34195746 L8,2.00591905 C8,0.898080551 8.88772964,0 10,0 C11.1045695,0 12,0.886554837 12,2.00591905 L12,2.34085927 L12,2.34085927 Z M6,7.99955306 C6,5.7906609 7.79535615,4 10,4 C12.209139,4 14,5.79902208 14,7.99312279 L14,14.328125 L14,15 L6,15 L6,14.5 L6,7.99955306 Z M12,18 C12,19.1045695 11.1045695,20 10,20 C8.8954305,20 8,19.1045695 8,18 L12,18 Z" id="Combined-Shape"></path>
        </g>
    </g>
</svg>