<?xml version="1.0" encoding="UTF-8" standalone="no"?>
<svg width="13px" height="13px" viewBox="0 0 13 13" version="1.1" xmlns="http://www.w3.org/2000/svg" xmlns:xlink="http://www.w3.org/1999/xlink">
    <!-- Generator: Sketch 40.1 (33804) - http://www.bohemiancoding.com/sketch -->
    <title>Combined Shape</title>
    <desc>Created with Sketch.</desc>
    <defs>
        <path d="M1296,345 L1292.49127,345 C1291.66254,345 1291,345.671573 1291,346.5 C1291,347.334203 1291.66766,348 1292.49127,348 L1296,348 L1296,351.508735 C1296,352.337456 1296.67157,353 1297.5,353 C1298.3342,353 1299,352.332338 1299,351.508735 L1299,348 L1302.50873,348 C1303.33746,348 1304,347.328427 1304,346.5 C1304,345.665797 1303.33234,345 1302.50873,345 L1299,345 L1299,341.491265 C1299,340.662544 1298.32843,340 1297.5,340 C1296.6658,340 1296,340.667662 1296,341.491265 L1296,345 Z" id="path-1"></path>
        <filter x="-50%" y="-50%" width="200%" height="200%" filterUnits="objectBoundingBox" id="filter-2">
            <feOffset dx="0" dy="-1" in="SourceAlpha" result="shadowOffsetInner1"></feOffset>
            <feComposite in="shadowOffsetInner1" in2="SourceAlpha" operator="arithmetic" k2="-1" k3="1" result="shadowInnerInner1"></feComposite>
            <feColorMatrix values="0 0 0 0 0   0 0 0 0 0   0 0 0 0 0  0 0 0 0.1 0" type="matrix" in="shadowInnerInner1"></feColorMatrix>
        </filter>
    </defs>
    <g id="IMM-desktop" stroke="none" stroke-width="1" fill="none" fill-rule="evenodd">
        <g id="d.dashboard-c-proyecto" transform="translate(-1291.000000, -340.000000)">
            <g id="Combined-Shape">
                <use fill="#4A90E2" fill-rule="evenodd" xlink:href="#path-1"></use>
                <use fill="black" fill-opacity="1" filter="url(#filter-2)" xlink:href="#path-1"></use>
            </g>
        </g>
    </g>
</svg>