<?xml version="1.0" encoding="UTF-8"?>
<svg width="20px" height="20px" viewBox="0 0 20 20" version="1.1" xmlns="http://www.w3.org/2000/svg" xmlns:xlink="http://www.w3.org/1999/xlink">
    <!-- Generator: Sketch 40 (33762) - http://www.bohemiancoding.com/sketch -->
    <title>presupuesto-ico</title>
    <desc>Created with Sketch.</desc>
    <defs></defs>
    <g id="Symbols" stroke="none" stroke-width="1" fill="none" fill-rule="evenodd">
        <g id="presupuesto-ico" fill="#FFFFFF">
            <path d="M2,2.99420208 C2,1.34054993 3.33663106,0 5.00947762,0 L14.9905224,0 C16.652611,0 18,1.34331197 18,2.99420208 L18,17.0057979 C18,18.6594501 16.6633689,20 14.9905224,20 L5.00947762,20 C3.34738902,20 2,18.656688 2,17.0057979 L2,2.99420208 Z M4,3.00087166 C4,2.4481055 4.45576096,2 5.00247329,2 L14.9975267,2 C15.5511774,2 16,2.44463086 16,3.00087166 L16,16.9991283 C16,17.5518945 15.544239,18 14.9975267,18 L5.00247329,18 C4.44882258,18 4,17.5553691 4,16.9991283 L4,3.00087166 Z M6,4 L14,4 L14,7 L6,7 L6,4 Z M7,5 L13,5 L13,6 L7,6 L7,5 Z M7,10 C7.55228475,10 8,9.55228475 8,9 C8,8.44771525 7.55228475,8 7,8 C6.44771525,8 6,8.44771525 6,9 C6,9.55228475 6.44771525,10 7,10 Z M7,13 C7.55228475,13 8,12.5522847 8,12 C8,11.4477153 7.55228475,11 7,11 C6.44771525,11 6,11.4477153 6,12 C6,12.5522847 6.44771525,13 7,13 Z M10,10 C10.5522847,10 11,9.55228475 11,9 C11,8.44771525 10.5522847,8 10,8 C9.44771525,8 9,8.44771525 9,9 C9,9.55228475 9.44771525,10 10,10 Z M10,13 C10.5522847,13 11,12.5522847 11,12 C11,11.4477153 10.5522847,11 10,11 C9.44771525,11 9,11.4477153 9,12 C9,12.5522847 9.44771525,13 10,13 Z M13,10 C13.5522847,10 14,9.55228475 14,9 C14,8.44771525 13.5522847,8 13,8 C12.4477153,8 12,8.44771525 12,9 C12,9.55228475 12.4477153,10 13,10 Z M13,13 C13.5522847,13 14,12.5522847 14,12 C14,11.4477153 13.5522847,11 13,11 C12.4477153,11 12,11.4477153 12,12 C12,12.5522847 12.4477153,13 13,13 Z M7,16 C7.55228475,16 8,15.5522847 8,15 C8,14.4477153 7.55228475,14 7,14 C6.44771525,14 6,14.4477153 6,15 C6,15.5522847 6.44771525,16 7,16 Z M10,16 C10.5522847,16 11,15.5522847 11,15 C11,14.4477153 10.5522847,14 10,14 C9.44771525,14 9,14.4477153 9,15 C9,15.5522847 9.44771525,16 10,16 Z M13,16 C13.5522847,16 14,15.5522847 14,15 C14,14.4477153 13.5522847,14 13,14 C12.4477153,14 12,14.4477153 12,15 C12,15.5522847 12.4477153,16 13,16 Z" id="Combined-Shape"></path>
        </g>
    </g>
</svg>