<?xml version="1.0" encoding="UTF-8"?>
<svg width="20px" height="20px" viewBox="0 0 20 20" version="1.1" xmlns="http://www.w3.org/2000/svg" xmlns:xlink="http://www.w3.org/1999/xlink">
    <!-- Generator: Sketch 40 (33762) - http://www.bohemiancoding.com/sketch -->
    <title>proyectos-ico</title>
    <desc>Created with Sketch.</desc>
    <defs></defs>
    <g id="Symbols" stroke="none" stroke-width="1" fill="none" fill-rule="evenodd">
        <g id="proyectos-ico" fill="#F9F9F9">
            <path d="M4,4 L2.99420208,4 C1.34331197,4 0,5.34288718 0,6.99942248 L0,16.0005775 C0,17.6556493 1.34054993,19 2.99420208,19 L17.0057979,19 C18.656688,19 20,17.6571128 20,16.0005775 L20,6.99942248 C20,5.34435073 18.6594501,4 17.0057979,4 L16,4 C16,2.34651712 14.6581293,1 13.002848,1 L6.99715203,1 C5.34162278,1 4,2.34314575 4,4 L4,4 Z M14,3.99895656 L6,4 C6,3.44724809 6.45303631,3 6.99703014,3 L13.0029699,3 C13.5536144,3 14,3.44266033 14,3.99895656 Z M8,11 C8,10.4477153 8.44335318,10 9.0093689,10 L10.9906311,10 C11.5480902,10 12,10.4438648 12,11 L12,11 C12,11.5522847 11.5566468,12 10.9906311,12 L9.0093689,12 C8.45190985,12 8,11.5561352 8,11 L8,11 Z M2,7.00292933 C2,6.44902676 2.44463086,6 3.00087166,6 L16.9991283,6 C17.5518945,6 18,6.43788135 18,7.00292933 L18,13 L2,13 L2,7.00292933 Z M2,16 C2,16.5522847 2.44463086,17 3.00087166,17 L16.9991283,17 C17.5518945,17 18,16.5561352 18,16 L18,15 L2,15 L2,16 Z" id="Combined-Shape"></path>
        </g>
    </g>
</svg>