<?xml version="1.0" encoding="UTF-8"?>
<svg width="20px" height="20px" viewBox="0 0 20 20" version="1.1" xmlns="http://www.w3.org/2000/svg" xmlns:xlink="http://www.w3.org/1999/xlink">
    <!-- Generator: Sketch 40 (33762) - http://www.bohemiancoding.com/sketch -->
    <title>reportes-ico</title>
    <desc>Created with Sketch.</desc>
    <defs></defs>
    <g id="Symbols" stroke="none" stroke-width="1" fill="none" fill-rule="evenodd">
        <g id="reportes-ico" fill="#FFFFFF">
            <rect id="Rectangle-12" x="1" y="17" width="18" height="2" rx="1"></rect>
            <path d="M11.4,9.3 C11.8286918,9.62151884 12.4346275,9.54797421 12.7739573,9.13323779 L17.2739573,3.63323779 C17.6236849,3.20579298 17.5606826,2.57577028 17.1332378,2.2260427 C16.705793,1.87631513 16.0757703,1.9393174 15.7260427,2.36676221 L12,7 L8.6,4.7 C8.17130822,4.37848116 7.5653725,4.45202579 7.2260427,4.86676221 L2.7260427,10.3667622 C2.37631513,10.794207 2.4393174,11.4242297 2.86676221,11.7739573 C3.29420702,12.1236849 3.92422972,12.0606826 4.2739573,11.6332378 L8,7 L11.4,9.3 Z M5.8218719,12.8997134 C4.77268917,14.1820478 2.88262107,14.3710546 1.60028663,13.3218719 C0.317952189,12.2726892 0.128945379,10.3826211 1.1781281,9.10028663 L5.6781281,3.60028663 C6.69611749,2.35607738 8.51392466,2.13544349 9.8,3.1 L11.5008823,4.37247593 L14.1781281,1.10028663 C15.2273108,-0.182047811 17.1173789,-0.371054621 18.3997134,0.678128102 C19.6820478,1.72731083 19.8710546,3.61737893 18.8218719,4.89971337 L14.3218719,10.3997134 C13.3038825,11.6439226 11.4860753,11.8645565 10.2,10.9 L8.51447266,9.63585449 L5.8218719,12.8997134 Z" id="Path-2"></path>
        </g>
    </g>
</svg>