<?xml version="1.0" encoding="UTF-8" standalone="no"?>
<svg width="23px" height="21px" viewBox="0 0 23 21" version="1.1" xmlns="http://www.w3.org/2000/svg" xmlns:xlink="http://www.w3.org/1999/xlink">
    <!-- Generator: Sketch 40.2 (33826) - http://www.bohemiancoding.com/sketch -->
    <title>Page 1</title>
    <desc>Created with Sketch.</desc>
    <defs></defs>
    <g id="IMM-desktop" stroke="none" stroke-width="1" fill="none" fill-rule="evenodd">
        <g id="d.dashboard-c-autorizaciones-copy" transform="translate(-1247.000000, -378.000000)" fill="#575757">
            <g id="Group-2" transform="translate(1233.000000, 364.000000)">
                <path d="M37,24.6591778 C37,24.6591778 36.9510638,25.8246333 36.8531915,26.0742648 L32.8202753,32.7596536 C32.4940332,33.5709535 31.8578692,33.9765972 30.9117647,33.9765972 L23.1042553,34.0126375 C22.5496433,34.0126375 22.0602847,33.8098156 21.6361702,33.4041657 C21.2120557,32.9985159 21,32.5304652 21,32 L21,22.6732194 C21,22.1427548 21.2120557,21.6747026 21.6361702,21.2690537 L27.5294118,14 C27.5294118,14 28.8823529,15.9985958 28.8823529,17.3309931 C28.8823529,18.6633903 27.5294118,21.9943833 27.5294118,21.9943833 L34.8122653,21.9943833 C35.3668773,21.9943833 35.8562359,22.1894059 36.2803504,22.5794539 C36.704465,22.9694989 37,24.6591778 37,24.6591778 Z M14,21.9943833 L18,21.9943833 L18,33.9765972 L14,33.9765972 L14,21.9943833 Z" id="Page-1"></path>
            </g>
        </g>
    </g>
</svg>