<?xml version="1.0" encoding="UTF-8" standalone="no"?>
<svg width="18px" height="14px" viewBox="0 0 18 14" version="1.1" xmlns="http://www.w3.org/2000/svg" xmlns:xlink="http://www.w3.org/1999/xlink">
    <!-- Generator: Sketch 40.2 (33826) - http://www.bohemiancoding.com/sketch -->
    <title>Page 1</title>
    <desc>Created with Sketch.</desc>
    <defs></defs>
    <g id="IMM-desktop" stroke="none" stroke-width="1" fill="none" fill-rule="evenodd">
        <g id="d.dashboard-c-autorizaciones-copy-2" transform="translate(-1209.000000, -563.000000)" fill="#F9F9F9">
            <g id="Group-2-Copy-2" transform="translate(1193.000000, 545.000000)">
                <path d="M32.3694104,18.2117647 C32.2282348,18.0705864 32.0658842,18 31.8823529,18 C31.6988217,18 31.536471,18.0705864 31.3952955,18.2117647 L22.7341176,26.8729398 L18.6047059,22.7223516 C18.4635287,22.5952928 18.3011775,22.5317647 18.1176471,22.5317647 C17.9341167,22.5317647 17.7717654,22.5952928 17.6305882,22.7223516 L16.1905882,24.1623516 C16.0635288,24.3035299 16,24.4658805 16,24.6494118 C16,24.832943 16.0635288,24.9952937 16.1905882,25.1364719 L22.2470602,31.2141176 C22.374119,31.3552948 22.5329405,31.4258824 22.7235301,31.4258824 C22.9141197,31.4258824 23.0729412,31.3552948 23.2,31.2141176 L33.8094104,20.6258824 C33.9364719,20.4847041 34,20.3188242 34,20.1282346 C34,19.937645 33.9364719,19.7788235 33.8094104,19.6517647 L32.3694104,18.2117647 Z" id="Page-1"></path>
            </g>
        </g>
    </g>
</svg>