<?xml version="1.0" encoding="UTF-8"?>
<svg width="20px" height="20px" viewBox="0 0 20 20" version="1.1" xmlns="http://www.w3.org/2000/svg" xmlns:xlink="http://www.w3.org/1999/xlink">
    <!-- Generator: Sketch 42 (36781) - http://www.bohemiancoding.com/sketch -->
    <title>users-ico</title>
    <desc>Created with Sketch.</desc>
    <defs></defs>
    <g id="Symbols" stroke="none" stroke-width="1" fill="none" fill-rule="evenodd">
        <g id="users-ico" fill="#F9F9F9">
            <path d="M10,1 C11.5160334,1 12.8116932,1.53765475 13.8870192,2.61298077 C14.9623453,3.68830679 15.5,4.98396665 15.5,6.5 C15.5,8.01603335 14.9623453,9.31169321 13.8870192,10.3870192 C12.8116932,11.4623453 11.5160334,12 10,12 C8.48396665,12 7.18830679,11.4623453 6.11298077,10.3870192 C5.03765475,9.31169321 4.5,8.01603335 4.5,6.5 C4.5,4.98396665 5.03765475,3.68830679 6.11298077,2.61298077 C7.18830679,1.53765475 8.48396665,1 10,1 Z M3.5,17.676 C3.5,16.443993 4.09799415,15.3566725 5.294,14.414 C6.49000585,13.4713275 8.058658,13 10,13 C11.889342,13 13.4449935,13.4713275 14.667,14.414 C15.8890065,15.3566725 16.5,16.443993 16.5,17.676 C16.5,18.2920031 15.8803387,18.833331 14.641,19.3 C13.4016613,19.766669 11.8546775,20 10,20 C8.058658,20 6.49000585,19.766669 5.294,19.3 C4.09799415,18.833331 3.5,18.2920031 3.5,17.676 Z" id="Page-1"></path>
        </g>
    </g>
</svg>