<?xml version="1.0" encoding="UTF-8" standalone="no"?>
<svg width="14px" height="14px" viewBox="0 0 14 14" version="1.1" xmlns="http://www.w3.org/2000/svg" xmlns:xlink="http://www.w3.org/1999/xlink">
    <!-- Generator: Sketch 40.1 (33804) - http://www.bohemiancoding.com/sketch -->
    <title>details-ico</title>
    <desc>Created with Sketch.</desc>
    <defs></defs>
    <g id="IMM-desktop" stroke="none" stroke-width="1" fill="none" fill-rule="evenodd">
        <g id="d.dashboard-c-proyecto" transform="translate(-1277.000000, -418.000000)" fill="#4A90E2">
            <path d="M1285.18172,428.303044 C1284.38836,428.746958 1283.47373,429 1282.5,429 C1279.46243,429 1277,426.537566 1277,423.5 C1277,420.462434 1279.46243,418 1282.5,418 C1285.53757,418 1288,420.462434 1288,423.5 C1288,424.473733 1287.74696,425.388364 1287.30304,426.181724 L1290.56066,429.43934 C1291.14645,430.025126 1291.14645,430.974874 1290.56066,431.56066 C1289.97487,432.146447 1289.02513,432.146447 1288.43934,431.56066 L1285.18172,428.303044 L1285.18172,428.303044 Z M1282.5,427 C1284.433,427 1286,425.432997 1286,423.5 C1286,421.567003 1284.433,420 1282.5,420 C1280.567,420 1279,421.567003 1279,423.5 C1279,425.432997 1280.567,427 1282.5,427 Z" id="details-ico"></path>
        </g>
    </g>
</svg>