<?xml version="1.0" encoding="UTF-8"?>
<svg width="110px" height="110px" viewBox="0 0 110 110" version="1.1" xmlns="http://www.w3.org/2000/svg" xmlns:xlink="http://www.w3.org/1999/xlink">
    <!-- Generator: Sketch 40.1 (33804) - http://www.bohemiancoding.com/sketch -->
    <title>catalogos/autorizaciones</title>
    <desc>Created with Sketch.</desc>
    <defs>
        <ellipse id="path-1" cx="55" cy="55" rx="55" ry="55"></ellipse>
        <mask id="mask-2" maskContentUnits="userSpaceOnUse" maskUnits="objectBoundingBox" x="0" y="0" width="110" height="110" fill="white">
            <use xlink:href="#path-1"></use>
        </mask>
        <ellipse id="path-3" cx="50" cy="50" rx="50" ry="50"></ellipse>
    </defs>
    <g id="IMM-desktop" stroke="none" stroke-width="1" fill="none" fill-rule="evenodd">
        <g id="d.dashboard-c-catalogos" transform="translate(-467.000000, -463.000000)">
            <g id="catalogos/autorizaciones" transform="translate(467.000000, 463.000000)">
                <use id="Oval-4" stroke="#CCCCCC" mask="url(#mask-2)" stroke-width="4" fill="#F9F9F9" xlink:href="#path-1"></use>
                <ellipse id="Oval-4-Copy" fill="#1BBC9C" cx="55" cy="55" rx="50" ry="50"></ellipse>
                <g id="Group-21" transform="translate(5.000000, 5.000000)">
                    <mask id="mask-4" fill="white">
                        <use xlink:href="#path-3"></use>
                    </mask>
                    <use id="Mask" fill="#1BBC9C" xlink:href="#path-3"></use>
                    <g mask="url(#mask-4)">
                        <g transform="translate(-52.000000, 15.000000)">
                            <path d="M77.9102434,32 C77.9102434,32 86.479716,32.7820774 89.2925963,29.8492872 C92.1054767,26.9164969 94.2641988,21.5723014 96.4883367,18.4439919 C98.7124746,15.3156823 101.656187,8.40733198 101.91785,6.0610998 C102.179513,3.71486762 101.656187,0.977596741 103.814909,0.195519348 C105.973631,-0.586558045 109.440669,2.67209791 109.440669,7.42973523 C109.440669,12.1873726 105.51572,18.4439925 105.51572,24.5702648 C105.51572,30.6965371 114.477688,29.7189403 116.440162,29.8492865 C118.402637,29.9796328 124.290061,30.2403259 125.271298,30.4358446 C126.252535,30.6313633 129.196247,31.3482682 128.869168,34.8024434 C128.542089,38.2566185 126.579615,38.8431772 124.747972,38.8431766 C126.579615,38.8431759 127.364604,41.5152756 127.364604,43.0142566 C127.364604,44.5132377 126.383367,47.3156817 122.981744,46.924643 C125.140467,47.1201623 126.121704,49.4663957 126.121704,51.0305499 C126.121704,52.5947041 125.140467,55.1364556 122.131339,55.1364556 C124.551724,55.136455 124.747972,58.5254589 124.747972,59.2423625 C124.747972,59.9592662 124.486308,62.8920576 122.131339,63.2179226 C119.776369,63.5437876 104.403651,64.0000006 100.151623,64 C95.8995943,63.9999994 90.9279919,61.2627291 88.9001014,59.9592662 C86.872211,58.6558032 77.8448276,58.9816701 77.8448276,58.9816701 L77.9102434,32 Z" id="Path-2" fill="#FFD7B6"></path>
                            <path d="M101.862688,6.42588529 C101.886897,6.29457081 101.905406,6.17267658 101.91785,6.0610998 C102.159567,3.89371646 101.73141,1.39263848 103.366461,0.407412216 C103.8601,1.2607653 104.335282,2.45308004 104.241718,3.24541752 C104.131955,4.17494631 103.377574,5.51733422 101.862688,6.42588529 Z" id="Combined-Shape" fill="#FFE5D2"></path>
                            <rect id="Rectangle-25" fill="#F9F9F9" x="5.88742394" y="29.9796334" width="73.3965517" height="30.7617108"></rect>
                            <polygon id="Rectangle-26" fill="#333333" points="0 27.7637475 73.3965517 27.7637475 71.6957404 63.2179226 0 63.2179226"></polygon>
                            <rect id="Rectangle-27" fill="#333333" x="73.3965517" y="55.1364562" width="3.663286" height="3.6496945" rx="1.17000008"></rect>
                        </g>
                    </g>
                </g>
            </g>
        </g>
    </g>
</svg>