<?xml version="1.0" encoding="UTF-8" standalone="no"?>
<svg width="110px" height="110px" viewBox="0 0 110 110" version="1.1" xmlns="http://www.w3.org/2000/svg" xmlns:xlink="http://www.w3.org/1999/xlink">
    <!-- Generator: Sketch 40 (33762) - http://www.bohemiancoding.com/sketch -->
    <title>Group 2</title>
    <desc>Created with Sketch.</desc>
    <defs>
        <circle id="path-1" cx="55" cy="55" r="55"></circle>
        <mask id="mask-2" maskContentUnits="userSpaceOnUse" maskUnits="objectBoundingBox" x="0" y="0" width="110" height="110" fill="white">
            <use xlink:href="#path-1"></use>
        </mask>
        <rect id="path-3" x="36" y="20" width="38" height="70" rx="9"></rect>
        <mask id="mask-4" maskContentUnits="userSpaceOnUse" maskUnits="objectBoundingBox" x="0" y="0" width="38" height="70" fill="white">
            <use xlink:href="#path-3"></use>
        </mask>
    </defs>
    <g id="IMM-desktop" stroke="none" stroke-width="1" fill="none" fill-rule="evenodd">
        <g id="d.dashboard-c-catalogos" transform="translate(-830.000000, -93.000000)">
            <g id="Group-2" transform="translate(830.000000, 93.000000)">
                <use id="Oval-4" stroke="#CCCCCC" mask="url(#mask-2)" stroke-width="4" fill="#F9F9F9" xlink:href="#path-1"></use>
                <circle id="Oval-4-Copy" fill="#FDD590" cx="55" cy="55" r="50"></circle>
                <rect id="Rectangle-3" fill="#F9F9F9" x="52" y="4" width="6" height="17"></rect>
                <rect id="Rectangle" fill="#1B4752" x="33" y="17" width="44" height="76" rx="12"></rect>
                <circle id="Oval" fill="#FF6000" cx="55" cy="35" r="8"></circle>
                <circle id="Oval-Copy" fill="#FDD590" cx="55" cy="55" r="8"></circle>
                <circle id="Oval-Copy-2" fill="#27B99A" cx="55" cy="75" r="8"></circle>
                <use id="Rectangle-Copy" stroke="#F9F9F9" mask="url(#mask-4)" stroke-width="4" xlink:href="#path-3"></use>
                <path d="M78,28 L87,28 C86.5909091,32.0000001 78,35 78,35 L78,28 Z" id="Rectangle-2" fill="#1B4752"></path>
                <path d="M23,28 L32,28 C31.5909091,32.0000001 23,35 23,35 L23,28 Z" id="Rectangle-2-Copy-3" fill="#1B4752" transform="translate(27.500000, 31.500000) scale(-1, 1) translate(-27.500000, -31.500000) "></path>
                <path d="M78,48 L87,48 C86.5909091,52.0000001 78,55 78,55 L78,48 Z" id="Rectangle-2-Copy" fill="#1B4752"></path>
                <path d="M23,48 L32,48 C31.5909091,52.0000001 23,55 23,55 L23,48 Z" id="Rectangle-2-Copy-4" fill="#1B4752" transform="translate(27.500000, 51.500000) scale(-1, 1) translate(-27.500000, -51.500000) "></path>
                <path d="M78,68 L87,68 C86.5909091,72.0000001 78,75 78,75 L78,68 Z" id="Rectangle-2-Copy-2" fill="#1B4752"></path>
                <path d="M23,68 L32,68 C31.5909091,72.0000001 23,75 23,75 L23,68 Z" id="Rectangle-2-Copy-5" fill="#1B4752" transform="translate(27.500000, 71.500000) scale(-1, 1) translate(-27.500000, -71.500000) "></path>
            </g>
        </g>
    </g>
</svg>