<?xml version="1.0" encoding="UTF-8"?>
<svg width="110px" height="110px" viewBox="0 0 110 110" version="1.1" xmlns="http://www.w3.org/2000/svg" xmlns:xlink="http://www.w3.org/1999/xlink">
    <!-- Generator: Sketch 40.1 (33804) - http://www.bohemiancoding.com/sketch -->
    <title>catalogos/rubros</title>
    <desc>Created with Sketch.</desc>
    <defs>
        <circle id="path-1" cx="55" cy="55" r="55"></circle>
        <mask id="mask-2" maskContentUnits="userSpaceOnUse" maskUnits="objectBoundingBox" x="0" y="0" width="110" height="110" fill="white">
            <use xlink:href="#path-1"></use>
        </mask>
    </defs>
    <g id="IMM-desktop" stroke="none" stroke-width="1" fill="none" fill-rule="evenodd">
        <g id="d.dashboard-c-catalogos" transform="translate(-1191.000000, -93.000000)">
            <g id="catalogos/rubros" transform="translate(1191.000000, 93.000000)">
                <use id="Oval-4" stroke="#CCCCCC" mask="url(#mask-2)" stroke-width="4" fill="#F9F9F9" xlink:href="#path-1"></use>
                <circle id="Oval-4-Copy" fill="#A1E2FA" cx="55" cy="55" r="50"></circle>
                <g id="Group-9" transform="translate(20.000000, 31.000000)">
                    <path d="M27.6923077,6 L25.5709973,2.55287063 C24.7029352,1.14226966 22.6594501,9.73975118e-22 21.0057979,8.71160528e-22 L6.99420208,4.7019774e-38 C5.34331197,-1.02642862e-22 4,1.34260206 4,2.99878564 L4,13 L32,13 L31.3846154,12 L63.9980004,12 C65.1018839,12 66,11.1055038 66,10.0020869 L66,7.99791312 C66,6.89826062 65.1036743,6 63.9980004,6 L27.6923077,6 Z" id="Combined-Shape" fill="#DAA127"></path>
                    <rect id="Rectangle-13" fill="#F9F9F9" x="7" y="5" width="56" height="10"></rect>
                    <path d="M3.0078125,9 L66.9921875,9 C68.6533565,9 69.886346,10.3424683 69.746399,11.995507 L66.9518432,45.004493 C66.8117832,46.6588658 65.4884229,48 63.9741745,48 L6.0258255,48 C4.52136446,48 3.18810384,46.6575317 3.04815682,45.004493 L0.25360099,11.995507 C0.113541031,10.3411342 1.33583665,9 3.0078125,9 Z" id="Rectangle-33" fill="#FBD156"></path>
                </g>
            </g>
        </g>
    </g>
</svg>