<?xml version="1.0" encoding="UTF-8"?>
<svg width="110px" height="110px" viewBox="0 0 110 110" version="1.1" xmlns="http://www.w3.org/2000/svg" xmlns:xlink="http://www.w3.org/1999/xlink">
    <!-- Generator: Sketch 40 (33762) - http://www.bohemiancoding.com/sketch -->
    <title>catalogos/almacen</title>
    <desc>Created with Sketch.</desc>
    <defs>
        <circle id="path-1" cx="55" cy="55" r="55"></circle>
        <mask id="mask-2" maskContentUnits="userSpaceOnUse" maskUnits="objectBoundingBox" x="0" y="0" width="110" height="110" fill="white">
            <use xlink:href="#path-1"></use>
        </mask>
    </defs>
    <g id="IMM-desktop" stroke="none" stroke-width="1" fill="none" fill-rule="evenodd">
        <g id="d.dashboard-c-catalogos" transform="translate(-828.000000, -278.000000)">
            <g id="catalogos/almacen" transform="translate(828.000000, 278.000000)">
                <use id="Oval-4" stroke="#CCCCCC" mask="url(#mask-2)" stroke-width="4" fill="#FFFFFF" xlink:href="#path-1"></use>
                <circle id="Oval-4-Copy" fill="#71BA43" cx="55" cy="55" r="50"></circle>
                <path d="M100.839563,75.0000014 C93.123996,92.6590485 75.5031898,105 55,105 C34.4968102,105 16.876004,92.6590485 9.16043747,75.0000014 L100.839571,75 Z" id="Combined-Shape" fill="#D9D7D3"></path>
                <rect id="Rectangle" fill="#9C5C42" x="23" y="27" width="64" height="56" rx="2"></rect>
                <path d="M23,28.9930696 C23,27.8923277 23.8982417,27 25.0061411,27 L69,27 L69,83 L25.0061411,83 C23.89818,83 23,82.0976918 23,81.0069304 L23,28.9930696 L23,28.9930696 Z" id="Combined-Shape" fill="#E59D50"></path>
                <rect id="Rectangle-9" fill="#F7D848" x="41" y="27" width="10" height="10"></rect>
                <rect id="Rectangle-9-Copy" fill="#F7D848" x="41" y="73" width="10" height="10"></rect>
            </g>
        </g>
    </g>
</svg>