<?xml version="1.0" encoding="UTF-8"?>
<svg width="110px" height="110px" viewBox="0 0 110 110" version="1.1" xmlns="http://www.w3.org/2000/svg" xmlns:xlink="http://www.w3.org/1999/xlink">
    <!-- Generator: Sketch 40 (33762) - http://www.bohemiancoding.com/sketch -->
    <title>catalogos/areas</title>
    <desc>Created with Sketch.</desc>
    <defs>
        <circle id="path-1" cx="56" cy="64" r="55"></circle>
        <mask id="mask-2" maskContentUnits="userSpaceOnUse" maskUnits="objectBoundingBox" x="0" y="0" width="110" height="110" fill="white">
            <use xlink:href="#path-1"></use>
        </mask>
    </defs>
    <g id="IMM-desktop" stroke="none" stroke-width="1" fill="none" fill-rule="evenodd">
        <g id="d.dashboard-c-catalogos" transform="translate(-286.000000, -93.000000)">
            <g id="catalogos/areas" transform="translate(285.000000, 84.000000)">
                <use id="Oval-4" stroke="#CCCCCC" mask="url(#mask-2)" stroke-width="4" fill="#FFFFFF" xlink:href="#path-1"></use>
                <circle id="Oval-4-Copy" fill="#58D8DE" cx="56" cy="64" r="50"></circle>
                <g id="Group-26" transform="translate(58.500000, 62.000000) rotate(-60.000000) translate(-58.500000, -62.000000) translate(9.000000, 24.000000)" stroke="#58D8DE" fill="#1B4752">
                    <path d="M32.9864185,24.0135815 C32.994886,24.0218803 33.0033264,24.0302348 33.0117391,24.0386451 C33.0164323,24.0433369 33.0208338,24.0482908 33.0249453,24.0535052 C34.4447288,25.5478116 34.1725761,27.8557688 32.9212709,29.107074 C31.6314349,30.3969099 30.341599,29.9132215 29.5354515,30.7193689 C28.729304,31.5255164 31.2283612,33.2184261 32.5988119,34.5888768 C33.9692626,35.9593275 38,37.8940815 38,37.8940815 C38,37.8940815 35.9040166,42.4085073 33.7274184,44.5851055 C31.5508202,46.7617037 30.986517,46.35863 30.7446727,46.1167857 C30.5028285,45.8749415 29.696681,43.6177285 28.8905335,42.8115811 C28.084386,42.0054336 26.0690174,41.1186714 24.0938444,43.0938444 C22.1186714,45.0690174 23.0054336,47.084386 23.8115811,47.8905335 C24.6177285,48.696681 26.8749415,49.5028285 27.1167857,49.7446727 C27.35863,49.986517 27.7617037,50.5508202 25.5851055,52.7274184 C23.4085073,54.9040166 18.8940815,57 18.8940815,57 C18.8940815,57 16.9593275,52.9692626 15.5888768,51.5988119 C14.2184261,50.2283612 12.5255164,47.729304 11.7193689,48.5354515 C10.9132215,49.341599 11.3969099,50.6314349 10.107074,51.9212709 C8.8557688,53.1725761 6.54781164,53.4447288 5.0535052,52.0249453 C5.04829081,52.0208338 5.04333686,52.0164323 5.03864509,52.0117391 C5.03023484,52.0033264 5.02188034,51.994886 5.01358147,51.9864185 C5.00511396,51.9781197 4.99667364,51.9697652 4.98826087,51.9613549 C4.98356769,51.9566631 4.97916621,51.9517092 4.97505469,51.9464948 C3.55527116,50.4521884 3.82742392,48.1442312 5.0787291,46.892926 C6.36856506,45.6030901 7.65840102,46.0867785 8.46454849,45.2806311 C9.27069597,44.4744836 6.7716388,42.7815739 5.40118809,41.4111232 C4.03073738,40.0406725 0,38.1059185 0,38.1059185 C0,38.1059185 2.09598344,33.5914927 4.27258162,31.4148945 C6.44917981,29.2382963 7.01348304,29.64137 7.25532728,29.8832143 C7.49717152,30.1250585 8.303319,32.3822715 9.10946648,33.1884189 C9.91561395,33.9945664 11.9309826,34.8813286 13.9061556,32.9061556 C15.8813286,30.9309826 14.9945664,28.915614 14.1884189,28.1094665 C13.3822715,27.303319 11.1250585,26.4971715 10.8832143,26.2553273 C10.64137,26.013483 10.2382963,25.4491798 12.4148945,23.2725816 C14.5914927,21.0959834 19.1059185,19 19.1059185,19 C19.1059185,19 21.0406725,23.0307374 22.4111232,24.4011881 C23.7815739,25.7716388 25.4744836,28.270696 26.2806311,27.4645485 C27.0867785,26.658401 26.6030901,25.3685651 27.892926,24.0787291 C29.1442312,22.8274239 31.4521884,22.5552712 32.9464948,23.9750547 C32.9517092,23.9791662 32.9566631,23.9835677 32.9613549,23.9882609 C32.9697652,23.9966736 32.9781197,24.005114 32.9864185,24.0135815 L32.9864185,24.0135815 L32.9864185,24.0135815 Z" id="Combined-Shape"></path>
                    <path d="M87.8999022,24.9270651 C87.9083697,24.935364 87.91681,24.9437185 87.9252228,24.9521287 C87.929916,24.9568205 87.9343174,24.9617745 87.938429,24.9669889 C89.3582125,26.4612953 89.0860597,28.7692525 87.8347546,30.0205576 C86.5449186,31.3103936 85.2550826,30.8267051 84.4489352,31.6328526 C83.6427877,32.4390001 86.1418449,34.1319098 87.5122956,35.5023605 C88.8827463,36.8728112 92.9134837,38.8075651 92.9134837,38.8075651 C92.9134837,38.8075651 90.8175002,43.321991 88.640902,45.4985892 C86.4643039,47.6751874 85.9000006,47.2721136 85.6581564,47.0302694 C85.4163121,46.7884251 84.6101647,44.5312122 83.8040172,43.7250647 C82.9978697,42.9189172 80.982501,42.032155 79.007328,44.007328 C77.032155,45.982501 77.9189172,47.9978697 78.7250647,48.8040172 C79.5312122,49.6101647 81.7884251,50.4163121 82.0302694,50.6581564 C82.2721136,50.9000006 82.6751874,51.4643039 80.4985892,53.640902 C78.321991,55.8175002 73.8075651,57.9134837 73.8075651,57.9134837 C73.8075651,57.9134837 71.8728112,53.8827463 70.5023605,52.5122956 C69.1319098,51.1418449 67.4390001,48.6427877 66.6328526,49.4489352 C65.8267051,50.2550826 66.3103936,51.5449186 65.0205576,52.8347546 C63.7692525,54.0860597 61.4612953,54.3582125 59.9669889,52.938429 C59.9617745,52.9343174 59.9568205,52.929916 59.9521287,52.9252228 C59.9437185,52.91681 59.935364,52.9083697 59.9270651,52.8999022 C59.9185976,52.8916033 59.9101573,52.8832488 59.9017445,52.8748386 C59.8970513,52.8701468 59.8926499,52.8651928 59.8885383,52.8599785 C58.4687548,51.365672 58.7409076,49.0577149 59.9922128,47.8064097 C61.2820487,46.5165737 62.5718847,47.0002622 63.3780322,46.1941147 C64.1841796,45.3879673 61.6851225,43.6950576 60.3146717,42.3246068 C58.944221,40.9541561 54.9134837,39.0194022 54.9134837,39.0194022 C54.9134837,39.0194022 57.0094671,34.5049763 59.1860653,32.3283781 C61.3626635,30.15178 61.9269667,30.5548537 62.1688109,30.7966979 C62.4106552,31.0385422 63.2168027,33.2957551 64.0229501,34.1019026 C64.8290976,34.9080501 66.8444663,35.7948123 68.8196393,33.8196393 C70.7948123,31.8444663 69.9080501,29.8290976 69.1019026,29.0229501 C68.2957551,28.2168027 66.0385422,27.4106552 65.7966979,27.1688109 C65.5548537,26.9269667 65.15178,26.3626635 67.3283781,24.1860653 C69.5049763,22.0094671 74.0194022,19.9134837 74.0194022,19.9134837 C74.0194022,19.9134837 75.9541561,23.944221 77.3246068,25.3146717 C78.6950576,26.6851225 80.3879673,29.1841796 81.1941147,28.3780322 C82.0002622,27.5718847 81.5165737,26.2820487 82.8064097,24.9922128 C84.0577149,23.7409076 86.365672,23.4687548 87.8599785,24.8885383 C87.8651928,24.8926499 87.8701468,24.8970513 87.8748386,24.9017445 C87.8832488,24.9101573 87.8916033,24.9185976 87.8999022,24.9270651 L87.8999022,24.9270651 L87.8999022,24.9270651 Z" id="Combined-Shape-Copy-8" transform="translate(73.913484, 38.913484) rotate(23.000000) translate(-73.913484, -38.913484) "></path>
                    <path d="M51.9864185,43.0135815 C51.994886,43.0218803 52.0033264,43.0302348 52.0117391,43.0386451 C52.0164323,43.0433369 52.0208338,43.0482908 52.0249453,43.0535052 C53.4447288,44.5478116 53.1725761,46.8557688 51.9212709,48.107074 C50.6314349,49.3969099 49.341599,48.9132215 48.5354515,49.7193689 C47.729304,50.5255164 50.2283612,52.2184261 51.5988119,53.5888768 C52.9692626,54.9593275 57,56.8940815 57,56.8940815 C57,56.8940815 54.9040166,61.4085073 52.7274184,63.5851055 C50.5508202,65.7617037 49.986517,65.35863 49.7446727,65.1167857 C49.5028285,64.8749415 48.696681,62.6177285 47.8905335,61.8115811 C47.084386,61.0054336 45.0690174,60.1186714 43.0938444,62.0938444 C41.1186714,64.0690174 42.0054336,66.084386 42.8115811,66.8905335 C43.6177285,67.696681 45.8749415,68.5028285 46.1167857,68.7446727 C46.35863,68.986517 46.7617037,69.5508202 44.5851055,71.7274184 C42.4085073,73.9040166 37.8940815,76 37.8940815,76 C37.8940815,76 35.9593275,71.9692626 34.5888768,70.5988119 C33.2184261,69.2283612 31.5255164,66.729304 30.7193689,67.5354515 C29.9132215,68.341599 30.3969099,69.6314349 29.107074,70.9212709 C27.8557688,72.1725761 25.5478116,72.4447288 24.0535052,71.0249453 C24.0482908,71.0208338 24.0433369,71.0164323 24.0386451,71.0117391 C24.0302348,71.0033264 24.0218803,70.994886 24.0135815,70.9864185 C24.005114,70.9781197 23.9966736,70.9697652 23.9882609,70.9613549 C23.9835677,70.9566631 23.9791662,70.9517092 23.9750547,70.9464948 C22.5552712,69.4521884 22.8274239,67.1442312 24.0787291,65.892926 C25.3685651,64.6030901 26.658401,65.0867785 27.4645485,64.2806311 C28.270696,63.4744836 25.7716388,61.7815739 24.4011881,60.4111232 C23.0307374,59.0406725 19,57.1059185 19,57.1059185 C19,57.1059185 21.0959834,52.5914927 23.2725816,50.4148945 C25.4491798,48.2382963 26.013483,48.64137 26.2553273,48.8832143 C26.4971715,49.1250585 27.303319,51.3822715 28.1094665,52.1884189 C28.915614,52.9945664 30.9309826,53.8813286 32.9061556,51.9061556 C34.8813286,49.9309826 33.9945664,47.915614 33.1884189,47.1094665 C32.3822715,46.303319 30.1250585,45.4971715 29.8832143,45.2553273 C29.64137,45.013483 29.2382963,44.4491798 31.4148945,42.2725816 C33.5914927,40.0959834 38.1059185,38 38.1059185,38 C38.1059185,38 40.0406725,42.0307374 41.4111232,43.4011881 C42.7815739,44.7716388 44.4744836,47.270696 45.2806311,46.4645485 C46.0867785,45.658401 45.6030901,44.3685651 46.892926,43.0787291 C48.1442312,41.8274239 50.4521884,41.5552712 51.9464948,42.9750547 C51.9517092,42.9791662 51.9566631,42.9835677 51.9613549,42.9882609 C51.9697652,42.9966736 51.9781197,43.005114 51.9864185,43.0135815 L51.9864185,43.0135815 L51.9864185,43.0135815 Z" id="Combined-Shape-Copy-6" transform="translate(38.000000, 57.000000) scale(1, -1) translate(-38.000000, -57.000000) "></path>
                    <path d="M51.9864185,5.01358147 C51.994886,5.02188034 52.0033264,5.03023484 52.0117391,5.03864509 C52.0164323,5.04333686 52.0208338,5.04829081 52.0249453,5.0535052 C53.4447288,6.54781164 53.1725761,8.8557688 51.9212709,10.107074 C50.6314349,11.3969099 49.341599,10.9132215 48.5354515,11.7193689 C47.729304,12.5255164 50.2283612,14.2184261 51.5988119,15.5888768 C52.9692626,16.9593275 57,18.8940815 57,18.8940815 C57,18.8940815 54.9040166,23.4085073 52.7274184,25.5851055 C50.5508202,27.7617037 49.986517,27.35863 49.7446727,27.1167857 C49.5028285,26.8749415 48.696681,24.6177285 47.8905335,23.8115811 C47.084386,23.0054336 45.0690174,22.1186714 43.0938444,24.0938444 C41.1186714,26.0690174 42.0054336,28.084386 42.8115811,28.8905335 C43.6177285,29.696681 45.8749415,30.5028285 46.1167857,30.7446727 C46.35863,30.986517 46.7617037,31.5508202 44.5851055,33.7274184 C42.4085073,35.9040166 37.8940815,38 37.8940815,38 C37.8940815,38 35.9593275,33.9692626 34.5888768,32.5988119 C33.2184261,31.2283612 31.5255164,28.729304 30.7193689,29.5354515 C29.9132215,30.341599 30.3969099,31.6314349 29.107074,32.9212709 C27.8557688,34.1725761 25.5478116,34.4447288 24.0535052,33.0249453 C24.0482908,33.0208338 24.0433369,33.0164323 24.0386451,33.0117391 C24.0302348,33.0033264 24.0218803,32.994886 24.0135815,32.9864185 C24.005114,32.9781197 23.9966736,32.9697652 23.9882609,32.9613549 C23.9835677,32.9566631 23.9791662,32.9517092 23.9750547,32.9464948 C22.5552712,31.4521884 22.8274239,29.1442312 24.0787291,27.892926 C25.3685651,26.6030901 26.658401,27.0867785 27.4645485,26.2806311 C28.270696,25.4744836 25.7716388,23.7815739 24.4011881,22.4111232 C23.0307374,21.0406725 19,19.1059185 19,19.1059185 C19,19.1059185 21.0959834,14.5914927 23.2725816,12.4148945 C25.4491798,10.2382963 26.013483,10.64137 26.2553273,10.8832143 C26.4971715,11.1250585 27.303319,13.3822715 28.1094665,14.1884189 C28.915614,14.9945664 30.9309826,15.8813286 32.9061556,13.9061556 C34.8813286,11.9309826 33.9945664,9.91561395 33.1884189,9.10946648 C32.3822715,8.303319 30.1250585,7.49717152 29.8832143,7.25532728 C29.64137,7.01348304 29.2382963,6.44917981 31.4148945,4.27258162 C33.5914927,2.09598344 38.1059185,0 38.1059185,0 C38.1059185,0 40.0406725,4.03073738 41.4111232,5.40118809 C42.7815739,6.7716388 44.4744836,9.27069597 45.2806311,8.46454849 C46.0867785,7.65840102 45.6030901,6.36856506 46.892926,5.0787291 C48.1442312,3.82742392 50.4521884,3.55527116 51.9464948,4.97505469 C51.9517092,4.97916621 51.9566631,4.98356769 51.9613549,4.98826087 C51.9697652,4.99667364 51.9781197,5.00511396 51.9864185,5.01358147 L51.9864185,5.01358147 L51.9864185,5.01358147 Z" id="Combined-Shape-Copy-7" transform="translate(38.000000, 19.000000) scale(1, -1) translate(-38.000000, -19.000000) "></path>
                </g>
            </g>
        </g>
    </g>
</svg>