<?xml version="1.0" encoding="UTF-8"?>
<svg width="110px" height="110px" viewBox="0 0 110 110" version="1.1" xmlns="http://www.w3.org/2000/svg" xmlns:xlink="http://www.w3.org/1999/xlink">
    <!-- Generator: Sketch 42 (36781) - http://www.bohemiancoding.com/sketch -->
    <title>catalogos/bpm-process</title>
    <desc>Created with Sketch.</desc>
    <defs>
        <ellipse id="path-1" cx="55" cy="55" rx="55" ry="55"></ellipse>
        <mask id="mask-2" maskContentUnits="userSpaceOnUse" maskUnits="objectBoundingBox" x="0" y="0" width="110" height="110" fill="white">
            <use xlink:href="#path-1"></use>
        </mask>
    </defs>
    <g id="IMM-desktop" stroke="none" stroke-width="1" fill="none" fill-rule="evenodd">
        <g id="catalogos/bpm-process">
            <use id="Oval-4" stroke="#CCCCCC" mask="url(#mask-2)" stroke-width="4" fill="#F9F9F9" xlink:href="#path-1"></use>
            <ellipse id="Oval-4-Copy" fill="#F1F1F1" cx="55" cy="55" rx="50" ry="50"></ellipse>
            <path d="M86.3839394,45.1621696 L86.3879362,40.7243353 C91.9787547,52.6850743 90.1553217,67.2751201 80.8938584,77.5087827 L86.1839159,82.7988402 L68.418002,82.7977156 L68.4181449,65.0330692 L73.5256773,70.1406016 C79.6148564,63.0880959 80.7700604,53.2730926 77.0158119,45.1682834 L86.3883758,45.166606 L86.3839394,45.1621696 Z" id="Combined-Shape" fill="#1BBC9C" fill-rule="nonzero"></path>
            <path d="M65.8305126,76.015586 L65.8336818,76.0124169 L65.8326383,85.3830793 L70.2755428,85.3816175 C58.3086106,90.9753836 43.7225269,89.157029 33.4915755,79.8945591 L28.2016893,85.1844454 L28.2024661,67.4178976 L45.9671124,67.4190223 L40.8616687,72.524466 C47.9104729,78.6136624 57.7272765,79.771177 65.8305126,76.015586 Z" id="Path" fill="#F6C35B"></path>
            <path d="M34.9816529,64.8329843 L34.9854555,64.8367869 L25.6141593,64.8371966 L25.6139652,69.2762984 C20.0256818,57.3168269 21.8459458,42.727415 31.104874,32.4912173 L25.8154503,27.2017936 L43.5800966,27.2016507 L43.5812212,44.9675646 L38.4755901,39.8619335 C32.3819746,46.912538 31.2274043,56.7281751 34.9816529,64.8329843 L34.9816529,64.8329843 Z" id="Path" fill="#50667E"></path>
            <path d="M46.1682198,33.984414 L46.1656845,33.9869493 L46.1635589,24.6181884 L41.7231896,24.617115 C53.6850512,19.0284195 68.2730364,20.8461402 78.5077907,30.1048071 L83.7976769,24.8149209 L83.7981679,42.5776658 L66.0328877,42.5797101 L71.1383314,37.4742664 C64.0914286,31.3831686 54.2765262,30.231358 46.1682198,33.984414 Z" id="Path" fill="#F05B30"></path>
        </g>
    </g>
</svg>