<?xml version="1.0" encoding="UTF-8"?>
<svg width="110px" height="110px" viewBox="0 0 110 110" version="1.1" xmlns="http://www.w3.org/2000/svg" xmlns:xlink="http://www.w3.org/1999/xlink">
    <!-- Generator: Sketch 40 (33762) - http://www.bohemiancoding.com/sketch -->
    <title>catalogos/budget-mes</title>
    <desc>Created with Sketch.</desc>
    <defs>
        <circle id="path-1" cx="55" cy="55" r="55"></circle>
        <mask id="mask-2" maskContentUnits="userSpaceOnUse" maskUnits="objectBoundingBox" x="0" y="0" width="110" height="110" fill="white">
            <use xlink:href="#path-1"></use>
        </mask>
    </defs>
    <g id="IMM-desktop" stroke="none" stroke-width="1" fill="none" fill-rule="evenodd">
        <g id="catalogos/budget-mes">
            <use id="Oval-4" stroke="#CCCCCC" mask="url(#mask-2)" stroke-width="4" fill="#FFFFFF" xlink:href="#path-1"></use>
            <circle id="Oval-4-Copy" fill="#50667E" cx="55" cy="55" r="50"></circle>
            <g id="Group-30" transform="translate(26.000000, 28.000000)">
                <rect id="Rectangle-41" fill="#C96459" x="0" y="0" width="58" height="9"></rect>
                <rect id="Rectangle-43" fill="#FEFEF5" x="0" y="9" width="58" height="41"></rect>
                <rect id="Rectangle-44" fill="#9E9898" x="0" y="50" width="58" height="4"></rect>
                <rect id="Rectangle-42" fill="#1F1F38" x="6" y="4" width="4" height="8" rx="2"></rect>
                <rect id="Rectangle-42-Copy" fill="#1F1F38" x="48" y="4" width="4" height="8" rx="2"></rect>
                <rect id="Rectangle-45" fill="#C96459" x="6" y="18" width="4" height="4"></rect>
                <rect id="Rectangle-45-Copy-7" fill="#C96459" x="6" y="25" width="4" height="4"></rect>
                <rect id="Rectangle-45-Copy" fill="#C96459" x="13" y="18" width="4" height="4"></rect>
                <rect id="Rectangle-45-Copy-8" fill="#C96459" x="13" y="25" width="4" height="4"></rect>
                <rect id="Rectangle-45-Copy-20" fill="#C96459" x="6" y="32" width="4" height="4"></rect>
                <rect id="Rectangle-45-Copy-19" fill="#C96459" x="13" y="32" width="4" height="4"></rect>
                <g id="Group-31" transform="translate(20.000000, 18.000000)" fill="#9E9898">
                    <rect id="Rectangle-45-Copy-2" x="0" y="0" width="4" height="4"></rect>
                    <rect id="Rectangle-45-Copy-9" x="0" y="7" width="4" height="4"></rect>
                    <rect id="Rectangle-45-Copy-3" x="7" y="0" width="4" height="4"></rect>
                    <rect id="Rectangle-45-Copy-10" x="7" y="7" width="4" height="4"></rect>
                    <rect id="Rectangle-45-Copy-11" x="21" y="7" width="4" height="4"></rect>
                    <rect id="Rectangle-45-Copy-4" x="14" y="0" width="4" height="4"></rect>
                    <rect id="Rectangle-45-Copy-12" x="14" y="7" width="4" height="4"></rect>
                    <rect id="Rectangle-45-Copy-13" x="28" y="7" width="4" height="4"></rect>
                    <rect id="Rectangle-45-Copy-18" x="0" y="14" width="4" height="4"></rect>
                    <rect id="Rectangle-45-Copy-17" x="7" y="14" width="4" height="4"></rect>
                    <rect id="Rectangle-45-Copy-16" x="21" y="14" width="4" height="4"></rect>
                    <rect id="Rectangle-45-Copy-15" x="14" y="14" width="4" height="4"></rect>
                    <rect id="Rectangle-45-Copy-14" x="28" y="14" width="4" height="4"></rect>
                    <rect id="Rectangle-45-Copy-25" x="0" y="21" width="4" height="4"></rect>
                    <rect id="Rectangle-45-Copy-24" x="7" y="21" width="4" height="4"></rect>
                    <rect id="Rectangle-45-Copy-23" x="21" y="21" width="4" height="4"></rect>
                    <rect id="Rectangle-45-Copy-22" x="14" y="21" width="4" height="4"></rect>
                    <rect id="Rectangle-45-Copy-21" x="28" y="21" width="4" height="4"></rect>
                </g>
            </g>
        </g>
    </g>
</svg>