<?xml version="1.0" encoding="UTF-8" standalone="no"?>
<svg width="110px" height="110px" viewBox="0 0 110 110" version="1.1" xmlns="http://www.w3.org/2000/svg" xmlns:xlink="http://www.w3.org/1999/xlink">
    <!-- Generator: Sketch 40 (33762) - http://www.bohemiancoding.com/sketch -->
    <title>Group 2 Copy 7</title>
    <desc>Created with Sketch.</desc>
    <defs>
        <circle id="path-1" cx="55" cy="55" r="55"></circle>
        <mask id="mask-2" maskContentUnits="userSpaceOnUse" maskUnits="objectBoundingBox" x="0" y="0" width="110" height="110" fill="white">
            <use xlink:href="#path-1"></use>
        </mask>
    </defs>
    <g id="IMM-desktop" stroke="none" stroke-width="1" fill="none" fill-rule="evenodd">
        <g id="d.dashboard-c-catalogos" transform="translate(-467.000000, -268.000000)">
            <g id="Group-2-Copy-7" transform="translate(467.000000, 268.000000)">
                <use id="Oval-4" stroke="#CCCCCC" mask="url(#mask-2)" stroke-width="4" fill="#FFFFFF" xlink:href="#path-1"></use>
                <circle id="Oval-4-Copy" fill="#F6C35B" cx="55" cy="55" r="50"></circle>
                <rect id="Rectangle" fill="#FFFFFF" x="24" y="21" width="62" height="68" rx="6"></rect>
                <path d="M47,68 C47,67.8437492 47.0085754,67.637588 47.0257265,67.3815103 C47.0428776,67.1254327 47.1372073,66.7131103 47.3087184,66.1445313 C47.4802295,65.575952 47.7203414,65.1354183 48.0290614,64.8229167 C48.3292059,64.5190967 48.9251981,64.1848967 49.8170558,63.8203133 C50.7089119,63.4557267 51.716526,63.0716167 52.8399252,62.66797 C53.9633211,62.26432 54.7865637,61.9279533 55.3096727,61.6588533 C55.9699876,61.32031 56.4823713,60.8255233 56.8468303,60.17448 C57.2112926,59.5234333 57.3935204,58.8463567 57.3935204,58.14323 C57.3935204,57.6657967 57.1105302,57.1015667 56.5445464,56.45052 C55.969981,55.7821133 55.5047662,54.8728367 55.1488789,53.7226567 C54.7929949,52.5724767 54.6150546,51.2465367 54.6150546,49.7447933 C54.6150546,48.6163133 54.7737013,47.61155 55.0909946,46.73047 C55.4082913,45.8493867 55.84135,45.1441 56.3901839,44.6145833 C56.939021,44.0850667 57.5628825,43.6835967 58.2617914,43.4101567 C58.9607003,43.1367167 59.7089053,43 60.5064296,43 C61.3039571,43 62.0478747,43.1367167 62.7382086,43.4101567 C63.4285392,43.6835967 64.0502603,44.0850667 64.6033816,44.6145833 C65.1565062,45.1441 65.5917087,45.8493867 65.9090054,46.73047 C66.2262987,47.61155 66.3849454,48.6163133 66.3849454,49.7447933 C66.3849454,51.2465367 66.2091488,52.5724767 65.857549,53.7226567 C65.5059525,54.8728367 65.0428814,55.7821133 64.4683194,56.45052 C63.893754,57.1102467 63.6064796,57.6744767 63.6064796,58.14323 C63.6064796,58.8376767 63.7908512,59.5125833 64.1596009,60.16797 C64.5283474,60.8233533 65.0428748,61.32031 65.7031931,61.6588533 C66.2262987,61.9279533 67.0495413,62.26432 68.1729405,62.66797 C69.2963364,63.0716167 70.2996598,63.4557267 71.1829435,63.8203133 C72.0662273,64.1848967 72.6579294,64.5190967 72.9580728,64.8229167 C73.2667946,65.1354183 73.5069067,65.556421 73.6784158,66.0859373 C73.8499283,66.615454 73.9442594,67.0668383 73.9614094,67.440104 L74,68 L47,68 Z" id="Page-1" fill="#F1716D"></path>
                <rect id="Rectangle-Copy-2" fill="#2E748A" x="24" y="21" width="15" height="68" rx="6"></rect>
                <rect id="Rectangle-8" fill="#0F2A3D" x="19" y="31" width="10" height="3" rx="1.5"></rect>
                <rect id="Rectangle-8-Copy" fill="#0F2A3D" x="19" y="38" width="10" height="3" rx="1.5"></rect>
                <rect id="Rectangle-8-Copy-3" fill="#0F2A3D" x="19" y="69" width="10" height="3" rx="1.5"></rect>
                <rect id="Rectangle-8-Copy-2" fill="#0F2A3D" x="19" y="76" width="10" height="3" rx="1.5"></rect>
            </g>
        </g>
    </g>
</svg>