<?xml version="1.0" encoding="UTF-8"?>
<svg width="110px" height="110px" viewBox="0 0 110 110" version="1.1" xmlns="http://www.w3.org/2000/svg" xmlns:xlink="http://www.w3.org/1999/xlink">
    <!-- Generator: Sketch 40.1 (33804) - http://www.bohemiancoding.com/sketch -->
    <title>catalogos/conceptos-gasto</title>
    <desc>Created with Sketch.</desc>
    <defs>
        <circle id="path-1" cx="55" cy="55" r="55"></circle>
        <mask id="mask-2" maskContentUnits="userSpaceOnUse" maskUnits="objectBoundingBox" x="0" y="0" width="110" height="110" fill="white">
            <use xlink:href="#path-1"></use>
        </mask>
    </defs>
    <g id="IMM-desktop" stroke="none" stroke-width="1" fill="none" fill-rule="evenodd">
        <g id="d.dashboard-c-catalogos" transform="translate(-1009.000000, -278.000000)">
            <g id="catalogos/conceptos-gasto" transform="translate(1009.000000, 278.000000)">
                <use id="Oval-4" stroke="#CCCCCC" mask="url(#mask-2)" stroke-width="4" fill="#F9F9F9" xlink:href="#path-1"></use>
                <circle id="Oval-4-Copy" fill="#6EBEC5" cx="55" cy="55" r="50"></circle>
                <rect id="Rectangle-29" fill="#F9F9F9" x="23" y="32" width="65" height="47"></rect>
                <rect id="Rectangle" fill="#1B4752" x="20" y="28" width="70" height="5" rx="2.5"></rect>
                <rect id="Rectangle-Copy-6" fill="#1B4752" x="20" y="78" width="70" height="5" rx="2.5"></rect>
                <g id="Group-23" transform="translate(25.000000, 39.000000)">
                    <rect id="Rectangle-30" fill="#C2C3C7" x="3" y="5" width="9" height="5"></rect>
                    <rect id="Rectangle-30-Copy" fill="#E46A5E" x="21" y="0" width="9" height="5"></rect>
                    <rect id="Rectangle-30-Copy-2" fill="#EFA739" x="49" y="10" width="9" height="5"></rect>
                    <rect id="Rectangle-30-Copy-3" fill="#6FBEC5" x="35" y="28" width="9" height="5"></rect>
                    <polyline id="Path-4" stroke="#1B4752" points="2 19 12 14 21 28 30 10 40 23 49 19 58 24"></polyline>
                    <circle id="Oval-6" fill="#6FBEC5" cx="2" cy="19" r="2"></circle>
                    <circle id="Oval-6-Copy" fill="#C2C3C7" cx="12" cy="14" r="2"></circle>
                    <circle id="Oval-6-Copy-2" fill="#EFA739" cx="21" cy="28" r="2"></circle>
                    <circle id="Oval-6-Copy-3" fill="#E46A5E" cx="30" cy="10" r="2"></circle>
                    <circle id="Oval-6-Copy-4" fill="#6FBEC5" cx="40" cy="23" r="2"></circle>
                    <circle id="Oval-6-Copy-5" fill="#C2C3C7" cx="49" cy="19" r="2"></circle>
                    <circle id="Oval-6-Copy-6" fill="#EFA739" cx="58" cy="24" r="2"></circle>
                </g>
            </g>
        </g>
    </g>
</svg>