<?xml version="1.0" encoding="UTF-8"?>
<svg width="110px" height="110px" viewBox="0 0 110 110" version="1.1" xmlns="http://www.w3.org/2000/svg" xmlns:xlink="http://www.w3.org/1999/xlink">
    <!-- Generator: Sketch 40.1 (33804) - http://www.bohemiancoding.com/sketch -->
    <title>catalogos/market</title>
    <desc>Created with Sketch.</desc>
    <defs>
        <ellipse id="path-1" cx="55" cy="55" rx="55" ry="55"></ellipse>
        <mask id="mask-2" maskContentUnits="userSpaceOnUse" maskUnits="objectBoundingBox" x="0" y="0" width="110" height="110" fill="white">
            <use xlink:href="#path-1"></use>
        </mask>
    </defs>
    <g id="IMM-desktop" stroke="none" stroke-width="1" fill="none" fill-rule="evenodd">
        <g id="d.dashboard-c-catalogos" transform="translate(-1010.000000, -463.000000)">
            <g id="catalogos/market" transform="translate(1010.000000, 463.000000)">
                <use id="Oval-4" stroke="#CCCCCC" mask="url(#mask-2)" stroke-width="4" fill="#FFFFFF" xlink:href="#path-1"></use>
                <ellipse id="Oval-4-Copy" fill="#27B99A" cx="55" cy="55" rx="50" ry="50"></ellipse>
                <path d="M36.1831058,10.7183026 C30.3990346,13.1971903 25.3286625,16.6149994 20.971831,20.971831 C16.6150023,25.3286625 13.1971961,30.4365909 10.7183099,36.2957746 C8.23942422,42.1549584 7,48.3896329 7,55 C7,61.6103671 8.23942422,67.8450416 10.7183099,73.7042254 C13.1971961,79.5634091 16.6150023,84.6713375 20.971831,89.028169 C25.3286625,93.3849977 30.3990346,96.8028039 36.1831058,99.2816901 C41.9671626,101.760576 48.1642808,103 54.7746479,103 C61.6103671,103 67.8450416,101.760576 73.7042254,99.2816901 C79.5634091,96.8028039 84.6713375,93.3849977 89.028169,89.028169 C93.3850006,84.6713375 96.8028097,79.5634091 99.2816974,73.7042254 C101.760571,67.8450416 103,61.6103671 103,55 C103,48.3896329 101.760571,42.1549584 99.2816974,36.2957746 C96.8028097,30.4365909 93.3850006,25.3286625 89.028169,20.971831 C84.6713375,16.6149994 79.5634091,13.1971903 73.7042254,10.7183026 C67.8450416,8.23942941 61.6103671,7 55,7 C48.1642808,7 41.9671626,8.23942941 36.1831058,10.7183026 Z M57.028169,35.6197183 C58.2300566,35.6197183 59.4694715,35.582162 60.7464717,35.507035 C62.0234862,35.4319225 63.2629012,35.3192536 64.4647887,35.1690141 C65.6666763,35.0187745 66.868535,34.8309931 68.0704225,34.6056266 C69.2723101,34.3802745 70.4741688,34.1173661 71.6760563,33.8169014 C72.1267606,35.1690141 72.5023522,36.5962393 72.8028169,38.0985915 C73.1032816,39.6009438 73.3286337,41.1783941 73.4788732,42.8309859 C73.6291128,44.4835777 73.7793379,46.1736969 73.9295775,47.9014157 C74.079817,49.62912 74.1549296,51.3192392 74.1549296,52.971831 L57.028169,52.971831 L57.028169,35.6197183 Z M57.028169,11.056338 C58.2300566,11.5070423 59.4694715,12.2206549 60.7464717,13.1971903 C62.0234862,14.1737113 63.2629012,15.4882533 64.4647887,17.1408451 C65.6666763,18.7934368 66.7934224,20.7089082 67.8450704,22.8873167 C68.8967184,25.0657397 69.8732394,27.4319153 70.7746479,29.9859155 C69.5727603,30.2863802 68.4084579,30.5492886 67.2816974,30.7746551 C66.1549224,31.0000072 65.0657325,31.1877886 64.0140845,31.3380282 C62.812197,31.4882677 61.6103383,31.6009366 60.4084507,31.6760635 C59.2065632,31.7511761 58.079817,31.7887324 57.028169,31.7887324 L57.028169,11.056338 Z M52.971831,31.7887324 C51.920183,31.7887324 50.7934368,31.7511761 49.5915493,31.6760635 C48.3896617,31.6009366 47.187803,31.4882677 45.9859155,31.3380282 C44.7840279,31.1877886 43.6197255,31.0000072 42.492965,30.7746551 C41.36619,30.5492886 40.2770001,30.2863802 39.2253521,29.9859155 C39.9765354,27.2816757 40.9154857,24.8403876 42.0422607,22.661979 C43.1690213,20.4835561 44.3333237,18.6431973 45.5352113,17.1408451 C46.7370988,15.4882533 47.9765138,14.136155 49.2535283,13.084507 C50.5305285,12.032859 51.7699434,11.3568027 52.971831,11.056338 L52.971831,31.7887324 Z M52.971831,52.971831 L35.6197183,52.971831 C35.6197183,51.3192392 35.6948309,49.62912 35.8450704,47.9014157 C35.99531,46.1736969 36.2206621,44.4835777 36.5211268,42.8309859 C36.6713663,41.1783941 36.8967184,39.6009438 37.1971831,38.0985915 C37.4976478,36.5962393 37.7981269,35.1690141 38.0985915,33.8169014 C39.3004791,33.967141 40.5023378,34.1924931 41.7042254,34.4929577 C42.9061129,34.7934224 44.1830986,35.0187745 45.5352113,35.1690141 C46.7370988,35.3192536 47.9765138,35.4319225 49.2535283,35.507035 C50.5305285,35.582162 51.7699434,35.6197183 52.971831,35.6197183 L52.971831,52.971831 Z M10.8309859,52.971831 C10.9812211,50.5680703 11.2816873,48.2018948 11.7323944,45.8732322 C12.1831015,43.5445841 12.8591506,41.2535355 13.7605634,39 C14.6619762,36.7464645 15.7136097,34.6431973 16.915493,32.6901408 C18.1173762,30.7370844 19.394359,28.8591694 20.7464789,27.056338 C21.9483664,27.6572818 23.0751126,28.2206549 24.1267606,28.7464717 C25.1784086,29.2723029 26.3051547,29.7605634 27.5070423,30.2112676 C28.5586903,30.6619718 29.6854364,31.1126761 30.8873239,31.5633803 C32.0892115,32.0140845 33.2910702,32.3896762 34.4929577,32.6901408 C34.0422535,34.1924931 33.6666619,35.7699434 33.3661972,37.4225352 C33.0657325,39.075127 32.7652534,40.7276899 32.4647887,42.3802817 C32.3145492,44.183113 32.1643241,45.9483448 32.0140845,47.6760491 C31.863845,49.4037679 31.7887324,51.1689997 31.7887324,52.971831 L10.8309859,52.971831 Z M31.7887324,57.028169 C31.7887324,58.8310003 31.863845,60.5962321 32.0140845,62.3239509 C32.1643241,64.0516552 32.3145492,65.816887 32.4647887,67.6197183 C32.7652534,69.2723101 33.0657325,70.924873 33.3661972,72.5774648 C33.6666619,74.2300566 34.0422535,75.8075069 34.4929577,77.3098592 C33.2910702,77.6103238 32.0892115,77.9859155 30.8873239,78.4366197 C29.6854364,78.8873239 28.5586903,79.3380282 27.5070423,79.7887324 C26.3051547,80.2394366 25.1784086,80.7276971 24.1267606,81.2535283 C23.0751126,81.7793451 21.9483664,82.3427182 20.7464789,82.943662 C19.394359,81.1408306 18.1173762,79.2629156 16.915493,77.3098592 C15.7136097,75.3568027 14.6619762,73.2535355 13.7605634,71 C12.8591506,68.7464645 12.1831015,66.4554159 11.7323944,64.1267678 C11.2816873,61.7981052 10.9812211,59.4319441 10.8309859,57.028169 L31.7887324,57.028169 Z M52.971831,57.028169 L52.971831,74.3802817 C51.7699434,74.3802817 50.5305285,74.417838 49.2535283,74.492965 C47.9765138,74.5680775 46.7370988,74.6807464 45.5352113,74.8309859 C44.1830986,74.9812255 42.9061129,75.1690069 41.7042254,75.3943734 C40.5023378,75.6197255 39.3004791,75.8826339 38.0985915,76.1830986 C37.7981269,74.8309859 37.4976478,73.4037607 37.1971831,71.9014085 C36.8967184,70.3990562 36.6713663,68.8216059 36.5211268,67.1690141 C36.2206621,65.5164223 35.99531,63.8263031 35.8450704,62.0985843 C35.6948309,60.37088 35.6197183,58.6807608 35.6197183,57.028169 L52.971831,57.028169 Z M52.971831,98.943662 C51.7699434,98.6431915 50.5305285,97.967141 49.2535283,96.915493 C47.9765138,95.863845 46.7370988,94.5117453 45.5352113,92.8591549 C44.3333237,91.3567998 43.1690213,89.5164425 42.0422607,87.338021 C40.9154857,85.1596124 39.9765354,82.7183243 39.2253521,80.0140845 C40.2770001,79.7136198 41.36619,79.4507114 42.492965,79.2253449 C43.6197255,78.9999928 44.7840279,78.8122114 45.9859155,78.6619718 C47.187803,78.5117323 48.3896617,78.3990634 49.5915493,78.3239365 C50.7934368,78.2488239 51.920183,78.2112676 52.971831,78.2112676 L52.971831,98.943662 Z M57.028169,78.2112676 C58.079817,78.2112676 59.2065632,78.2488239 60.4084507,78.3239365 C61.6103383,78.3990634 62.812197,78.5117323 64.0140845,78.6619718 C65.0657325,78.8122114 66.1549224,78.9999928 67.2816974,79.2253449 C68.4084579,79.4507114 69.5727603,79.7136198 70.7746479,80.0140845 C69.8732394,82.5680847 68.8967184,84.9342603 67.8450704,87.1126833 C66.7934224,89.2910904 65.6666763,91.2065646 64.4647887,92.8591549 C63.2629012,94.5117453 62.0234862,95.8262858 60.7464717,96.8028169 C59.4694715,97.779348 58.2300566,98.4929549 57.028169,98.943662 L57.028169,78.2112676 Z M57.028169,57.028169 L74.1549296,57.028169 C74.1549296,58.6807608 74.079817,60.37088 73.9295775,62.0985843 C73.7793379,63.8263031 73.6291128,65.5164223 73.4788732,67.1690141 C73.3286337,68.8216059 73.1032816,70.3990562 72.8028169,71.9014085 C72.5023522,73.4037607 72.1267606,74.8309859 71.6760563,76.1830986 C70.4741688,75.8826339 69.2723101,75.6197255 68.0704225,75.3943734 C66.868535,75.1690069 65.6666763,74.9812255 64.4647887,74.8309859 C63.2629012,74.6807464 62.0234862,74.5680775 60.7464717,74.492965 C59.4694715,74.417838 58.2300566,74.3802817 57.028169,74.3802817 L57.028169,57.028169 Z M99.1690141,57.028169 C99.0187745,59.4319441 98.7183099,61.7981052 98.2676056,64.1267678 C97.8169014,66.4554159 97.1408451,68.7464645 96.2394366,71 C95.3380282,73.2535355 94.2863946,75.3568027 93.084507,77.3098592 C91.8826195,79.2629156 90.6056338,81.1408306 89.2535211,82.943662 C88.0516336,82.3427182 86.9248874,81.7793451 85.8732394,81.2535283 C84.8215914,80.7276971 83.6948453,80.2394366 82.4929577,79.7887324 C81.2910702,79.3380282 80.1267678,78.8873239 79.0000072,78.4366197 C77.8732322,77.9859155 76.7089298,77.6103238 75.5070423,77.3098592 C75.8075069,75.8075069 76.1455423,74.2300566 76.5211195,72.5774648 C76.8967112,70.924873 77.1596196,69.2723101 77.3098592,67.6197183 C77.4600987,65.816887 77.6103238,64.0516552 77.7605634,62.3239509 C77.9108029,60.5962321 77.9859155,58.8310003 77.9859155,57.028169 L99.1690141,57.028169 Z M77.9859155,52.971831 C77.9859155,51.1689997 77.9108029,49.4037679 77.7605634,47.6760491 C77.6103238,45.9483448 77.4600987,44.183113 77.3098592,42.3802817 C77.1596196,40.7276899 76.8967112,39.075127 76.5211195,37.4225352 C76.1455423,35.7699434 75.8075069,34.1924931 75.5070423,32.6901408 C76.7089298,32.3896762 77.8732322,32.0140845 79.0000072,31.5633803 C80.1267678,31.1126761 81.2910702,30.6619718 82.4929577,30.2112676 C83.6948453,29.7605634 84.8215914,29.2723029 85.8732394,28.7464717 C86.9248874,28.2206549 88.0516336,27.6572818 89.2535211,27.056338 C90.6056338,28.7089298 91.8826195,30.5492886 93.084507,32.577472 C94.2863946,34.605641 95.3380282,36.7464645 96.2394366,39 C97.1408451,41.2535355 97.8169014,43.5445841 98.2676056,45.8732322 C98.7183099,48.2018948 99.0187745,50.5680703 99.1690141,52.971831 L77.9859155,52.971831 Z M83.5070495,25.4788732 C82.530514,25.9295775 81.5915493,26.3802817 80.6901408,26.8309859 C79.6384928,27.2816901 78.5868593,27.6948381 77.5352113,28.0704297 C76.4835633,28.446007 75.4319297,28.7840424 74.3802817,29.084507 C73.7793379,27.2816757 73.1784086,25.5540002 72.5774648,23.9014085 C71.976521,22.2488167 71.2253521,20.6713663 70.3239437,19.1690141 C69.5727603,17.8169014 68.7840352,16.5399157 67.9577393,15.3380282 C67.1314578,14.1361406 66.2676056,13.0093945 65.3661972,11.9577465 C67.3192536,12.4084507 69.2722957,13.0469508 71.2253521,13.8732322 C73.1784086,14.6995281 75.0563236,15.5633803 76.8591549,16.4647887 C78.6619863,17.5164367 80.3521055,18.6807392 81.9295703,19.9577537 C83.5070495,21.2347538 85.0469435,22.6244083 86.5492958,24.1267606 C85.4976478,24.5774648 84.4835705,25.028169 83.5070495,25.4788732 Z M41.8168942,15.3380282 C40.9906127,16.5399157 40.2018875,17.8169014 39.4507042,19.1690141 C38.6995209,20.6713663 37.9859227,22.2488167 37.3098519,23.9014085 C36.6337956,25.5540002 35.99531,27.2816757 35.3943662,29.084507 C34.3427182,28.6338028 33.3286409,28.2582112 32.3521055,27.9577465 C31.3755845,27.6572818 30.3615072,27.2816901 29.3098592,26.8309859 C28.2582112,26.3802817 27.2816901,25.9295775 26.3802817,25.4788732 C25.4788732,25.028169 24.5023522,24.5774648 23.4507042,24.1267606 C24.9530565,22.6244083 26.4929505,21.2347538 28.0704297,19.9577537 C29.6478945,18.6807392 31.3380137,17.5915493 33.1408451,16.6901408 C34.9436764,15.6384928 36.7840352,14.7370988 38.6619646,13.9859155 C40.5399085,13.2347322 42.5305068,12.5586903 44.6338028,11.9577465 C43.5821548,13.0093945 42.6431901,14.1361406 41.8168942,15.3380282 Z M26.2676128,84.5211268 C27.2441339,84.0704225 28.2582112,83.6197183 29.3098592,83.1690141 C30.3615072,82.7183099 31.3755845,82.3051619 32.3521055,81.9295703 C33.3286409,81.553993 34.3427182,81.2159576 35.3943662,80.915493 C35.99531,82.7183243 36.6337956,84.4459998 37.3098519,86.0985915 C37.9859227,87.7511833 38.6995209,89.3286308 39.4507042,90.8309859 C40.2018875,92.1831058 40.9906127,93.4600886 41.8168942,94.6619718 C42.6431901,95.8638551 43.5821548,96.9906055 44.6338028,98.0422535 C42.5305068,97.4413112 40.5399085,96.7652621 38.6619646,96.0140845 C36.7840352,95.262907 34.9436764,94.3615072 33.1408451,93.3098592 C31.3380137,92.4084464 29.6478945,91.3192551 28.0704297,90.0422535 C26.4929505,88.765252 24.9530565,87.3755917 23.4507042,85.8732394 C24.3521127,85.4225352 25.2910774,84.971831 26.2676128,84.5211268 Z M67.9577393,94.6619718 C68.7840352,93.4600886 69.5727603,92.1831058 70.3239437,90.8309859 C71.2253521,89.3286308 71.976521,87.7511833 72.5774648,86.0985915 C73.1784086,84.4459998 73.7793379,82.7183243 74.3802817,80.915493 C75.4319297,81.2159576 76.4835633,81.553993 77.5352113,81.9295703 C78.5868593,82.3051619 79.6384928,82.7183099 80.6901408,83.1690141 C81.5915493,83.6197183 82.530514,84.0704225 83.5070495,84.5211268 C84.4835705,84.971831 85.4976478,85.4225352 86.5492958,85.8732394 C85.0469435,87.3755917 83.5070495,88.765252 81.9295703,90.0422535 C80.3521055,91.3192551 78.6619863,92.4835633 76.8591549,93.5352113 C75.0563236,94.436624 73.1784086,95.262907 71.2253521,96.0140845 C69.2722957,96.7652621 67.3192536,97.4413112 65.3661972,98.0422535 C66.2676056,96.9906055 67.1314578,95.8638551 67.9577393,94.6619718 Z" id="Page-1" fill="#FFFFFF"></path>
            </g>
        </g>
    </g>
</svg>