<?xml version="1.0" encoding="UTF-8"?>
<svg width="110px" height="110px" viewBox="0 0 110 110" version="1.1" xmlns="http://www.w3.org/2000/svg" xmlns:xlink="http://www.w3.org/1999/xlink">
    <!-- Generator: Sketch 40 (33762) - http://www.bohemiancoding.com/sketch -->
    <title>catalogos/modificacion-budget</title>
    <desc>Created with Sketch.</desc>
    <defs>
        <circle id="path-1" cx="55" cy="55" r="55"></circle>
        <mask id="mask-2" maskContentUnits="userSpaceOnUse" maskUnits="objectBoundingBox" x="0" y="0" width="110" height="110" fill="white">
            <use xlink:href="#path-1"></use>
        </mask>
    </defs>
    <g id="IMM-desktop" stroke="none" stroke-width="1" fill="none" fill-rule="evenodd">
        <g id="catalogos/modificacion-budget">
            <use id="Oval-4" stroke="#CCCCCC" mask="url(#mask-2)" stroke-width="4" fill="#FFFFFF" xlink:href="#path-1"></use>
            <circle id="Oval-4-Copy" fill="#1BBC9C" cx="55" cy="55" r="50"></circle>
            <g id="Group-29" transform="translate(18.000000, 33.000000)">
                <path d="M12.5259272,15.789001 C11.2672427,16.5767507 9.77830174,17.0322581 8.18269231,17.0322581 C3.66351613,17.0322581 0,13.3783239 0,8.87096774 C0,4.36361156 3.66351613,0.709677419 8.18269231,0.709677419 C12.7018685,0.709677419 16.3653846,4.36361156 16.3653846,8.87096774 C16.3653846,9.04876878 16.359684,9.22524184 16.3484551,9.40021503 C21.0981604,13.5350281 35.5769231,21.2903226 35.5769231,21.2903226 L71.1538462,41.516129 L73.6442308,43.6451613 C73.6442308,43.6451613 67.2403846,44.7096774 56.5673077,41.1612903 C45.8942308,37.6129032 33.0865385,29.4516129 33.0865385,29.4516129 C33.0865385,29.4516129 32.375,25.5483871 29.1730769,22.3548387 C25.9711538,19.1612903 19.2115385,15.9677419 16.0096154,15.9677419 C14.9601466,15.9677419 13.7195801,15.8915028 12.5259272,15.789001 Z M8.18269231,14.1935484 C11.1299811,14.1935484 13.5192308,11.8105479 13.5192308,8.87096774 C13.5192308,5.93138762 11.1299811,3.5483871 8.18269231,3.5483871 C5.2354035,3.5483871 2.84615385,5.93138762 2.84615385,8.87096774 C2.84615385,11.8105479 5.2354035,14.1935484 8.18269231,14.1935484 Z" id="Combined-Shape-Copy-9" fill="#DDDDDD" transform="translate(36.822115, 22.252268) scale(1, -1) translate(-36.822115, -22.252268) "></path>
                <path d="M12.5259272,15.0793236 C11.2672427,15.8670733 9.77830174,16.3225806 8.18269231,16.3225806 C3.66351613,16.3225806 0,12.6686465 0,8.16129032 C0,3.65393414 3.66351613,0 8.18269231,0 C12.7018685,0 16.3653846,3.65393414 16.3653846,8.16129032 C16.3653846,8.33909136 16.359684,8.51556442 16.3484551,8.69053761 C21.0981604,12.8253507 35.5769231,20.5806452 35.5769231,20.5806452 L71.1538462,40.8064516 L73.6442308,42.9354839 C73.6442308,42.9354839 67.2403846,44 56.5673077,40.4516129 C45.8942308,36.9032258 33.0865385,28.7419355 33.0865385,28.7419355 C33.0865385,28.7419355 32.375,24.8387097 29.1730769,21.6451613 C25.9711538,18.4516129 19.2115385,15.2580645 16.0096154,15.2580645 C14.9601466,15.2580645 13.7195801,15.1818253 12.5259272,15.0793236 Z M8.18269231,13.483871 C11.1299811,13.483871 13.5192308,11.1008704 13.5192308,8.16129032 C13.5192308,5.2217102 11.1299811,2.83870968 8.18269231,2.83870968 C5.2354035,2.83870968 2.84615385,5.2217102 2.84615385,8.16129032 C2.84615385,11.1008704 5.2354035,13.483871 8.18269231,13.483871 Z" id="Combined-Shape" fill="#FFFFFF"></path>
                <ellipse id="Oval-14" fill="#BBBBBB" cx="33.5039336" cy="22.5" rx="1.50393357" ry="1.5"></ellipse>
            </g>
        </g>
    </g>
</svg>