<?xml version="1.0" encoding="UTF-8"?>
<svg width="110px" height="110px" viewBox="0 0 110 110" version="1.1" xmlns="http://www.w3.org/2000/svg" xmlns:xlink="http://www.w3.org/1999/xlink">
    <!-- Generator: Sketch 41 (35326) - http://www.bohemiancoding.com/sketch -->
    <title>catalogos/organizacion</title>
    <desc>Created with Sketch.</desc>
    <defs>
        <circle id="path-1" cx="55" cy="55" r="55"></circle>
        <mask id="mask-2" maskContentUnits="userSpaceOnUse" maskUnits="objectBoundingBox" x="0" y="0" width="110" height="110" fill="white">
            <use xlink:href="#path-1"></use>
        </mask>
    </defs>
    <g id="IMM-desktop" stroke="none" stroke-width="1" fill="none" fill-rule="evenodd">
        <g id="catalogos/organizacion">
            <use id="Oval-4" stroke="#CCCCCC" mask="url(#mask-2)" stroke-width="4" fill="#FFFFFF" xlink:href="#path-1"></use>
            <circle id="Oval-4-Copy" fill="#50667E" cx="56" cy="55" r="50"></circle>
            <g id="Group-47" transform="translate(26.000000, 26.000000)">
                <polygon id="Triangle-5" stroke="#000000" opacity="0.400000006" points="29.2735849 6.01886792 52.8930818 42.3144654 5.65408805 42.3144654"></polygon>
                <path d="M29.5,42.5 L29.5,6.5" id="Line" stroke="#000000" stroke-dasharray="1" opacity="0.3"></path>
                <path d="M29.5,42.5 L17.5,24.5" id="Line" stroke="#000000" stroke-dasharray="1" opacity="0.3"></path>
                <path d="M29.5,42.5 L40.5,25.5" id="Line" stroke="#000000" stroke-dasharray="1" opacity="0.3"></path>
                <path d="M46.509434,45.5974843 C46.509434,45.5289061 46.5132603,45.4412797 46.520913,45.3346026 C46.5285658,45.2279254 46.5696988,45.0536251 46.6443132,44.8116965 C46.7189277,44.5697679 46.823195,44.3821333 46.9571184,44.2487868 C47.0872153,44.1192504 47.3397528,43.9773341 47.7147382,43.8230321 C48.0897234,43.6687316 48.5154025,43.5058609 48.9917865,43.3344156 C49.4681705,43.1629703 49.8192359,43.0201016 50.044993,42.9058037 C50.3281448,42.768648 50.5462452,42.5600588 50.6993002,42.2800315 C50.8523567,42.0000042 50.928882,41.7114082 50.928882,41.4142361 C50.928882,41.2046915 50.8083534,40.9646712 50.5672918,40.6941695 C50.4257152,40.5265338 50.3032735,40.2979425 50.199961,40.0083911 C49.859413,39.8674243 49.6891405,39.5835904 49.6891405,39.1568819 C49.6891405,38.8406601 49.7446236,38.6120702 49.8555884,38.4711035 C49.8249765,38.2577492 49.79054,37.9434381 49.7522759,37.5281585 C49.7446236,37.4672 49.7360149,37.3862408 49.7264481,37.2852781 C49.7168828,37.1843169 49.7264481,37.0119207 49.7551455,36.7680879 C49.7838443,36.5242536 49.8441086,36.318523 49.9359413,36.1508873 C50.081344,35.8956241 50.2659645,35.7194182 50.4898071,35.6222666 C50.7136511,35.5251136 50.8963585,35.5070164 51.0379337,35.5679749 C51.0417598,35.5679749 51.0436743,35.5660701 51.0436743,35.5622605 C51.0513266,35.5241612 51.0685441,35.4736806 51.0953299,35.4108172 C51.1221142,35.3479538 51.1775958,35.2641374 51.2617763,35.1593651 C51.3459567,35.0545928 51.4435286,34.9736337 51.5544934,34.9164862 C51.6157157,34.8860062 51.7151991,34.8621945 51.8529496,34.8450511 C51.9906987,34.8279063 52.1581002,34.8260015 52.3551599,34.8393352 C52.5522182,34.8526704 52.7569258,34.8821965 52.96929,34.9279151 C53.1816542,34.9736337 53.3940155,35.0564976 53.6063797,35.17651 C53.818744,35.2965223 54.0091036,35.444153 54.1774645,35.6194094 C54.3458255,35.7946644 54.4845296,36.0261115 54.5935813,36.3137595 C54.702633,36.601406 54.7590712,36.9281013 54.7628987,37.2938513 C54.7667249,37.3738595 54.7667249,37.45196 54.7628987,37.5281585 C54.7322869,37.8786699 54.6959373,38.192981 54.653847,38.4711035 C54.7648118,38.6120702 54.8202934,38.8406601 54.8202934,39.1568819 C54.8202934,39.5835904 54.6500224,39.8674243 54.3094744,40.0083911 C54.2061619,40.2979425 54.0837188,40.5265338 53.9421436,40.6941695 C53.7010806,40.9646712 53.580552,41.2046915 53.580552,41.4142361 C53.580552,41.7114082 53.6570787,42.0000042 53.8101337,42.2800315 C53.9631887,42.5600588 54.1812892,42.768648 54.464441,42.9058037 C54.6901981,43.0201016 55.0412635,43.1629703 55.5176475,43.3344156 C55.9940329,43.5058609 56.4206671,43.6687316 56.7975661,43.8230321 C57.1744652,43.9773341 57.4279587,44.1192504 57.5580555,44.2487868 C57.6919799,44.3821333 57.7952895,44.5611958 57.8679916,44.7859798 C57.9406922,45.0107639 57.9808694,45.2031609 57.9885216,45.3631767 L58,45.5974843 L46.509434,45.5974843 Z" id="Page-1" fill="#FEFEF5"></path>
                <path d="M0,45.5974843 C0,45.5289061 0.00382632485,45.4412797 0.0114790877,45.3346026 C0.019131852,45.2279254 0.0602648357,45.0536251 0.134879288,44.8116965 C0.209493754,44.5697679 0.313761044,44.3821333 0.44768442,44.2487868 C0.577781384,44.1192504 0.830318815,43.9773341 1.20530421,43.8230321 C1.58028945,43.6687316 2.00596855,43.5058609 2.48235253,43.3344156 C2.9587365,43.1629703 3.3098019,43.0201016 3.53555901,42.9058037 C3.81871082,42.768648 4.03681128,42.5600588 4.18986627,42.2800315 C4.34292273,42.0000042 4.41944802,41.7114082 4.41944802,41.4142361 C4.41944802,41.2046915 4.29891944,40.9646712 4.05785786,40.6941695 C3.91628122,40.5265338 3.79383958,40.2979425 3.69052706,40.0083911 C3.34997908,39.8674243 3.17970655,39.5835904 3.17970655,39.1568819 C3.17970655,38.8406601 3.23518967,38.6120702 3.34615443,38.4711035 C3.31554255,38.2577492 3.28110602,37.9434381 3.2428419,37.5281585 C3.23518967,37.4672 3.2265809,37.3862408 3.21701414,37.2852781 C3.20744885,37.1843169 3.21701414,37.0119207 3.24571149,36.7680879 C3.27441031,36.5242536 3.33467461,36.318523 3.42650731,36.1508873 C3.57191006,35.8956241 3.75653053,35.7194182 3.9803731,35.6222666 C4.20421715,35.5251136 4.38692455,35.5070164 4.52849972,35.5679749 C4.53232584,35.5679749 4.53424037,35.5660701 4.53424037,35.5622605 C4.54189261,35.5241612 4.55911014,35.4736806 4.5858959,35.4108172 C4.61268019,35.3479538 4.66816184,35.2641374 4.7523423,35.1593651 C4.83652277,35.0545928 4.93409465,34.9736337 5.0450594,34.9164862 C5.1062817,34.8860062 5.20576516,34.8621945 5.34351568,34.8450511 C5.48126474,34.8279063 5.6486662,34.8260015 5.84572595,34.8393352 C6.04278424,34.8526704 6.24749182,34.8821965 6.45985604,34.9279151 C6.67222027,34.9736337 6.88458155,35.0564976 7.09694578,35.17651 C7.30931,35.2965223 7.49966964,35.444153 7.66803057,35.6194094 C7.83639151,35.7946644 7.97509562,36.0261115 8.08414732,36.3137595 C8.19319902,36.601406 8.24963719,36.9281013 8.25346478,37.2938513 C8.2572909,37.3738595 8.2572909,37.45196 8.25346478,37.5281585 C8.2228529,37.8786699 8.18650331,38.192981 8.14441308,38.4711035 C8.25537784,38.6120702 8.31085948,38.8406601 8.31085948,39.1568819 C8.31085948,39.5835904 8.14058843,39.8674243 7.80004045,40.0083911 C7.69672793,40.2979425 7.57428481,40.5265338 7.43270964,40.6941695 C7.1916466,40.9646712 7.07111801,41.2046915 7.07111801,41.4142361 C7.07111801,41.7114082 7.14764478,42.0000042 7.30069977,42.2800315 C7.45375476,42.5600588 7.67185522,42.768648 7.95500703,42.9058037 C8.18076414,43.0201016 8.53182953,43.1629703 9.00821351,43.3344156 C9.48459895,43.5058609 9.91123312,43.6687316 10.2881322,43.8230321 C10.6650312,43.9773341 10.9185247,44.1192504 11.0486215,44.2487868 C11.1825459,44.3821333 11.2858555,44.5611958 11.3585576,44.7859798 C11.4312583,45.0107639 11.4714354,45.2031609 11.4790877,45.3631767 L11.490566,45.5974843 L0,45.5974843 Z" id="Page-1-Copy-4" fill="#FEFEF5"></path>
                <path d="M35.0188679,27.3584906 C35.0188679,27.2899124 35.0226942,27.202286 35.030347,27.0956088 C35.0379998,26.9889317 35.0791328,26.8146314 35.1537472,26.5727028 C35.2283617,26.3307742 35.332629,26.1431395 35.4665523,26.0097931 C35.5966493,25.8802567 35.8491867,25.7383404 36.2241721,25.5840384 C36.5991574,25.4297379 37.0248365,25.2668672 37.5012205,25.0954219 C37.9776044,24.9239765 38.3286698,24.7811079 38.5544269,24.66681 C38.8375787,24.5296543 39.0556792,24.3210651 39.2087342,24.0410378 C39.3617907,23.7610105 39.4383159,23.4724145 39.4383159,23.1752424 C39.4383159,22.9656978 39.3177874,22.7256775 39.0767258,22.4551758 C38.9351491,22.2875401 38.8127075,22.0589488 38.709395,21.7693974 C38.368847,21.6284306 38.1985745,21.3445966 38.1985745,20.9178881 C38.1985745,20.6016664 38.2540576,20.3730765 38.3650224,20.2321098 C38.3344105,20.0187555 38.2999739,19.7044444 38.2617098,19.2891648 C38.2540576,19.2282063 38.2454488,19.1472471 38.2358821,19.0462844 C38.2263168,18.9453232 38.2358821,18.7729269 38.2645794,18.5290941 C38.2932782,18.2852599 38.3535425,18.0795293 38.4453752,17.9118936 C38.590778,17.6566304 38.7753985,17.4804245 38.999241,17.3832729 C39.2230851,17.2861199 39.4057925,17.2680227 39.5473676,17.3289812 C39.5511938,17.3289812 39.5531083,17.3270764 39.5531083,17.3232668 C39.5607605,17.2851675 39.5779781,17.2346869 39.6047638,17.1718235 C39.6315481,17.1089601 39.6870298,17.0251437 39.7712102,16.9203714 C39.8553907,16.8155991 39.9529626,16.73464 40.0639273,16.6774925 C40.1251496,16.6470125 40.2246331,16.6232008 40.3623836,16.6060574 C40.5001327,16.5889126 40.6675341,16.5870078 40.8645939,16.6003415 C41.0616522,16.6136767 41.2663597,16.6432028 41.478724,16.6889214 C41.6910882,16.73464 41.9034495,16.8175039 42.1158137,16.9375162 C42.3281779,17.0575286 42.5185376,17.2051593 42.6868985,17.3804157 C42.8552594,17.5556707 42.9939635,17.7871178 43.1030152,18.0747658 C43.2120669,18.3624123 43.2685051,18.6891076 43.2723327,19.0548576 C43.2761588,19.1348658 43.2761588,19.2129663 43.2723327,19.2891648 C43.2417208,19.6396762 43.2053712,19.9539873 43.163281,20.2321098 C43.2742458,20.3730765 43.3297274,20.6016664 43.3297274,20.9178881 C43.3297274,21.3445966 43.1594564,21.6284306 42.8189084,21.7693974 C42.7155958,22.0589488 42.5931527,22.2875401 42.4515776,22.4551758 C42.2105145,22.7256775 42.0899859,22.9656978 42.0899859,23.1752424 C42.0899859,23.4724145 42.1665127,23.7610105 42.3195677,24.0410378 C42.4726227,24.3210651 42.6907231,24.5296543 42.973875,24.66681 C43.1996321,24.7811079 43.5506975,24.9239765 44.0270814,25.0954219 C44.5034669,25.2668672 44.930101,25.4297379 45.3070001,25.5840384 C45.6838991,25.7383404 45.9373926,25.8802567 46.0674895,26.0097931 C46.2014139,26.1431395 46.3047234,26.3222021 46.3774256,26.5469861 C46.4501262,26.7717702 46.4903034,26.9641672 46.4979556,27.124183 L46.509434,27.3584906 L35.0188679,27.3584906 Z" id="Page-1-Copy-6" fill="#FEFEF5"></path>
                <path d="M21.8867925,47.0423555 C21.8867925,46.9568598 21.8915421,46.8464295 21.9010417,46.7110613 C21.9105412,46.5756931 21.9627878,46.3560199 22.057783,46.052035 C22.1527783,45.7480505 22.2833948,45.5105658 22.4496365,45.3395743 C22.6111284,45.1733328 22.9293576,44.9916579 23.4043336,44.7945418 C23.8793095,44.5974275 24.4183994,44.3896288 25.0216195,44.1711384 C25.6248396,43.9526499 26.0689353,43.7721623 26.3539214,43.6296683 C26.667406,43.4681766 26.9203261,43.2378163 27.1126909,42.9385819 C27.3050576,42.6393475 27.4202369,42.3234919 27.458236,41.9910096 L26.2755503,41.9910096 C26.2565508,41.9055143 26.2328036,41.7903333 26.2043052,41.6454664 C26.1758049,41.5005977 26.1283087,41.212055 26.0618112,40.7798255 C25.9953155,40.3475979 25.9383186,39.9272492 25.8908206,39.5187706 C25.8433245,39.1102919 25.8088892,38.6424471 25.787515,38.1152235 C25.7661407,37.5879998 25.7697028,37.1142182 25.7982012,36.6938642 C25.8266996,36.2735101 25.8991321,35.8780978 26.0155024,35.5076164 C26.1318708,35.137135 26.2921733,34.8616533 26.4964136,34.681162 C26.6769048,34.4959213 26.8799541,34.3712432 27.1055668,34.3071204 C27.3311813,34.2429994 27.4962333,34.2441867 27.6007263,34.3106825 C27.610227,34.3106825 27.6173511,34.3083077 27.6221006,34.3035583 C27.6221006,34.2893082 27.633976,34.2513109 27.6577231,34.1895646 C27.7812175,33.8618318 27.9830794,33.6290967 28.2633161,33.4913522 C28.4343067,33.4011075 28.7359121,33.3631102 29.1681416,33.3773585 C29.1871394,33.3773585 29.2203872,33.3785477 29.2678852,33.3809224 C29.3153832,33.3832971 29.3486311,33.3844845 29.3676288,33.3844845 L29.3890031,33.3844845 C29.6312406,33.4034822 29.9043495,33.4557296 30.2083333,33.5412249 C30.4695704,33.6172213 30.7118043,33.7145902 30.9350442,33.8333333 C31.1582821,33.9520783 31.3850804,34.1218797 31.6154425,34.342743 C31.8458065,34.5636081 32.0393569,34.8200903 32.1960991,35.1122005 C32.3528414,35.4043108 32.4739574,35.7712246 32.5594527,36.212953 C32.6449498,36.6546813 32.6734482,37.1438986 32.6449498,37.6806229 C32.6117001,38.3313391 32.5665787,38.9250512 32.5095818,39.4617737 C32.452585,39.9984962 32.3979628,40.4164701 32.3457154,40.7157045 C32.293468,41.0149389 32.2424097,41.2666735 32.192537,41.4709119 C32.1426643,41.6751522 32.1034797,41.8128931 32.0749813,41.8841401 L32.0251086,41.9910096 L30.8424229,41.9910096 C30.880422,42.3282431 30.9944139,42.6452843 31.184404,42.942144 C31.3743942,43.2390036 31.6261287,43.4681766 31.9396133,43.6296683 C32.2245994,43.7721623 32.6686952,43.9526499 33.2719152,44.1711384 C33.8751335,44.3896288 34.4154108,44.5974275 34.8927617,44.7945418 C35.3701126,44.9916579 35.6895303,45.1733328 35.851022,45.3395743 C36.0172631,45.5105658 36.1478799,45.7373635 36.2428758,46.0199743 C36.33787,46.3025852 36.3901174,46.5436321 36.3996163,46.743122 L36.4138664,47.0423555 L21.8867925,47.0423555 Z" id="Page-1" fill="#FEFEF5"></path>
                <path d="M11.490566,27.1761006 C11.490566,27.1076328 11.4943826,27.0191964 11.5020157,26.9107889 C11.5096489,26.8023815 11.5516307,26.6264597 11.6279623,26.3830182 C11.7042939,26.139577 11.8092484,25.9493912 11.9428287,25.8124553 C12.0725925,25.6793235 12.3282996,25.533832 12.7099576,25.3759746 C13.0916155,25.2181188 13.524791,25.0517065 14.0094971,24.876732 C14.4942032,24.7017589 14.851048,24.5572182 15.0800432,24.4431042 C15.3319378,24.3137761 15.535167,24.1292957 15.6897381,23.8896586 C15.8443107,23.6500215 15.9368608,23.3970735 15.9673943,23.1308104 L15.0170695,23.1308104 C15.0018028,23.0623428 14.9827212,22.9701019 14.9598218,22.8540876 C14.936921,22.7380718 14.8987564,22.5069969 14.8453235,22.1608528 C14.7918921,21.8147101 14.7460934,21.4780806 14.7079273,21.1509569 C14.6697626,20.8238332 14.6420929,20.4491672 14.624918,20.0269485 C14.6077431,19.6047298 14.6106053,19.2253093 14.6335047,18.8886754 C14.656404,18.5520415 14.7146058,18.2353818 14.8081129,17.9386877 C14.9016186,17.6419936 15.0304267,17.4213783 15.1945401,17.2768348 C15.3395704,17.1284877 15.5027268,17.0286412 15.6840136,16.9772895 C15.8653019,16.9259392 15.9979263,16.9268901 16.0818897,16.9801421 C16.0895238,16.9801421 16.0952483,16.9782403 16.0990646,16.9744368 C16.0990646,16.9630249 16.1086068,16.9325953 16.1276884,16.8831468 C16.22692,16.6206871 16.3891223,16.434305 16.6143012,16.3239945 C16.7516975,16.2517234 16.9940468,16.2212939 17.3413567,16.2327044 C17.356622,16.2327044 17.3833376,16.2336567 17.4215038,16.2355585 C17.4596699,16.2374602 17.4863856,16.2384111 17.5016508,16.2384111 L17.5188257,16.2384111 C17.7134711,16.2536252 17.9329226,16.2954667 18.1771831,16.3639342 C18.3870952,16.4247947 18.5817377,16.5027711 18.7611178,16.5978646 C18.9404965,16.6929597 19.1227359,16.8289424 19.3078391,17.0058172 C19.4929437,17.1826936 19.6484675,17.3880933 19.7744147,17.6220251 C19.900362,17.855957 19.9976825,18.1497941 20.0663807,18.5035453 C20.1350802,18.8572964 20.1579796,19.2490783 20.1350802,19.6789055 C20.1083631,20.2000213 20.0721066,20.6754862 20.0263079,21.1053119 C19.9805091,21.5351376 19.9366185,21.8698654 19.8946361,22.1095025 C19.8526537,22.3491396 19.8116268,22.5507373 19.7715525,22.7142984 C19.7314782,22.877861 19.6999921,22.9881686 19.6770928,23.0452256 L19.6370185,23.1308104 L18.6866938,23.1308104 C18.7172272,23.4008785 18.8088233,23.6547759 18.9614863,23.8925112 C19.1141492,24.1302466 19.3164258,24.3137761 19.5683204,24.4431042 C19.7973156,24.5572182 20.1541604,24.7017589 20.6388665,24.876732 C21.1235711,25.0517065 21.5577007,25.2181188 21.941267,25.3759746 C22.3248334,25.533832 22.5814954,25.6793235 22.711259,25.8124553 C22.8448389,25.9493912 22.9497936,26.1310185 23.0261258,26.3573429 C23.1024565,26.5836673 23.144439,26.7767059 23.1520716,26.9364642 L23.163522,27.1761006 L11.490566,27.1761006 Z" id="Page-1-Copy-5" fill="#FEFEF5"></path>
                <path d="M23.3459119,10.9433962 C23.3459119,10.8749283 23.3497285,10.786492 23.3573616,10.6780845 C23.3649948,10.5696771 23.4069766,10.3937553 23.4833082,10.1503138 C23.5596398,9.90687257 23.6645943,9.71668675 23.7981746,9.57975094 C23.9279384,9.44661907 24.1836455,9.30112755 24.5653035,9.14327025 C24.9469614,8.9854144 25.3801369,8.81900212 25.864843,8.64402757 C26.3495491,8.46905447 26.7063939,8.32451383 26.9353891,8.2103998 C27.1872837,8.08107173 27.3905129,7.89659133 27.545084,7.6569542 C27.6996566,7.41731707 27.7922067,7.16436912 27.8227402,6.89810597 L26.8724155,6.89810597 C26.8571487,6.82963843 26.8380671,6.7373975 26.8151678,6.62138317 C26.7922669,6.50536739 26.7541023,6.27429254 26.7006694,5.92814839 C26.647238,5.58200571 26.6014393,5.24537619 26.5632732,4.91825251 C26.5251085,4.59112884 26.4974388,4.21646276 26.4802639,3.79424406 C26.463089,3.37202536 26.4659512,2.9926049 26.4888506,2.65597099 C26.51175,2.31933708 26.5699517,2.00267744 26.6634589,1.70598329 C26.7569645,1.40928915 26.8857726,1.18867395 27.049886,1.04413038 C27.1949163,0.895783312 27.3580727,0.795936821 27.5393595,0.744585069 C27.7206478,0.693234778 27.8532722,0.694185655 27.9372356,0.747437701 C27.9448697,0.747437701 27.9505942,0.745535946 27.9544105,0.741732438 C27.9544105,0.73032045 27.9639527,0.699890918 27.9830343,0.650442381 C28.0822659,0.387982739 28.2444682,0.201600578 28.4696471,0.0912900563 C28.6070434,0.0190190052 28.8493927,-0.0114105267 29.1967026,1.25767452e-16 C29.2119679,1.25767452e-16 29.2386836,0.000952337867 29.2768497,0.00285409232 C29.3150158,0.00475584677 29.3417315,0.005706724 29.3569967,0.005706724 L29.3741716,0.005706724 C29.568817,0.0209207596 29.7882685,0.0627622789 30.032529,0.131229821 C30.2424411,0.192090345 30.4370836,0.27006666 30.6164637,0.365160225 C30.7958424,0.460255251 30.9780819,0.596237997 31.163185,0.773112847 C31.3482896,0.949989157 31.5038134,1.15538886 31.6297607,1.38932073 C31.7557079,1.62325259 31.8530284,1.91708972 31.9217266,2.27084088 C31.9904262,2.62459204 32.0133255,3.01637391 31.9904262,3.44620109 C31.963709,3.96731686 31.9274525,4.44278177 31.8816538,4.87260748 C31.835855,5.3024332 31.7919644,5.63716098 31.749982,5.8767981 C31.7079996,6.11643523 31.6669727,6.31803289 31.6268984,6.481594 C31.5868241,6.64515656 31.5553381,6.75546416 31.5324387,6.81252118 L31.4923644,6.89810597 L30.5420397,6.89810597 C30.5725732,7.16817409 30.6641692,7.42207146 30.8168322,7.65980683 C30.9694951,7.89754221 31.1717717,8.08107173 31.4236663,8.2103998 C31.6526615,8.32451383 32.0095063,8.46905447 32.4942124,8.64402757 C32.978917,8.81900212 33.4130466,8.9854144 33.796613,9.14327025 C34.1801793,9.30112755 34.4368413,9.44661907 34.5666049,9.57975094 C34.7001849,9.71668675 34.8051395,9.89831409 34.8814717,10.1246385 C34.9578024,10.3509629 34.9997849,10.5440015 35.0074175,10.7037598 L35.0188679,10.9433962 L23.3459119,10.9433962 Z" id="Page-1-Copy-7" fill="#FEFEF5"></path>
                <path d="M29,53.8050314 C35.9504515,53.8050314 41.5849057,48.1705773 41.5849057,41.2201258 C41.5849057,34.2696743 35.9504515,28.6352201 29,28.6352201 C22.0495485,28.6352201 16.4150943,34.2696743 16.4150943,41.2201258 C16.4150943,48.1705773 22.0495485,53.8050314 29,53.8050314 Z M29,52.3459119 C22.855398,52.3459119 17.8742138,47.3647278 17.8742138,41.2201258 C17.8742138,35.0755238 22.855398,30.0943396 29,30.0943396 C35.144602,30.0943396 40.1257862,35.0755238 40.1257862,41.2201258 C40.1257862,47.3647278 35.144602,52.3459119 29,52.3459119 Z" id="Oval-18" fill="#C96459"></path>
            </g>
        </g>
    </g>
</svg>