<?xml version="1.0" encoding="UTF-8"?>
<svg width="110px" height="110px" viewBox="0 0 110 110" version="1.1" xmlns="http://www.w3.org/2000/svg" xmlns:xlink="http://www.w3.org/1999/xlink">
    <!-- Generator: Sketch 40.3 (33839) - http://www.bohemiancoding.com/sketch -->
    <title>catalogos/pais-config</title>
    <desc>Created with Sketch.</desc>
    <defs>
        <circle id="path-1" cx="55" cy="55" r="55"></circle>
        <mask id="mask-2" maskContentUnits="userSpaceOnUse" maskUnits="objectBoundingBox" x="0" y="0" width="110" height="110" fill="white">
            <use xlink:href="#path-1"></use>
        </mask>
    </defs>
    <g id="IMM-desktop" stroke="none" stroke-width="1" fill="none" fill-rule="evenodd">
        <g id="catalogos/pais-config">
            <g id="Group-2-Copy-8">
                <use id="Oval-4" stroke="#CCCCCC" mask="url(#mask-2)" stroke-width="4" fill="#FFFFFF" xlink:href="#path-1"></use>
                <circle id="Oval-4-Copy" fill="#27B99A" cx="55" cy="55" r="50"></circle>
            </g>
            <path d="M81.9227255,57.2054682 C81.9227255,58.7583234 81.4603036,60.8685886 80.5354462,63.5363176 C78.6455368,68.871762 75.3382188,73.2017812 70.6134249,76.5264822 C65.8886309,79.8511831 60.6914306,81.5135135 55.0216751,81.5135135 C47.582635,81.5135135 41.2193412,78.8955923 35.9315912,73.659683 C30.6438412,68.4237736 28,62.1228651 28,54.7567568 C28,47.3906484 30.6438412,41.0897265 35.9315912,35.8538172 C41.2193412,30.6179078 47.582635,28 55.0216751,28 C57.3539159,28 59.7967024,28.3284793 62.3501021,28.9854514 C64.9035017,29.6424368 67.0648169,30.5681536 68.8341016,31.7626689 C69.4774742,32.2006503 69.7991537,32.7580738 69.7991537,33.4349662 C69.7991537,34.1118453 69.4774742,34.6692688 68.8341016,35.1072635 L51.1614397,45.2007684 L51.1614397,58.5791468 L62.8024719,64.9697038 C63.0035267,64.8502616 64.5918472,63.8847173 67.5674606,62.0730574 C70.543074,60.2613842 73.2673317,58.6488347 75.7403149,57.2353288 C78.2132845,55.8218362 79.6307065,55.1150966 79.9926078,55.1150966 C80.5957721,55.1150966 81.0682461,55.3141803 81.4100298,55.7123476 C81.7518269,56.1105149 81.9227255,56.6082173 81.9227255,57.2054682 L81.9227255,57.2054682 Z" id="Path" fill="#D8D8DA" transform="translate(54.961363, 54.756757) scale(-1, 1) translate(-54.961363, -54.756757) "></path>
            <path d="M81.9606198,98.7407759 L66.2615433,83.1858108 C70.2022223,81.6329557 73.6904774,79.3534673 76.7264166,76.3473055 C79.7623423,73.3411304 82.0643999,69.8870739 83.6326298,65.9850291 L99.118793,81.3291752 C94.9251569,88.4527741 81.9606198,98.7407759 81.9606198,98.7407759 Z" id="Combined-Shape" fill="#FFFFFF"></path>
        </g>
    </g>
</svg>