<?xml version="1.0" encoding="UTF-8"?>
<svg width="110px" height="110px" viewBox="0 0 110 110" version="1.1" xmlns="http://www.w3.org/2000/svg" xmlns:xlink="http://www.w3.org/1999/xlink">
    <!-- Generator: Sketch 40 (33762) - http://www.bohemiancoding.com/sketch -->
    <title>catalogos/pl</title>
    <desc>Created with Sketch.</desc>
    <defs>
        <circle id="path-1" cx="55" cy="55" r="55"></circle>
        <mask id="mask-2" maskContentUnits="userSpaceOnUse" maskUnits="objectBoundingBox" x="0" y="0" width="110" height="110" fill="white">
            <use xlink:href="#path-1"></use>
        </mask>
    </defs>
    <g id="IMM-desktop" stroke="none" stroke-width="1" fill="none" fill-rule="evenodd">
        <g id="d.dashboard-c-catalogos" transform="translate(-1010.000000, -93.000000)">
            <g id="catalogos/pl" transform="translate(1010.000000, 93.000000)">
                <use id="Oval-4" stroke="#CCCCCC" mask="url(#mask-2)" stroke-width="4" fill="#FFFFFF" xlink:href="#path-1"></use>
                <circle id="Oval-4-Copy" fill="#D9D7D3" cx="55" cy="55" r="50"></circle>
                <g id="Group-2" transform="translate(11.000000, 26.000000)">
                    <polygon id="Page-1" fill="#27B99A" transform="translate(42.000000, 20.000000) scale(-1, 1) translate(-42.000000, -20.000000) " points="32 0 22.3125 9.6875 37 25 53.71875 8.28125 77 40 53.71875 20 37 37.5 16.53125 15.46875 7 25 7 0"></polygon>
                    <polygon id="Page-1" fill="#FF6000" transform="translate(35.000000, 39.000000) scale(-1, 1) translate(-35.000000, -39.000000) " points="0 59 0 34 9.53125 43.53125 30 21.5 46.71875 39 70 19 46.71875 50.71875 30 34 15.3125 49.3125 25 59"></polygon>
                </g>
            </g>
        </g>
    </g>
</svg>