<?xml version="1.0" encoding="UTF-8"?>
<svg width="110px" height="110px" viewBox="0 0 110 110" version="1.1" xmlns="http://www.w3.org/2000/svg" xmlns:xlink="http://www.w3.org/1999/xlink">
    <!-- Generator: Sketch 42 (36781) - http://www.bohemiancoding.com/sketch -->
    <title>catalogos/profile</title>
    <desc>Created with Sketch.</desc>
    <defs>
        <circle id="path-1" cx="55" cy="55" r="55"></circle>
        <mask id="mask-2" maskContentUnits="userSpaceOnUse" maskUnits="objectBoundingBox" x="0" y="0" width="110" height="110" fill="white">
            <use xlink:href="#path-1"></use>
        </mask>
    </defs>
    <g id="IMM-desktop" stroke="none" stroke-width="1" fill="none" fill-rule="evenodd">
        <g id="catalogos/profile">
            <use id="Oval-4" stroke="#CCCCCC" mask="url(#mask-2)" stroke-width="4" fill="#FFFFFF" xlink:href="#path-1"></use>
            <circle id="Oval-4-Copy" fill="#FBE665" cx="55" cy="55" r="50"></circle>
            <g id="Group-41" transform="translate(30.000000, 23.000000)">
                <path d="M47.0034676,0 C48.6584067,-9.97767849e-17 50,1.32204033 50,2.95849645 L50,61.0415035 C50,62.675436 48.6626208,64 47.0034676,64 L2.99653242,64 C1.34159326,64 -7.10542736e-15,62.6779597 -7.10542736e-15,61.0415035 L-1.42108547e-14,2.95849645 C-1.42108547e-14,1.32456398 1.33737922,2.75322235e-15 2.99653242,2.6531915e-15 L47.0034676,0 Z M20,6 C20,7.11227036 20.8952581,8 21.999615,8 L28.000385,8 C29.1125667,8 30,7.1045695 30,6 C30,4.88772964 29.1047419,4 28.000385,4 L21.999615,4 C20.8874333,4 20,4.8954305 20,6 Z" id="Combined-Shape" fill="#FFFFFF"></path>
                <rect id="Rectangle-57" fill="#342A44" x="10" y="47" width="30" height="3"></rect>
                <path d="M10,42 C10,41.8437492 10.0095283,41.637588 10.028585,41.3815103 C10.0476418,41.1254327 10.1524526,40.7131103 10.3430205,40.1445313 C10.5335884,39.575952 10.8003793,39.1354183 11.1434016,38.8229167 C11.4768954,38.5190967 12.139109,38.1848967 13.130062,37.8203133 C14.1210132,37.4557267 15.2405845,37.0716167 16.4888058,36.66797 C17.7370235,36.26432 18.6517374,35.9279533 19.2329696,35.6588533 C19.9666529,35.32031 20.5359681,34.8255233 20.9409225,34.17448 C21.3458806,33.5234333 21.548356,32.8463567 21.548356,32.14323 C21.548356,31.6657967 21.2339224,31.1015667 20.6050515,30.45052 C19.9666456,29.7821133 19.4497403,28.8728367 19.0543099,27.7226567 C18.6588832,26.5724767 18.4611717,25.2465367 18.4611717,23.7447933 C18.4611717,22.6163133 18.6374458,21.61155 18.989994,20.73047 C19.3425459,19.8493867 19.8237222,19.1441 20.4335376,18.6145833 C21.0433567,18.0850667 21.7365361,17.6835967 22.5131016,17.4101567 C23.289667,17.1367167 24.1210059,17 25.007144,17 C25.8932857,17 26.7198608,17.1367167 27.4868984,17.4101567 C28.2539325,17.6835967 28.9447336,18.0850667 29.5593129,18.6145833 C30.1738958,19.1441 30.6574541,19.8493867 31.010006,20.73047 C31.3625542,21.61155 31.5388283,22.6163133 31.5388283,23.7447933 C31.5388283,25.2465367 31.3434987,26.5724767 30.9528322,27.7226567 C30.5621694,28.8728367 30.047646,29.7821133 29.4092437,30.45052 C28.7708378,31.1102467 28.451644,31.6744767 28.451644,32.14323 C28.451644,32.8376767 28.6565013,33.5125833 29.0662233,34.16797 C29.4759416,34.8233533 30.0476387,35.32031 30.7813256,35.6588533 C31.3625542,35.9279533 32.2772681,36.26432 33.5254894,36.66797 C34.7737071,37.0716167 35.8885108,37.4557267 36.8699372,37.8203133 C37.8513636,38.1848967 38.5088104,38.5190967 38.8423032,38.8229167 C39.1853273,39.1354183 39.4521185,39.556421 39.6426843,40.0859373 C39.8332536,40.615454 39.9380661,41.0668383 39.9571215,41.440104 L40,42 L10,42 Z" id="Page-1" fill="#342A44"></path>
                <rect id="Rectangle-57-Copy-10" fill="#342A44" x="10" y="53" width="30" height="3"></rect>
            </g>
        </g>
    </g>
</svg>