<?xml version="1.0" encoding="UTF-8"?>
<svg width="110px" height="110px" viewBox="0 0 110 110" version="1.1" xmlns="http://www.w3.org/2000/svg" xmlns:xlink="http://www.w3.org/1999/xlink">
    <!-- Generator: Sketch 40 (33762) - http://www.bohemiancoding.com/sketch -->
    <title>catalogos/subareas</title>
    <desc>Created with Sketch.</desc>
    <defs>
        <circle id="path-1" cx="55" cy="55" r="55"></circle>
        <mask id="mask-2" maskContentUnits="userSpaceOnUse" maskUnits="objectBoundingBox" x="0" y="0" width="110" height="110" fill="white">
            <use xlink:href="#path-1"></use>
        </mask>
    </defs>
    <g id="IMM-desktop" stroke="none" stroke-width="1" fill="none" fill-rule="evenodd">
        <g id="d.dashboard-c-catalogos" transform="translate(-442.000000, -43.000000)">
            <g id="catalogos/subareas" transform="translate(442.000000, 43.000000)">
                <use id="Oval-4" stroke="#CCCCCC" mask="url(#mask-2)" stroke-width="4" fill="#FFFFFF" xlink:href="#path-1"></use>
                <circle id="Oval-4-Copy" fill="#DB86BB" cx="55" cy="55" r="50"></circle>
                <path d="M80.7644552,29.2355448 C80.7800532,29.2508322 80.7956012,29.2662221 80.8110984,29.2817146 C80.8197437,29.2903574 80.8278517,29.2994831 80.8354256,29.3090885 C83.4508163,32.0617583 82.9494823,36.3132583 80.6444464,38.6182942 C78.2684328,40.9943078 75.8924192,40.1033027 74.4074107,41.5883112 C72.9224022,43.0733197 77.5259285,46.1918376 80.050443,48.716352 C82.5749575,51.2408665 90,54.8048869 90,54.8048869 C90,54.8048869 86.1389779,63.1209345 82.1294549,67.1304575 C78.1199319,71.1399805 77.080426,70.3974762 76.6349234,69.9519737 C76.1894209,69.5064711 74.7044124,65.3484473 73.2194039,63.8634388 C71.7343954,62.3784303 68.0218741,60.7449209 64.3833975,64.3833975 C60.7449209,68.0218741 62.3784303,71.7343954 63.8634388,73.2194039 C65.3484473,74.7044124 69.5064711,76.1894209 69.9519737,76.6349234 C70.3974762,77.080426 71.1399805,78.1199319 67.1304575,82.1294549 C63.1209345,86.1389779 54.8048869,90 54.8048869,90 C54.8048869,90 51.2408665,82.5749575 48.716352,80.050443 C46.1918376,77.5259285 43.0733197,72.9224022 41.5883112,74.4074107 C40.1033027,75.8924192 40.9943078,78.2684328 38.6182942,80.6444464 C36.3132583,82.9494823 32.0617583,83.4508163 29.3090885,80.8354256 C29.2994831,80.8278517 29.2903574,80.8197437 29.2817146,80.8110984 C29.2662221,80.7956012 29.2508322,80.7800532 29.2355448,80.7644552 C29.2199468,80.7491678 29.2043988,80.7337779 29.1889016,80.7182854 C29.1802563,80.7096426 29.1721483,80.7005169 29.1645744,80.6909115 C26.5491837,77.9382417 27.0505177,73.6867417 29.3555536,71.3817058 C31.7315672,69.0056922 34.1075808,69.8966973 35.5925893,68.4116888 C37.0775978,66.9266803 32.4740715,63.8081624 29.949557,61.283648 C27.4250425,58.7591335 20,55.1951131 20,55.1951131 C20,55.1951131 23.8610221,46.8790655 27.8705451,42.8695425 C31.8800681,38.8600195 32.919574,39.6025238 33.3650766,40.0480263 C33.8105791,40.4935289 35.2955876,44.6515527 36.7805961,46.1365612 C38.2656046,47.6215697 41.9781259,49.2550791 45.6166025,45.6166025 C49.2550791,41.9781259 47.6215697,38.2656046 46.1365612,36.7805961 C44.6515527,35.2955876 40.4935289,33.8105791 40.0480263,33.3650766 C39.6025238,32.919574 38.8600195,31.8800681 42.8695425,27.8705451 C46.8790655,23.8610221 55.1951131,20 55.1951131,20 C55.1951131,20 58.7591335,27.4250425 61.283648,29.949557 C63.8081624,32.4740715 66.9266803,37.0775978 68.4116888,35.5925893 C69.8966973,34.1075808 69.0056922,31.7315672 71.3817058,29.3555536 C73.6867417,27.0505177 77.9382417,26.5491837 80.6909115,29.1645744 C80.7005169,29.1721483 80.7096426,29.1802563 80.7182854,29.1889016 C80.7337779,29.2043988 80.7491678,29.2199468 80.7644552,29.2355448 L80.7644552,29.2355448 L80.7644552,29.2355448 Z" id="Combined-Shape" fill="#1B4752"></path>
            </g>
        </g>
    </g>
</svg>