<?xml version="1.0" encoding="UTF-8"?>
<svg width="110px" height="110px" viewBox="0 0 110 110" version="1.1" xmlns="http://www.w3.org/2000/svg" xmlns:xlink="http://www.w3.org/1999/xlink">
    <!-- Generator: Sketch 41 (35326) - http://www.bohemiancoding.com/sketch -->
    <title>catalogos/tipos</title>
    <desc>Created with Sketch.</desc>
    <defs>
        <circle id="path-1" cx="55" cy="55" r="55"></circle>
        <mask id="mask-2" maskContentUnits="userSpaceOnUse" maskUnits="objectBoundingBox" x="0" y="0" width="110" height="110" fill="white">
            <use xlink:href="#path-1"></use>
        </mask>
        <rect id="path-3" x="-6.48370246e-14" y="21" width="20" height="20" rx="4"></rect>
        <filter x="-50%" y="-50%" width="200%" height="200%" filterUnits="objectBoundingBox" id="filter-4">
            <feOffset dx="1" dy="1" in="SourceAlpha" result="shadowOffsetOuter1"></feOffset>
            <feColorMatrix values="0 0 0 0 0   0 0 0 0 0   0 0 0 0 0  0 0 0 0.2 0" type="matrix" in="shadowOffsetOuter1"></feColorMatrix>
        </filter>
        <rect id="path-5" x="21" y="21" width="20" height="20" rx="4"></rect>
        <filter x="-50%" y="-50%" width="200%" height="200%" filterUnits="objectBoundingBox" id="filter-6">
            <feOffset dx="1" dy="1" in="SourceAlpha" result="shadowOffsetOuter1"></feOffset>
            <feColorMatrix values="0 0 0 0 0   0 0 0 0 0   0 0 0 0 0  0 0 0 0.2 0" type="matrix" in="shadowOffsetOuter1"></feColorMatrix>
        </filter>
        <rect id="path-7" x="21" y="-7.46069873e-14" width="20" height="20" rx="4"></rect>
        <filter x="-50%" y="-50%" width="200%" height="200%" filterUnits="objectBoundingBox" id="filter-8">
            <feOffset dx="1" dy="1" in="SourceAlpha" result="shadowOffsetOuter1"></feOffset>
            <feColorMatrix values="0 0 0 0 0   0 0 0 0 0   0 0 0 0 0  0 0 0 0.2 0" type="matrix" in="shadowOffsetOuter1"></feColorMatrix>
        </filter>
        <rect id="path-9" x="21" y="42" width="20" height="20" rx="4"></rect>
        <filter x="-50%" y="-50%" width="200%" height="200%" filterUnits="objectBoundingBox" id="filter-10">
            <feOffset dx="1" dy="1" in="SourceAlpha" result="shadowOffsetOuter1"></feOffset>
            <feColorMatrix values="0 0 0 0 0   0 0 0 0 0   0 0 0 0 0  0 0 0 0.2 0" type="matrix" in="shadowOffsetOuter1"></feColorMatrix>
        </filter>
        <rect id="path-11" x="21" y="63" width="20" height="20" rx="4"></rect>
        <filter x="-50%" y="-50%" width="200%" height="200%" filterUnits="objectBoundingBox" id="filter-12">
            <feOffset dx="1" dy="1" in="SourceAlpha" result="shadowOffsetOuter1"></feOffset>
            <feColorMatrix values="0 0 0 0 0.596078431   0 0 0 0 0.211764706   0 0 0 0 0.168627451  0 0 0 0.7 0" type="matrix" in="shadowOffsetOuter1"></feColorMatrix>
        </filter>
        <rect id="path-13" x="42" y="21" width="20" height="20" rx="4"></rect>
        <filter x="-50%" y="-50%" width="200%" height="200%" filterUnits="objectBoundingBox" id="filter-14">
            <feOffset dx="1" dy="1" in="SourceAlpha" result="shadowOffsetOuter1"></feOffset>
            <feColorMatrix values="0 0 0 0 0   0 0 0 0 0   0 0 0 0 0  0 0 0 0.2 0" type="matrix" in="shadowOffsetOuter1"></feColorMatrix>
        </filter>
        <rect id="path-15" x="63" y="21" width="20" height="20" rx="4"></rect>
        <filter x="-50%" y="-50%" width="200%" height="200%" filterUnits="objectBoundingBox" id="filter-16">
            <feOffset dx="1" dy="1" in="SourceAlpha" result="shadowOffsetOuter1"></feOffset>
            <feColorMatrix values="0 0 0 0 0.596078431   0 0 0 0 0.211764706   0 0 0 0 0.168627451  0 0 0 0.7 0" type="matrix" in="shadowOffsetOuter1"></feColorMatrix>
        </filter>
    </defs>
    <g id="IMM-desktop" stroke="none" stroke-width="1" fill="none" fill-rule="evenodd">
        <g id="catalogos/tipos">
            <use id="Oval-4" stroke="#CCCCCC" mask="url(#mask-2)" stroke-width="4" fill="#F9F9F9" xlink:href="#path-1"></use>
            <circle id="Oval-4-Copy" fill="#D8D8DA" cx="55" cy="55" r="50"></circle>
            <g id="Group-59" transform="translate(59.500000, 58.500000) rotate(-10.000000) translate(-59.500000, -58.500000) translate(18.000000, 17.000000)">
                <g id="Rectangle-68">
                    <use fill="black" fill-opacity="1" filter="url(#filter-4)" xlink:href="#path-3"></use>
                    <use fill="#F9F9F9" fill-rule="evenodd" xlink:href="#path-3"></use>
                </g>
                <g id="Rectangle-68-Copy">
                    <use fill="black" fill-opacity="1" filter="url(#filter-6)" xlink:href="#path-5"></use>
                    <use fill="#F9F9F9" fill-rule="evenodd" xlink:href="#path-5"></use>
                </g>
                <g id="Rectangle-68-Copy-4">
                    <use fill="black" fill-opacity="1" filter="url(#filter-8)" xlink:href="#path-7"></use>
                    <use fill="#F9F9F9" fill-rule="evenodd" xlink:href="#path-7"></use>
                </g>
                <g id="Rectangle-68-Copy-5">
                    <use fill="black" fill-opacity="1" filter="url(#filter-10)" xlink:href="#path-9"></use>
                    <use fill="#F9F9F9" fill-rule="evenodd" xlink:href="#path-9"></use>
                </g>
                <g id="Rectangle-68-Copy-6">
                    <use fill="black" fill-opacity="1" filter="url(#filter-12)" xlink:href="#path-11"></use>
                    <use fill="#E75647" fill-rule="evenodd" xlink:href="#path-11"></use>
                </g>
                <g id="Rectangle-68-Copy-2">
                    <use fill="black" fill-opacity="1" filter="url(#filter-14)" xlink:href="#path-13"></use>
                    <use fill="#F9F9F9" fill-rule="evenodd" xlink:href="#path-13"></use>
                </g>
                <g id="Rectangle-68-Copy-3">
                    <use fill="black" fill-opacity="1" filter="url(#filter-16)" xlink:href="#path-15"></use>
                    <use fill="#E75647" fill-rule="evenodd" xlink:href="#path-15"></use>
                </g>
                <path d="M8.512,31.336 L11.248,31.336 C12.32,31.336 13.056,31.8 13.056,32.968 C13.056,34.152 12.192,34.472 11.2,34.472 L8.512,34.472 L8.512,31.336 Z M6,36.424 L11.536,36.424 C13.6,36.424 15.568,35.432 15.568,33.112 C15.568,31.688 14.864,30.616 13.472,30.216 C14.464,29.736 15.024,28.952 15.024,27.832 C15.024,25.704 13.552,25 11.376,25 L6,25 L6,36.424 Z M8.512,26.952 L10.864,26.952 C11.76,26.952 12.592,27.176 12.592,28.264 C12.592,29.224 11.936,29.624 11.056,29.624 L8.512,29.624 L8.512,26.952 Z" id="B" fill="#000000"></path>
                <path d="M29.432,29.528 C29.432,28.344 29.864,26.952 31.208,26.952 C32.184,26.952 32.888,27.624 32.888,28.68 C32.872,30.056 31.528,30.744 30.536,31.416 C28.6,32.728 27.016,33.832 27,36.424 L35.224,36.424 L35.224,34.472 L29.928,34.472 C30.744,33.32 32.056,32.68 33.16,31.896 C34.264,31.112 35.16,30.184 35.16,28.504 C35.16,26.312 33.368,25 31.32,25 C28.632,25 27.176,26.968 27.256,29.528 L29.432,29.528 Z" id="2" fill="#000000"></path>
                <path d="M29.512,10.336 L32.248,10.336 C33.32,10.336 34.056,10.8 34.056,11.968 C34.056,13.152 33.192,13.472 32.2,13.472 L29.512,13.472 L29.512,10.336 Z M27,15.424 L32.536,15.424 C34.6,15.424 36.568,14.432 36.568,12.112 C36.568,10.688 35.864,9.616 34.472,9.216 C35.464,8.736 36.024,7.952 36.024,6.832 C36.024,4.704 34.552,4 32.376,4 L27,4 L27,15.424 Z M29.512,5.952 L31.864,5.952 C32.76,5.952 33.592,6.176 33.592,7.264 C33.592,8.224 32.936,8.624 32.056,8.624 L29.512,8.624 L29.512,5.952 Z" id="B" fill="#000000"></path>
                <path d="M36.544,50.112 C36.24,47.472 34.128,46 31.616,46 C28.08,46 26,48.64 26,52.032 C26,55.328 28.08,57.968 31.616,57.968 C34.416,57.968 36.384,56.144 36.64,53.296 L34.208,53.296 C34.016,54.8 33.152,55.856 31.616,55.856 C29.36,55.856 28.512,53.936 28.512,52.032 C28.512,50.032 29.36,48.112 31.616,48.112 C32.864,48.112 33.952,48.976 34.112,50.112 L36.544,50.112 Z" id="C" fill="#000000"></path>
                <path d="M50.512,31.336 L53.248,31.336 C54.32,31.336 55.056,31.8 55.056,32.968 C55.056,34.152 54.192,34.472 53.2,34.472 L50.512,34.472 L50.512,31.336 Z M48,36.424 L53.536,36.424 C55.6,36.424 57.568,35.432 57.568,33.112 C57.568,31.688 56.864,30.616 55.472,30.216 C56.464,29.736 57.024,28.952 57.024,27.832 C57.024,25.704 55.552,25 53.376,25 L48,25 L48,36.424 Z M50.512,26.952 L52.864,26.952 C53.76,26.952 54.592,27.176 54.592,28.264 C54.592,29.224 53.936,29.624 53.056,29.624 L50.512,29.624 L50.512,26.952 Z" id="B-Copy-2" fill="#000000"></path>
                <polygon id="Combined-Shape-Copy-53" fill="#F9F9F9" transform="translate(73.000000, 31.000000) scale(-1, 1) translate(-73.000000, -31.000000) " points="72.8657794 33.6 72.8657794 38 66 31 72.8657794 24 72.8657794 28.4 80 28.4 80 33.6"></polygon>
                <polygon id="Combined-Shape-Copy-54" fill="#F9F9F9" transform="translate(31.000000, 73.000000) scale(-1, 1) rotate(-90.000000) translate(-31.000000, -73.000000) " points="30.8657794 75.6 30.8657794 80 24 73 30.8657794 66 30.8657794 70.4 38 70.4 38 75.6"></polygon>
            </g>
        </g>
    </g>
</svg>