<?xml version="1.0" encoding="utf-8"?><svg xmlns="http://www.w3.org/2000/svg" xmlns:xlink="http://www.w3.org/1999/xlink"><symbol id="bg" viewBox="-152 361 495 90" xml:space="preserve" xmlns="http://www.w3.org/2000/svg"><style>.ast0{opacity:5.000000e-02}</style><g id="ad.dashboard-c_1_" class="ast0"><path d="M193 1114h15v15h-15zM223 1129h15v15h-15zM223 1099h15v15h-15zM253 1114h15v15h-15zM253 1084h15v15h-15zM13 1114h15v15H13zM163 1054h15v15h-15zM193 1069h15v15h-15zM223 1054h15v30h-15zM103 1069h15v15h-15zM283 1099h15v15h-15zM313 1099h15v45h-15zM343 1084h15v60h-15zM283 1129h15v15h-15zM-107 1114h15v15h-15zM-137 1129h15v15h-15zM-77 1129h15v15h-15zM-47 1099h15v15h-15zM-47 1129h15v15h-15zM133 1084h15v30h-15zM163 1099h15v45h-15zM133 1129h15v15h-15zM73 1129h15v15H73zM283 1054h15v30h-15zM43 1114h15v30H43zM-17 1114h15v30h-15zM43 1084h15v15H43zM73 1069h15v45H73zM103 1099h15v30h-15zM328 1069h15v15h-15z" transform="translate(-15 -693)"/></g></symbol><symbol viewBox="0 0 165 75" id="bg-menu" xmlns="http://www.w3.org/2000/svg"><path d="M165 45h-15v15h15V45zm-30 15h-15v15h15V60zm0-30h-15v15h15V30zm-30 15H90v15h15V45zm0-30H90v15h15V15zM75 30H60v15h15V30zm-30 0H30v45h15V30zM15 15H0v60h15V15zm60 45H60v15h15V60zm0-60H60v15h15V0zM30 0H15v15h15V0z" fill="#F9F9F9" fill-rule="evenodd" opacity=".1"/></symbol><symbol id="lextracking-logo" viewBox="0 0 213.9 36.8" xml:space="preserve" xmlns="http://www.w3.org/2000/svg"><style>.cst0{fill:#f95c33}.cst1{fill:#4f5d75}</style><path class="cst0" d="M53.2 20l-3 6.8 1.8 4.9h-5.1l2.5-6.9 3-6.7 5.3-13.4L59.6 0H39.3l1.8 4.6L46.4 18l-6.3 16-.9 2.2H59.4L53.2 20zM51.9 4.6l-2.4 6.6-2.4-6.6h4.8zM14.9 36.4H0V.1h5.5V31h9.4v5.4zM18.7 36.4V0h15.6v5.5H24.2v9.9h7.4V21h-7.4v9.9h10.1v5.5H18.7z"/><g><path class="cst1" d="M63.3.4h17.5v5.1h-5.9v30.8h-5.6V5.5h-5.9V.4zM95.1 36.3c-.1-.2-.1-.5-.2-.7-.1-.2-.1-.5-.2-.8-.1-.3-.1-.7-.1-1.2V26.2c0-1.7-.3-2.9-.9-3.5-.6-.7-1.5-1-2.8-1h-2v14.6h-5.6V.4h8.5c2.9 0 5.1.7 6.4 2.1 1.3 1.4 2 3.4 2 6.2v2.8c0 3.7-1.2 6.1-3.7 7.3 1.4.6 2.4 1.5 3 2.8.5 1.3.8 2.9.8 4.8V32c0 .9 0 1.7.1 2.3.1.7.2 1.3.5 2h-5.8zM88.9 5.5v11h2.2c1.1 0 1.9-.3 2.5-.8.6-.5.9-1.5.9-3V9.2c0-1.3-.2-2.2-.7-2.8-.5-.6-1.2-.9-2.2-.9h-2.7zM122.2 36.3h-5.7l-1-6.5h-6.9l-1 6.5h-5.2L108.2.4h8.3l5.7 35.9zM109.3 25h5.4L112 6.8 109.3 25zM141.2 22.9v4.8c0 2.9-.7 5.1-2.1 6.7-1.4 1.6-3.5 2.3-6.3 2.3s-4.9-.8-6.3-2.3-2.1-3.8-2.1-6.7V9c0-2.9.7-5.1 2.1-6.7C127.9.7 130 0 132.8 0s4.9.8 6.3 2.3c1.4 1.6 2.1 3.8 2.1 6.7v3.5h-5.3V8.7c0-1.3-.3-2.2-.8-2.7s-1.2-.8-2.1-.8c-.9 0-1.6.3-2.1.8s-.8 1.4-.8 2.7v19.4c0 1.3.3 2.2.8 2.7s1.2.8 2.1.8c.9 0 1.6-.3 2.1-.8s.8-1.4.8-2.7V23h5.3zM152 22l-1.7 3.3v11h-5.6V.4h5.6v15.7L157.7.4h5.6l-7.9 16 7.9 19.9h-5.8L152 22zM165.8.4h5.6v35.9h-5.6V.4zM180.6 10.3v26h-5.1V.4h7.1l5.8 21.5V.4h5v35.9h-5.8l-7-26zM206 16.3h7.9v11.4c0 2.9-.7 5.1-2.1 6.7-1.4 1.6-3.5 2.3-6.3 2.3s-4.9-.8-6.3-2.3-2.1-3.8-2.1-6.7V9c0-2.9.7-5.1 2.1-6.7 1.4-1.6 3.5-2.3 6.3-2.3s4.9.8 6.3 2.3c1.4 1.6 2.1 3.8 2.1 6.7v3.5h-5.3V8.7c0-1.3-.3-2.2-.8-2.7s-1.2-.8-2.1-.8c-.9 0-1.6.3-2.1.8s-.8 1.4-.8 2.7v19.4c0 1.3.3 2.2.8 2.7s1.2.8 2.1.8c.9 0 1.6-.3 2.1-.8s.8-1.4.8-2.7v-6.6H206v-5.2z"/></g></symbol><symbol viewBox="0 0 744.848 747.077" id="login_ilustration" xmlns="http://www.w3.org/2000/svg"><path data-name="Path 1" d="M71.629 629.347l-6.56-25.872a335.967 335.967 0 00-35.643-12.788l-.828 12.024-3.358-13.247C10.219 585.17 0 583.281 0 583.281s13.8 52.489 42.754 92.617l33.734 5.926-26.207 3.779A135.926 135.926 0 0062 698.025c42.115 39.092 89.024 57.028 104.773 40.06s-5.625-62.412-47.74-101.5c-13.056-12.119-29.457-21.844-45.875-29.5z" fill="#f2f2f2"/><path data-name="Path 2" d="M134.015 601.245l7.758-25.538a335.94 335.94 0 00-23.9-29.371l-6.924 9.865 3.972-13.076c-10.641-11.436-18.412-18.335-18.412-18.335s-15.315 52.067-11.275 101.384l25.815 22.51-24.392-10.312a135.919 135.919 0 003.614 16.694c15.846 55.234 46.731 94.835 68.983 88.451s27.446-56.335 11.6-111.569c-4.912-17.123-13.926-33.926-24.023-48.965z" fill="#f2f2f2"/><path data-name="Path 22" d="M519.751 176.983h-4.092v-112.1A64.883 64.883 0 00450.776 0H213.269a64.883 64.883 0 00-64.883 64.883v615a64.883 64.883 0 0064.883 64.883h237.507a64.883 64.883 0 0064.882-64.883V256.778h4.092z" fill="#e6e6e6"/><path data-name="Path 23" d="M453.394 16.874h-31a23.02 23.02 0 01-21.316 31.714H265.013a23.02 23.02 0 01-21.314-31.714h-28.956a48.454 48.454 0 00-48.454 48.454v614.107a48.454 48.454 0 0048.454 48.454h238.651a48.454 48.454 0 0048.454-48.454V65.327a48.454 48.454 0 00-48.454-48.453z" fill="#fff"/><path data-name="Path 6" d="M303.658 261.503a24.437 24.437 0 0112.23-21.174 24.45 24.45 0 100 42.345 24.434 24.434 0 01-12.23-21.171z" fill="#ccc"/><path data-name="Path 7" d="M334.395 261.503a24.436 24.436 0 0112.23-21.174 24.45 24.45 0 100 42.345 24.434 24.434 0 01-12.23-21.171z" fill="#ccc"/><circle data-name="Ellipse 1" cx="364.434" cy="261.502" r="24.45" fill="#7076fe"/><path data-name="Path 8" d="M405.296 337.869h-142.5a5.123 5.123 0 01-5.117-5.117v-142.5a5.123 5.123 0 015.117-5.117h142.5a5.123 5.123 0 015.117 5.117v142.5a5.123 5.123 0 01-5.117 5.117zm-142.5-150.686a3.073 3.073 0 00-3.07 3.07v142.5a3.073 3.073 0 003.07 3.07h142.5a3.073 3.073 0 003.07-3.07v-142.5a3.073 3.073 0 00-3.07-3.07z" fill="#ccc"/><path data-name="Rectangle 1" fill="#ccc" d="M218.562 447.102h218.552v2.047H218.562z"/><circle data-name="Ellipse 2" cx="225.464" cy="427.42" r="6.902" fill="#7076fe"/><path data-name="Rectangle 2" fill="#ccc" d="M218.562 516.118h218.552v2.047H218.562z"/><circle data-name="Ellipse 3" cx="225.464" cy="496.437" r="6.902" fill="#7076fe"/><path d="M433.114 594.71h-69.068a4.505 4.505 0 01-4.5-4.5v-24.208a4.505 4.505 0 014.5-4.5h69.068a4.505 4.505 0 014.5 4.5v24.208a4.505 4.505 0 01-4.5 4.5z" fill="#7076fe"/><circle data-name="Ellipse 7" cx="247.978" cy="427.42" r="6.902" fill="#7076fe"/><circle data-name="Ellipse 8" cx="270.492" cy="427.42" r="6.902" fill="#7076fe"/><circle data-name="Ellipse 9" cx="247.978" cy="496.437" r="6.902" fill="#7076fe"/><circle data-name="Ellipse 10" cx="270.492" cy="496.437" r="6.902" fill="#7076fe"/><path data-name="Path 88" d="M742.066 747.077H24.08c-1.537 0-2.782-.546-2.782-1.218s1.245-1.219 2.782-1.219h717.986c1.536 0 2.782.546 2.782 1.219s-1.246 1.218-2.782 1.218z" fill="#3f3d56"/><path d="M564.677 489.461a10.094 10.094 0 011.41.788l44.853-19.143 1.6-11.816 17.922-.11-1.059 27.099-59.2 15.656a10.608 10.608 0 01-.447 1.208 10.235 10.235 0 11-5.08-13.682zM636.98 735.021h-12.26l-5.832-47.288 18.094.001-.002 47.287z" fill="#ffb8b8"/><path d="M615.963 731.518h23.644v14.887h-38.531a14.887 14.887 0 0114.887-14.887z" fill="#2f2e41"/><path fill="#ffb8b8" d="M684.66 731.557l-12.201 1.202-10.441-46.488 18.007-1.774 4.635 47.06z"/><path d="M663.401 730.131l23.53-2.318 1.46 14.816-38.346 3.776a14.887 14.887 0 0113.356-16.274z" fill="#2f2e41"/><circle cx="640.393" cy="384.574" r="24.561" fill="#ffb8b8"/><path d="M621.98 725.458a4.47 4.47 0 01-4.415-3.697c-6.345-35.226-27.088-150.406-27.584-153.596a1.427 1.427 0 01-.015-.222v-8.588a1.489 1.489 0 01.279-.872l2.74-3.838a1.478 1.478 0 011.144-.625c15.622-.732 66.784-2.878 69.256.21 2.482 3.103 1.605 12.506 1.404 14.36l.01.193 22.985 146.995a4.512 4.512 0 01-3.715 5.135l-14.356 2.365a4.521 4.521 0 01-5.026-3.092c-4.44-14.189-19.329-61.918-24.489-80.387a.5.5 0 00-.98.138c.258 17.606.88 62.524 1.095 78.038l.024 1.67a4.518 4.518 0 01-4.093 4.537l-13.844 1.257c-.14.013-.281.019-.42.019z" fill="#2f2e41"/><path data-name="Path 99" d="M624.805 418.792c-4.286 2.548-6.851 7.23-8.323 11.995a113.681 113.681 0 00-4.884 27.16l-1.556 27.6-19.255 73.17c16.689 14.12 26.315 10.911 48.78-.639s25.033 3.851 25.033 3.851l4.492-62.258 6.419-68.032a30.164 30.164 0 00-4.862-4.675 49.658 49.658 0 00-42.442-8.995z" fill="#7076fe"/><path d="M618.55 504.239a10.526 10.526 0 011.501.704l44.349-22.197.736-12.026 18.293-1.261.98 27.412-59.265 19.6a10.496 10.496 0 11-6.593-12.232z" fill="#ffb8b8"/><path data-name="Path 101" d="M675.19 431.95c10.911 3.851 12.833 45.574 12.833 45.574-12.837-7.06-28.241 4.493-28.241 4.493s-3.21-10.912-7.06-25.032a24.53 24.53 0 015.134-23.107s6.422-5.781 17.334-1.928z" fill="#7076fe"/><path data-name="Path 102" d="M662.415 391.069c-3.06-2.448-7.235 2.002-7.235 2.002l-2.448-22.034s-15.301 1.833-25.094-.611-11.322 8.875-11.322 8.875a78.58 78.58 0 01-.306-13.771c.611-5.509 8.568-11.017 22.645-14.69s21.42 12.242 21.42 12.242c9.794 4.895 5.4 30.435 2.34 27.987z" fill="#2f2e41"/></symbol><symbol viewBox="0 0 100 100" preserveAspectRatio="xMidYMid" class="euil-ring-alt" id="ring-alt" xmlns="http://www.w3.org/2000/svg"><path fill="none" class="ebk" d="M0 0h100v100H0z"/><circle cx="50" cy="50" r="40" stroke="#fafcfe" fill="none" stroke-width="10" stroke-linecap="round"/><circle cx="50" cy="50" r="40" stroke="#4A90E2" fill="none" stroke-width="6" stroke-linecap="round"><animate attributeName="stroke-dashoffset" dur="2s" repeatCount="indefinite" from="0" to="502"/><animate attributeName="stroke-dasharray" dur="2s" repeatCount="indefinite" values="200.8 50.19999999999999;1 250;200.8 50.19999999999999"/></circle></symbol><symbol style="margin:auto;background:0 0" viewBox="0 0 100 100" preserveAspectRatio="xMidYMid" display="block" id="spinner" xmlns="http://www.w3.org/2000/svg"><g transform="translate(80 50)"><circle r="6" fill="#f95c33"><animateTransform attributeName="transform" type="scale" begin="-0.875s" values="1.5 1.5;1 1" keyTimes="0;1" dur="1s" repeatCount="indefinite"/><animate attributeName="fill-opacity" keyTimes="0;1" dur="1s" repeatCount="indefinite" values="1;0" begin="-0.875s"/></circle></g><g transform="rotate(45 -50.355 121.569)"><circle r="6" fill="#f95c33" fill-opacity=".875"><animateTransform attributeName="transform" type="scale" begin="-0.75s" values="1.5 1.5;1 1" keyTimes="0;1" dur="1s" repeatCount="indefinite"/><animate attributeName="fill-opacity" keyTimes="0;1" dur="1s" repeatCount="indefinite" values="1;0" begin="-0.75s"/></circle></g><g transform="rotate(90 -15 65)"><circle r="6" fill="#f95c33" fill-opacity=".75"><animateTransform attributeName="transform" type="scale" begin="-0.625s" values="1.5 1.5;1 1" keyTimes="0;1" dur="1s" repeatCount="indefinite"/><animate attributeName="fill-opacity" keyTimes="0;1" dur="1s" repeatCount="indefinite" values="1;0" begin="-0.625s"/></circle></g><g transform="rotate(135 -.355 41.569)"><circle r="6" fill="#f95c33" fill-opacity=".625"><animateTransform attributeName="transform" type="scale" begin="-0.5s" values="1.5 1.5;1 1" keyTimes="0;1" dur="1s" repeatCount="indefinite"/><animate attributeName="fill-opacity" keyTimes="0;1" dur="1s" repeatCount="indefinite" values="1;0" begin="-0.5s"/></circle></g><g transform="rotate(180 10 25)"><circle r="6" fill="#f95c33" fill-opacity=".5"><animateTransform attributeName="transform" type="scale" begin="-0.375s" values="1.5 1.5;1 1" keyTimes="0;1" dur="1s" repeatCount="indefinite"/><animate attributeName="fill-opacity" keyTimes="0;1" dur="1s" repeatCount="indefinite" values="1;0" begin="-0.375s"/></circle></g><g transform="rotate(-135 20.355 8.431)"><circle r="6" fill="#f95c33" fill-opacity=".375"><animateTransform attributeName="transform" type="scale" begin="-0.25s" values="1.5 1.5;1 1" keyTimes="0;1" dur="1s" repeatCount="indefinite"/><animate attributeName="fill-opacity" keyTimes="0;1" dur="1s" repeatCount="indefinite" values="1;0" begin="-0.25s"/></circle></g><g transform="rotate(-90 35 -15)"><circle r="6" fill="#f95c33" fill-opacity=".25"><animateTransform attributeName="transform" type="scale" begin="-0.125s" values="1.5 1.5;1 1" keyTimes="0;1" dur="1s" repeatCount="indefinite"/><animate attributeName="fill-opacity" keyTimes="0;1" dur="1s" repeatCount="indefinite" values="1;0" begin="-0.125s"/></circle></g><g transform="rotate(-45 70.355 -71.569)"><circle r="6" fill="#f95c33" fill-opacity=".125"><animateTransform attributeName="transform" type="scale" begin="0s" values="1.5 1.5;1 1" keyTimes="0;1" dur="1s" repeatCount="indefinite"/><animate attributeName="fill-opacity" keyTimes="0;1" dur="1s" repeatCount="indefinite" values="1;0" begin="0s"/></circle></g></symbol></svg>