<?xml version="1.0" encoding="utf-8"?>
<!-- Generator: Adobe Illustrator 24.0.1, SVG Export Plug-In . SVG Version: 6.00 Build 0)  -->
<svg version="1.1" id="Capa_1" xmlns="http://www.w3.org/2000/svg" xmlns:xlink="http://www.w3.org/1999/xlink" x="0px" y="0px"
	 viewBox="0 0 934 172.7" style="enable-background:new 0 0 934 172.7;" xml:space="preserve">
<style type="text/css">
	.st0{fill:#45546C;}
	.st1{fill:#6E77FF;}
</style>
<g>
	<g>
		<path class="st0" d="M237.9,93.5l-12.7,28.9l7.6,20.9l-21.6-0.1l10.8-29.6l12.6-28.5l22.6-57.3L265,8.1h-25.8h-34.5h-25.8
			l7.8,19.7l22.6,57.3l-26.7,68.4l-3.7,9.4l0.1,0l0,0.1H204l0,0l61,0.2l0-0.1h0.1L237.9,93.5z M232.2,27.8L222,55.9l-10.2-28.1
			H232.2z"/>
	</g>
	<g>
		<path class="st1" d="M74.6,163.1H11V8.2h23.4v131.6h40.3V163.1z"/>
		<path class="st1" d="M90.7,163.1V8.1h66.5v23.5h-43.1v42.3h31.5v23.5h-31.5v42.3h43.1v23.5H90.7z"/>
	</g>
	<g>
		<path class="st1" d="M281,9.8h74.4v21.9h-25.2V163h-24.1V31.6H281V9.8z"/>
		<path class="st1" d="M416.3,163c-0.3-1-0.6-2-0.9-2.8c-0.3-0.9-0.5-2-0.8-3.3c-0.2-1.3-0.4-3-0.4-5c-0.1-2-0.1-4.6-0.1-7.7v-24.1
			c0-7.1-1.2-12.2-3.7-15.1c-2.5-2.9-6.5-4.4-12-4.4H390V163h-24.1V9.8h36.3c12.5,0,21.6,2.9,27.3,8.8c5.6,5.8,8.4,14.7,8.4,26.5v12
			c0,15.8-5.3,26.1-15.8,31.1c6.1,2.5,10.3,6.5,12.6,12.1c2.3,5.6,3.4,12.4,3.4,20.5v23.6c0,3.8,0.1,7.1,0.4,10
			c0.3,2.8,1,5.7,2.2,8.6H416.3z M390,31.6v47.1h9.4c4.5,0,8.1-1.2,10.6-3.5c2.6-2.3,3.8-6.6,3.8-12.7V47.4c0-5.5-1-9.6-3-12
			c-2-2.5-5.1-3.7-9.3-3.7H390z"/>
		<path class="st1" d="M531.9,163h-24.3l-4.2-27.8h-29.6l-4.2,27.8h-22.1L472.1,9.8h35.2L531.9,163z M476.9,114.4h23.2l-11.6-77.5
			L476.9,114.4z"/>
		<path class="st1" d="M612.8,105.8v20.4c0,12.4-3,21.9-9.1,28.6c-6.1,6.6-15,10-26.8,10s-20.8-3.3-26.8-10
			c-6.1-6.6-9.1-16.2-9.1-28.6V46.5c0-12.4,3-21.9,9.1-28.6c6.1-6.6,15-10,26.8-10s20.8,3.3,26.8,10c6.1,6.6,9.1,16.2,9.1,28.6v14.9
			h-22.8V45c0-5.5-1.1-9.4-3.4-11.7c-2.3-2.3-5.3-3.4-9.1-3.4c-3.8,0-6.8,1.1-9.1,3.4c-2.3,2.3-3.4,6.2-3.4,11.7v82.7
			c0,5.6,1.1,9.4,3.4,11.6c2.3,2.2,5.3,3.3,9.1,3.3c3.8,0,6.8-1.1,9.1-3.3c2.3-2.2,3.4-6.1,3.4-11.6v-21.9H612.8z"/>
		<path class="st1" d="M659,101.9l-7.4,14V163h-24.1V9.8h24.1v66.8l31.5-66.8h24.1L673.7,78l33.5,84.9h-24.7L659,101.9z"/>
		<path class="st1" d="M718.1,9.8h24.1V163h-24.1V9.8z"/>
		<path class="st1" d="M781.2,52v111h-21.7V9.8h30.2l24.7,91.7V9.8h21.5V163h-24.7L781.2,52z"/>
		<path class="st1" d="M889.3,77.6H923v48.6c0,12.4-3,21.9-9.1,28.6c-6.1,6.6-15,10-26.8,10s-20.8-3.3-26.8-10
			c-6.1-6.6-9.1-16.2-9.1-28.6V46.5c0-12.4,3-21.9,9.1-28.6c6.1-6.6,15-10,26.8-10s20.8,3.3,26.8,10c6.1,6.6,9.1,16.2,9.1,28.6v14.9
			h-22.8V45c0-5.5-1.1-9.4-3.4-11.7c-2.3-2.3-5.3-3.4-9.1-3.4c-3.8,0-6.8,1.1-9.1,3.4c-2.3,2.3-3.4,6.2-3.4,11.7v82.7
			c0,5.6,1.1,9.4,3.4,11.6c2.3,2.2,5.3,3.3,9.1,3.3c3.8,0,6.8-1.1,9.1-3.3c2.3-2.2,3.4-6.1,3.4-11.6V99.5h-10.9V77.6z"/>
	</g>
</g>
</svg>
