<?xml version="1.0" encoding="UTF-8" standalone="no"?>
<svg width="110px" height="110px" viewBox="0 0 110 110" version="1.1" xmlns="http://www.w3.org/2000/svg" xmlns:xlink="http://www.w3.org/1999/xlink">
    <!-- Generator: Sketch 40 (33762) - http://www.bohemiancoding.com/sketch -->
    <title>Group 2 Copy 7</title>
    <desc>Created with Sketch.</desc>
    <defs>
        <circle id="path-1" cx="55" cy="55" r="55"></circle>
        <mask id="mask-2" maskContentUnits="userSpaceOnUse" maskUnits="objectBoundingBox" x="0" y="0" width="110" height="110" fill="white">
            <use xlink:href="#path-1"></use>
        </mask>
        <rect id="path-3" x="4" y="4" width="45" height="14"></rect>
        <mask id="mask-4" maskContentUnits="userSpaceOnUse" maskUnits="objectBoundingBox" x="0" y="0" width="45" height="14" fill="white">
            <use xlink:href="#path-3"></use>
        </mask>
    </defs>
    <g id="IMM-desktop" stroke="none" stroke-width="1" fill="none" fill-rule="evenodd">
        <g id="d.dashboard-c-catalogos" transform="translate(-286.000000, -268.000000)">
            <g id="Group-2-Copy-7" transform="translate(286.000000, 268.000000)">
                <use id="Oval-4" stroke="#CCCCCC" mask="url(#mask-2)" stroke-width="4" fill="#F9F9F9" xlink:href="#path-1"></use>
                <circle id="Oval-4-Copy" fill="#6EBEC5" cx="55" cy="55" r="50"></circle>
                <g id="Group-22" transform="translate(29.000000, 20.000000)">
                    <rect id="Rectangle" fill="#F9F9F9" x="0" y="0" width="53" height="71" rx="3"></rect>
                    <use id="Rectangle-28" stroke="#C1C1C1" mask="url(#mask-4)" stroke-width="2" fill="#D8D8DA" xlink:href="#path-3"></use>
                    <rect id="Rectangle-28-Copy" fill="#E46A5D" x="4" y="22" width="9" height="9"></rect>
                    <rect id="Rectangle-28-Copy-5" fill="#E46A5D" x="4" y="34" width="9" height="9"></rect>
                    <rect id="Rectangle-28-Copy-2" fill="#E46A5D" x="16" y="22" width="9" height="9"></rect>
                    <rect id="Rectangle-28-Copy-6" fill="#E46A5D" x="16" y="34" width="9" height="9"></rect>
                    <rect id="Rectangle-28-Copy-3" fill="#E46A5D" x="28" y="22" width="9" height="9"></rect>
                    <rect id="Rectangle-28-Copy-7" fill="#E46A5D" x="28" y="34" width="9" height="9"></rect>
                    <rect id="Rectangle-28-Copy-4" fill="#E46A5D" x="40" y="22" width="9" height="9"></rect>
                    <rect id="Rectangle-28-Copy-8" fill="#E46A5D" x="40" y="34" width="9" height="9"></rect>
                    <rect id="Rectangle-28-Copy-12" fill="#E46A5D" x="4" y="46" width="9" height="9"></rect>
                    <rect id="Rectangle-28-Copy-11" fill="#E46A5D" x="16" y="46" width="9" height="9"></rect>
                    <rect id="Rectangle-28-Copy-10" fill="#E46A5D" x="28" y="46" width="9" height="9"></rect>
                    <rect id="Rectangle-28-Copy-9" fill="#E46A5D" x="40" y="46" width="9" height="9"></rect>
                    <rect id="Rectangle-28-Copy-16" fill="#E46A5D" x="4" y="58" width="9" height="9"></rect>
                    <rect id="Rectangle-28-Copy-15" fill="#E46A5D" x="16" y="58" width="9" height="9"></rect>
                    <rect id="Rectangle-28-Copy-14" fill="#3B4250" x="28" y="58" width="21" height="9"></rect>
                </g>
            </g>
        </g>
    </g>
</svg>