<?xml version="1.0" encoding="UTF-8"?>
<svg width="110px" height="110px" viewBox="0 0 110 110" version="1.1" xmlns="http://www.w3.org/2000/svg" xmlns:xlink="http://www.w3.org/1999/xlink">
    <!-- Generator: Sketch 40 (33762) - http://www.bohemiancoding.com/sketch -->
    <title>catalogos/reason</title>
    <desc>Created with Sketch.</desc>
    <defs>
        <circle id="path-1" cx="55" cy="55" r="55"></circle>
        <mask id="mask-2" maskContentUnits="userSpaceOnUse" maskUnits="objectBoundingBox" x="0" y="0" width="110" height="110" fill="white">
            <use xlink:href="#path-1"></use>
        </mask>
    </defs>
    <g id="IMM-desktop" stroke="none" stroke-width="1" fill="none" fill-rule="evenodd">
        <g id="d.dashboard-c-catalogos" transform="translate(-1192.000000, -463.000000)">
            <g id="catalogos/reason" transform="translate(1192.000000, 463.000000)">
                <use id="Oval-4" stroke="#CCCCCC" mask="url(#mask-2)" stroke-width="4" fill="#F9F9F9" xlink:href="#path-1"></use>
                <circle id="Oval-4-Copy" fill="#D8D8DA" cx="55" cy="55" r="50"></circle>
                <path d="M51.5062344,43.4615385 C51.6184539,41.6730769 51.5623441,40.3461538 53.638404,40.3461538 C56.8927681,40.3461538 57.5660848,43.2307692 57.5660848,46.0576923 C57.5660848,49.6346154 56.3877805,51.7115385 52.7406484,51.7115385 C50.8890274,51.7115385 51.1695761,50.4423077 51.2817955,48.9423077 L51.5062344,43.4615385 Z M38.2643392,62.8461538 C38.2643392,70.3461538 34.0561097,68.2692308 34.0561097,71.2692308 C34.0561097,75.4807692 42.0236908,75.4807692 44.7169576,75.4807692 C53.8067332,75.4807692 55.2094763,73.9230769 55.2094763,71.8461538 C55.2094763,69.0769231 52.3478803,69.8846154 51.8990025,67.2307692 C51.6184539,65.6153846 51.5062344,63.3076923 51.5062344,61.6346154 C51.5062344,58 51.9551122,57.8269231 53.1895262,57.8269231 C56.2755611,57.8269231 57.2294264,60.4230769 57.8466334,63.0769231 C59.5860349,70.6923077 60.7082294,76 69.6857855,76 C76.0261845,76 78.6072319,73.6923077 78.6072319,71.5 C78.6072319,67.9807692 74.9600998,71.2115385 74.286783,65.8461538 C73.5012469,59.6153846 71.7618454,56.9615385 67.8341646,55.4615385 C67.1608479,55.1730769 66.4314214,54.9423077 66.4314214,54.0769231 C66.4314214,53.3846154 66.8241895,53.2115385 67.3291771,52.9230769 C70.4713217,51.3653846 72.0985037,48.0192308 72.0985037,44.5576923 C72.0985037,36.8846154 64.7481297,34 58.4077307,34 C56.6122195,34 54.7605985,34.1153846 52.9650873,34.1730769 C51.1134663,34.2884615 49.3179551,34.4038462 47.5224439,34.4038462 C46.4002494,34.4038462 45.2219451,34.2884615 44.0997506,34.1730769 C42.9214464,34.1153846 41.7992519,34 40.6209476,34 C38.3765586,34 34,34.4038462 34,37.5769231 C34,41.1538462 38.2643392,37.4615385 38.2643392,46.4038462 L38.2643392,62.8461538 Z" id="R" fill="#50667E"></path>
            </g>
        </g>
    </g>
</svg>